<svg id="linkedin" xmlns="http://www.w3.org/2000/svg" width="24" height="24" viewBox="0 0 24 24">
  <path id="Path_1379" data-name="Path 1379" d="M24,1.765V22.235A1.765,1.765,0,0,1,22.235,24H1.765A1.765,1.765,0,0,1,0,22.235V1.765A1.765,1.765,0,0,1,1.765,0H22.235A1.765,1.765,0,0,1,24,1.765ZM7.059,9.176H3.529V20.471H7.059Zm.318-3.882A2.033,2.033,0,0,0,5.358,3.247H5.294a2.047,2.047,0,1,0,0,4.094h0A2.033,2.033,0,0,0,7.376,5.358Zm13.094,8.315c0-3.4-2.16-4.715-4.306-4.715a4.024,4.024,0,0,0-3.572,1.821h-.1V9.176H9.176V20.471h3.529V14.464a2.344,2.344,0,0,1,2.118-2.527h.134c1.122,0,1.955.706,1.955,2.485v6.049h3.529Z" fill="#0a66c2"/>
</svg>
