<svg xmlns="http://www.w3.org/2000/svg" width="178" height="48" viewBox="0 0 178 48">
  <g id="LOGO_Mahamma-01" data-name="LOGO Mahamma-01" transform="translate(-159.53 -441.14)">
    <g id="Group_928" data-name="Group 928" transform="translate(159.53 441.14)">
      <path id="Path_1109" data-name="Path 1109" d="M216.488,528.636,200.03,512.18l7.3-7.3,9.163,9.162L237.8,492.73l7.3,7.3Z" transform="translate(-190.079 -480.636)" fill="#33a15a"/>
      <path id="Path_1110" data-name="Path 1110" d="M204.591,450.964l-7.3,7.3-9.158-9.16-21.31,21.31-7.3-7.3,21.976-21.976h13.259Z" transform="translate(-159.53 -441.14)" fill="#8fc045"/>
      <path id="Path_1111" data-name="Path 1111" d="M262.229,441.14l-6.629,6.629-6.629-6.629Z" transform="translate(-226.994 -441.14)" fill="#33a15a"/>
    </g>
    <g id="Group_936" data-name="Group 936" transform="translate(228.179 443.715)">
      <g id="Group_930" data-name="Group 930" transform="translate(0.057 25.712)">
        <g id="Group_929" data-name="Group 929">
          <path id="Path_1112" data-name="Path 1112" d="M440.14,577.911V561.92h3.152l5.044,9.234,5.067-9.234h3.039v15.991H453.2V567.8l-3.715,6.779H447.1l-3.715-6.779v10.111Z" transform="translate(-440.14 -561.112)" fill="#414142"/>
          <path id="Path_1113" data-name="Path 1113" d="M519.54,589.8a5.048,5.048,0,0,1-1.688-.27,4.07,4.07,0,0,1-1.339-.776,3.555,3.555,0,0,1-.889-1.182,3.453,3.453,0,0,1-.315-1.487,3.346,3.346,0,0,1,.609-1.983,4.01,4.01,0,0,1,1.713-1.339,6.357,6.357,0,0,1,2.568-.484,7.008,7.008,0,0,1,1.408.135,7.917,7.917,0,0,1,1.295.383v-.7a2.344,2.344,0,0,0-.575-1.644,2.013,2.013,0,0,0-1.565-.631,2.534,2.534,0,0,0-1.351.371,2,2,0,0,0-.855,1.047l-2.816-.563a3.927,3.927,0,0,1,.98-1.813,4.976,4.976,0,0,1,1.791-1.2,6.077,6.077,0,0,1,2.3-.428,5.812,5.812,0,0,1,2.093.361,4.631,4.631,0,0,1,1.632,1.037,4.7,4.7,0,0,1,1.059,1.587,5.343,5.343,0,0,1,.371,2.037v7.2h-2.818l-.091-1.4a3.544,3.544,0,0,1-1.374,1.251A4.475,4.475,0,0,1,519.54,589.8Zm-1.125-3.875a1.259,1.259,0,0,0,.518,1.037,2.165,2.165,0,0,0,1.374.405,2.773,2.773,0,0,0,1.329-.315,2.4,2.4,0,0,0,.924-.867,2.3,2.3,0,0,0,.337-1.229v-.113a6.493,6.493,0,0,0-1.059-.327,5.173,5.173,0,0,0-1.125-.123,2.97,2.97,0,0,0-1.678.418A1.282,1.282,0,0,0,518.414,585.929Z" transform="translate(-496.839 -572.666)" fill="#414142"/>
          <path id="Path_1114" data-name="Path 1114" d="M568.92,575.429v-16.8h3.152v6.216a3.807,3.807,0,0,1,1.4-1.2,4.235,4.235,0,0,1,1.958-.44,4.188,4.188,0,0,1,2.285.619,4.1,4.1,0,0,1,1.521,1.767,6.278,6.278,0,0,1,.541,2.7v7.138h-3.152V568.7a3.069,3.069,0,0,0-.563-1.948,1.873,1.873,0,0,0-1.553-.71,2.373,2.373,0,0,0-1.26.327,2.319,2.319,0,0,0-.855.912,2.745,2.745,0,0,0-.315,1.329v6.823Z" transform="translate(-537.277 -558.63)" fill="#414142"/>
          <path id="Path_1115" data-name="Path 1115" d="M625.31,589.8a5.046,5.046,0,0,1-1.688-.27,4.069,4.069,0,0,1-1.339-.776,3.555,3.555,0,0,1-.889-1.182,3.453,3.453,0,0,1-.315-1.487,3.346,3.346,0,0,1,.609-1.983,4.01,4.01,0,0,1,1.713-1.339,6.357,6.357,0,0,1,2.568-.484,7,7,0,0,1,1.408.135,7.915,7.915,0,0,1,1.295.383v-.7a2.344,2.344,0,0,0-.575-1.644,2.013,2.013,0,0,0-1.565-.631,2.534,2.534,0,0,0-1.351.371,2,2,0,0,0-.855,1.047l-2.816-.563a3.927,3.927,0,0,1,.98-1.813,4.976,4.976,0,0,1,1.791-1.2,6.077,6.077,0,0,1,2.3-.427,5.814,5.814,0,0,1,2.093.361,4.632,4.632,0,0,1,1.632,1.037,4.7,4.7,0,0,1,1.059,1.587,5.342,5.342,0,0,1,.371,2.037v7.2h-2.816l-.091-1.4a3.544,3.544,0,0,1-1.374,1.251A4.492,4.492,0,0,1,625.31,589.8Zm-1.125-3.875a1.259,1.259,0,0,0,.518,1.037,2.165,2.165,0,0,0,1.374.405,2.773,2.773,0,0,0,1.329-.315,2.4,2.4,0,0,0,.924-.867,2.3,2.3,0,0,0,.337-1.229v-.113a6.505,6.505,0,0,0-1.059-.327,5.177,5.177,0,0,0-1.125-.123,2.97,2.97,0,0,0-1.678.418A1.278,1.278,0,0,0,624.184,585.929Z" transform="translate(-576.62 -572.666)" fill="#414142"/>
          <path id="Path_1116" data-name="Path 1116" d="M674.69,589.362v-11.89h2.9l.091,1.509a3.778,3.778,0,0,1,1.4-1.351,3.984,3.984,0,0,1,5.563,1.71,4.16,4.16,0,0,1,1.565-1.6,4.521,4.521,0,0,1,2.354-.609,4.177,4.177,0,0,1,2.3.619,4.056,4.056,0,0,1,1.5,1.767,6.429,6.429,0,0,1,.528,2.7v7.143h-3.152v-6.732a3.147,3.147,0,0,0-.541-1.948,1.786,1.786,0,0,0-1.509-.71,2.234,2.234,0,0,0-1.2.327,2.212,2.212,0,0,0-.823.912,2.913,2.913,0,0,0-.292,1.329v6.823h-3.155v-6.732a3.147,3.147,0,0,0-.541-1.948,1.786,1.786,0,0,0-1.509-.71,2.234,2.234,0,0,0-1.2.327,2.21,2.21,0,0,0-.823.912,2.945,2.945,0,0,0-.292,1.329v6.823Z" transform="translate(-617.059 -572.562)" fill="#414142"/>
          <path id="Path_1117" data-name="Path 1117" d="M759.01,589.362v-11.89h2.9l.091,1.509a3.777,3.777,0,0,1,1.4-1.351,3.984,3.984,0,0,1,5.563,1.71,4.159,4.159,0,0,1,1.565-1.6,4.521,4.521,0,0,1,2.354-.609,4.177,4.177,0,0,1,2.3.619,4.056,4.056,0,0,1,1.5,1.767,6.429,6.429,0,0,1,.528,2.7v7.143h-3.152v-6.732a3.147,3.147,0,0,0-.541-1.948,1.786,1.786,0,0,0-1.509-.71,2.234,2.234,0,0,0-1.2.327,2.211,2.211,0,0,0-.823.912,2.913,2.913,0,0,0-.292,1.329v6.823h-3.152v-6.732a3.147,3.147,0,0,0-.541-1.948,1.786,1.786,0,0,0-1.509-.71,2.235,2.235,0,0,0-1.2.327,2.212,2.212,0,0,0-.823.912,2.946,2.946,0,0,0-.292,1.329v6.823Z" transform="translate(-680.66 -572.562)" fill="#414142"/>
          <path id="Path_1118" data-name="Path 1118" d="M845.28,589.8a5.048,5.048,0,0,1-1.688-.27,4.07,4.07,0,0,1-1.339-.776,3.555,3.555,0,0,1-.889-1.182,3.452,3.452,0,0,1-.315-1.487,3.345,3.345,0,0,1,.609-1.983,4.01,4.01,0,0,1,1.713-1.339,6.357,6.357,0,0,1,2.568-.484,7.007,7.007,0,0,1,1.408.135,7.92,7.92,0,0,1,1.295.383v-.7a2.344,2.344,0,0,0-.575-1.644,2.013,2.013,0,0,0-1.565-.631,2.534,2.534,0,0,0-1.351.371,2,2,0,0,0-.855,1.047l-2.816-.563a3.927,3.927,0,0,1,.98-1.813,4.976,4.976,0,0,1,1.791-1.2,6.077,6.077,0,0,1,2.3-.428,5.812,5.812,0,0,1,2.093.361,4.632,4.632,0,0,1,1.632,1.037,4.7,4.7,0,0,1,1.059,1.587,5.342,5.342,0,0,1,.371,2.037v7.2h-2.816l-.091-1.4a3.544,3.544,0,0,1-1.374,1.251A4.492,4.492,0,0,1,845.28,589.8Zm-1.128-3.875a1.259,1.259,0,0,0,.518,1.037,2.165,2.165,0,0,0,1.374.405,2.773,2.773,0,0,0,1.329-.315,2.4,2.4,0,0,0,.924-.867,2.3,2.3,0,0,0,.337-1.229v-.113a6.493,6.493,0,0,0-1.059-.327,5.173,5.173,0,0,0-1.125-.123,2.971,2.971,0,0,0-1.678.418A1.282,1.282,0,0,0,844.152,585.929Z" transform="translate(-742.541 -572.666)" fill="#414142"/>
        </g>
      </g>
      <g id="Group_935" data-name="Group 935" transform="translate(0 0)">
        <path id="Path_1119" data-name="Path 1119" d="M583.023,456.249l-.064.022a1.4,1.4,0,0,1-.518.811,1.446,1.446,0,0,1-.887.292,1.406,1.406,0,0,1-.985-.346,1.839,1.839,0,0,1-.378-1.364V455.1l1.319-.369v.973q0,.346.28.346.324,0,.324-.346v-1.147l1.256-.369v.951a.324.324,0,0,0,.649,0v-1.147l1.342-.41v1.364a2.228,2.228,0,0,1-.356,1.31,1.291,1.291,0,0,1-1.135.509A.777.777,0,0,1,583.023,456.249Zm2.251-4.629-.007,1.315-5,1.189.007-1.292Z" transform="translate(-545.722 -451.62)" fill="#414142"/>
        <path id="Path_1120" data-name="Path 1120" d="M840.765,464.18v1.292l-6.425,1.735v-1.292Z" transform="translate(-737.425 -461.094)" fill="#414142"/>
        <g id="Group_934" data-name="Group 934" transform="translate(0 2.877)">
          <g id="Group_933" data-name="Group 933">
            <path id="Path_1121" data-name="Path 1121" d="M453.509,463.873a1.687,1.687,0,0,0-1.248-.543,1.714,1.714,0,0,0-1.273.543,1.749,1.749,0,0,0-.528,1.26,1.711,1.711,0,0,0,.528,1.251,1.737,1.737,0,0,0,1.273.528,1.809,1.809,0,0,0,1.779-1.779A1.742,1.742,0,0,0,453.509,463.873Z" transform="translate(-447.868 -463.329)" fill="#414142"/>
            <path id="Path_1122" data-name="Path 1122" d="M469.362,463.873a1.693,1.693,0,0,0-1.251-.543,1.713,1.713,0,0,0-1.273.543,1.749,1.749,0,0,0-.528,1.26,1.711,1.711,0,0,0,.528,1.251,1.737,1.737,0,0,0,1.273.528,1.8,1.8,0,0,0,1.779-1.779A1.749,1.749,0,0,0,469.362,463.873Z" transform="translate(-459.823 -463.329)" fill="#414142"/>
            <path id="Path_1123" data-name="Path 1123" d="M651.166,485.468a5.042,5.042,0,0,0-3.985-1.688h-13.87v3.108h13.622a2.662,2.662,0,0,1,1.958.71,3.775,3.775,0,0,1,0,4.435,2.665,2.665,0,0,1-1.958.708h-4.895a3.35,3.35,0,0,1-2.531,0h-36.22l-.157.091a5.266,5.266,0,0,0,5.2,3h38.849a5.474,5.474,0,0,0,2.71-.649,4.8,4.8,0,0,0,1.275-1.042,5.709,5.709,0,0,0,.921-1.432,7.028,7.028,0,0,0,.568-2.89A6.348,6.348,0,0,0,651.166,485.468Z" transform="translate(-563.025 -478.755)" fill="#414142"/>
            <path id="Path_1124" data-name="Path 1124" d="M743.265,487.371a5.831,5.831,0,0,0-.958-1.229,6.052,6.052,0,0,0-8.457,0,5.957,5.957,0,0,0-.951,1.229,6.1,6.1,0,0,0,.951,7.216q.206.206.428.391a6.069,6.069,0,0,0,8.03-.391,5.953,5.953,0,0,0,1.034-1.364A6.173,6.173,0,0,0,743.265,487.371Zm-5.192,6.1a3.16,3.16,0,0,1-1.265-.248,2.88,2.88,0,0,1-.909-.629,3.3,3.3,0,0,1,0-4.46,2.849,2.849,0,0,1,1.292-.764,3.5,3.5,0,0,1,1.764,0,2.905,2.905,0,0,1,1.3.764,3.273,3.273,0,0,1,0,4.46,2.934,2.934,0,0,1-.919.629A3.143,3.143,0,0,1,738.073,493.472Z" transform="translate(-660.325 -479.238)" fill="#414142"/>
            <path id="Path_1125" data-name="Path 1125" d="M846.42,486.139a6.052,6.052,0,0,0-8.457,0,6.037,6.037,0,0,0,0,8.445c.027.027.057.056.086.081a5.975,5.975,0,1,0,8.372-8.526Zm-2.049,6.452a3.092,3.092,0,0,1-5.054-1.133,3.431,3.431,0,0,1-.17-1.1,3.383,3.383,0,0,1,.179-1.128,2.859,2.859,0,0,1,.685-1.1,2.92,2.92,0,0,1,2.175-.877,2.958,2.958,0,0,1,2.182.877A3.266,3.266,0,0,1,844.37,492.591Z" transform="translate(-738.858 -479.234)" fill="#414142"/>
            <path id="Path_1126" data-name="Path 1126" d="M576.646,486.142a6.109,6.109,0,0,0-7.369-.867,5.963,5.963,0,0,0-1.089.867,5.733,5.733,0,0,0-1.722,4.221,6.22,6.22,0,0,0,.229,1.708A5.631,5.631,0,0,0,568.1,494.5a.184.184,0,0,0,.029.032c.017.02.039.042.059.061a6.048,6.048,0,0,0,8.322.125c.044-.042.091-.084.133-.125a5.951,5.951,0,0,0,1.034-1.364,5.372,5.372,0,0,0,.543-1.437,6.378,6.378,0,0,0,.155-1.423A5.713,5.713,0,0,0,576.646,486.142Zm-2.052,6.452a2.966,2.966,0,0,1-2.182.877,2.93,2.93,0,0,1-2.174-.877,3.3,3.3,0,0,1,0-4.46,2.92,2.92,0,0,1,2.174-.877,2.962,2.962,0,0,1,2.182.877A3.273,3.273,0,0,1,574.594,492.594Z" transform="translate(-535.369 -479.237)" fill="#414142"/>
            <path id="Path_1127" data-name="Path 1127" d="M812.746,484.42v6.664a2.113,2.113,0,0,1-.607,1.6,2.2,2.2,0,0,1-1.307.553,4.644,4.644,0,0,1-.541.032,3.8,3.8,0,0,1-.568-.042l-.025,0h-4.452l-.157.091a5.108,5.108,0,0,0,2.231,2.349.73.73,0,0,0,.076.039,6.43,6.43,0,0,0,2.894.609c.182,0,.364-.007.541-.02a5.607,5.607,0,0,0,3.447-1.354c.1-.086.189-.174.275-.265a4.789,4.789,0,0,0,1.265-3.209c.01-.125.012-.248.012-.376v-6.664h-3.086Z" transform="translate(-715.362 -479.238)" fill="#414142"/>
            <path id="Path_1128" data-name="Path 1128" d="M558.335,484.42v6.666a2.365,2.365,0,0,1-.229,1.079,1.864,1.864,0,0,1-.378.518,2.454,2.454,0,0,1-1.678.582v3.042c.115,0,.226-.007.337-.015.143-.01.28-.022.415-.042s.246-.034.366-.054l.039-.007c.125-.022.246-.047.369-.076a5.292,5.292,0,0,0,2.292-1.177,3.755,3.755,0,0,0,.405-.41,5.044,5.044,0,0,0,1.147-3.44V484.42Z" transform="translate(-527.513 -479.238)" fill="#414142"/>
            <g id="Group_931" data-name="Group 931" transform="translate(0 5.143)">
              <path id="Path_1129" data-name="Path 1129" d="M445.134,493.569a2.365,2.365,0,0,1-1.079-.229,1.864,1.864,0,0,1-.518-.378,2.57,2.57,0,0,1-.585-1.848v-.034a2.627,2.627,0,0,1,.882-2.091,1.881,1.881,0,0,1,.221-.17,2.647,2.647,0,0,1,.381-.228l-1.531-2.681a5.032,5.032,0,0,0-2.7,3.076,6.684,6.684,0,0,0-.28,1.55c-.012.165-.015.334-.017.506v.069c0,.172,0,.342.017.506.01.14.022.28.039.415s.034.246.054.366l.007.039c.022.125.049.246.079.366v0a5.328,5.328,0,0,0,1.174,2.292,4.865,4.865,0,0,0,3.85,1.553H451.8v-3.086h-6.664Z" transform="translate(-439.91 -485.505)" fill="#414142"/>
              <path id="Path_1130" data-name="Path 1130" d="M445.141,484.262a4.871,4.871,0,0,0-3.85,1.553,5.275,5.275,0,0,0-1.174,2.292v0c-.029.12-.054.241-.079.366l-.007.039c-.022.12-.039.241-.054.366s-.029.275-.039.415c-.015.165-.017.334-.017.506v.069c0,.172.007.342.017.506a6.682,6.682,0,0,0,.28,1.55,5.019,5.019,0,0,0,2.7,3.076l1.531-2.681a2.649,2.649,0,0,1-.381-.229,1.875,1.875,0,0,1-.221-.17,2.615,2.615,0,0,1-.882-2.091V489.8a2.578,2.578,0,0,1,.585-1.848,1.815,1.815,0,0,1,.518-.378,2.4,2.4,0,0,1,1.079-.229h6.666V484.26h-6.669Z" transform="translate(-439.918 -484.26)" fill="#414142"/>
            </g>
            <path id="Path_1131" data-name="Path 1131" d="M608.978,515.83a3.972,3.972,0,0,1-.636.044,3.687,3.687,0,0,1-.585-.044,2.509,2.509,0,0,1-1.939-1.44l0,0L603.3,515.83l-.157.091a5.266,5.266,0,0,0,5.2,3,5.8,5.8,0,0,0,3.936-1.332l.047-.042a4.324,4.324,0,0,0,1.189-1.713h-4.538Z" transform="translate(-563.033 -501.844)" fill="#414142"/>
            <g id="Group_932" data-name="Group 932" transform="translate(86.819 12.546)">
              <path id="Path_1132" data-name="Path 1132" d="M793.39,520.25l-.14.091a5.749,5.749,0,0,0,.853,1.4,4.6,4.6,0,0,0,3.735,1.6h3.693l.57-3.086h-8.71Z" transform="translate(-793.25 -518.81)" fill="#414142"/>
              <path id="Path_1133" data-name="Path 1133" d="M799.088,515.83a3.972,3.972,0,0,1-.636.044,3.685,3.685,0,0,1-.585-.044,2.509,2.509,0,0,1-1.939-1.44l0,0-2.519,1.437-.157.091a5.266,5.266,0,0,0,5.2,3,6.347,6.347,0,0,0,2.845-.609,4.963,4.963,0,0,0,1.093-.722l.047-.042a4.307,4.307,0,0,0,.432-.442v-1.27h-3.784Z" transform="translate(-793.25 -514.39)" fill="#414142"/>
            </g>
            <rect id="Rectangle_2751" data-name="Rectangle 2751" width="14.485" height="3.044" transform="translate(14.603 14.028)" fill="#414142"/>
            <path id="Path_1134" data-name="Path 1134" d="M484.374,493.322v-.052l-.128,0a.531.531,0,0,1-.064,0h-.034c-.052,0-.1,0-.152,0a2.461,2.461,0,0,1-1.693-.582,1.815,1.815,0,0,1-.378-.518,2.4,2.4,0,0,1-.229-1.079V484.43h-3.086V491.1a6.452,6.452,0,0,0,.135,1.359,4.432,4.432,0,0,0,1.418,2.492,5.1,5.1,0,0,0,.821.595,5.94,5.94,0,0,0,2.661.762c.1.01.2.015.3.015.069,0,.135,0,.206,0h.069c.054,0,.106,0,.157,0v-3Z" transform="translate(-469.1 -479.245)" fill="#414142"/>
          </g>
        </g>
        <rect id="Rectangle_2752" data-name="Rectangle 2752" width="3.826" height="3.086" transform="translate(69.673 11.046) rotate(-90)" fill="#414142"/>
      </g>
    </g>
  </g>
</svg>
