<svg xmlns="http://www.w3.org/2000/svg" xmlns:xlink="http://www.w3.org/1999/xlink" width="545" height="315" viewBox="0 0 545 315">
  <defs>
    <clipPath id="clip-path">
      <circle id="Ellipse_101" data-name="Ellipse 101" cx="38.7" cy="38.7" r="38.7" transform="translate(0 54.73) rotate(-45)"/>
    </clipPath>
  </defs>
  <g id="illustration_-_search" data-name="illustration - search" transform="translate(-123.52 -217.22)">
    <g id="Group_891" data-name="Group 891" transform="translate(134.391 230.08)">
      <g id="Group_890" data-name="Group 890" transform="translate(18.449 3.182)">
        <path id="Path_1050" data-name="Path 1050" d="M733.635,438.133c-21.924-15.793-48.2-23.434-72.383-34.873-23.262-11-39.814-28.678-60.627-43.242-34.007-23.8-73.314-41.646-113.317-52.537-40.451-11.012-89.862-17.113-126.734,7.3-18.135,12.006-32.9,30.628-38.908,51.656-7.156,25.022-.153,50.589,3.279,75.6,2.79,20.319-10.259,31.528-25.632,43.075-36,27.034-35,75.953-12.754,111.015H749.837C777.346,546.293,789.444,478.335,733.635,438.133Z" transform="translate(-270.871 -297.842)" fill="#fcfdf9"/>
      </g>
      <circle id="Ellipse_93" data-name="Ellipse 93" cx="17.186" cy="17.186" r="17.186" transform="translate(19.277 128.828)" fill="#f6f5f5"/>
      <circle id="Ellipse_94" data-name="Ellipse 94" cx="25.402" cy="25.402" r="25.402" transform="translate(417.588 35.471)" fill="#fcfdf9"/>
      <circle id="Ellipse_95" data-name="Ellipse 95" cx="7.613" cy="7.613" r="7.613" transform="matrix(0.156, -0.988, 0.988, 0.156, 30.839, 107.089)" fill="#f6f5f5"/>
      <circle id="Ellipse_96" data-name="Ellipse 96" cx="7.613" cy="7.613" r="7.613" transform="translate(452.74 100.856) rotate(-22.5)" fill="#fcfdf9"/>
      <path id="Path_1051" data-name="Path 1051" d="M196.855,1237.4c-22.049-18.812-22.252-51.725-12.671-76,10.668-27.03,35.67-49.278,68.6-61.042q1.2-.427,2.4-.844l.3.856c-.8.277-1.6.559-2.394.842-32.683,11.676-57.492,33.736-68.062,60.523-9.462,23.976-9.293,56.458,12.419,74.981Z" transform="translate(-178.153 -937.118)" fill="#8dc73f" opacity="0.5"/>
      <path id="Path_1052" data-name="Path 1052" d="M2335.3,1059.3l-.8-.414c16.283-31.654,25.93-63.575,27.892-92.312,1.936-28.331-3.685-51.7-16.253-67.579-11.406-14.408-34.1-29.324-77.458-18.553l-.217-.877c43.82-10.886,66.813,4.252,78.383,18.87,12.711,16.056,18.4,39.641,16.446,68.2C2361.32,995.494,2351.641,1027.536,2335.3,1059.3Z" transform="translate(-1852.929 -757.966)" fill="#8dc73f" opacity="0.5"/>
      <path id="Path_1053" data-name="Path 1053" d="M779.026,330.442l-.876-.225a48.692,48.692,0,0,1,6.519-13.4,71.4,71.4,0,0,1,27.714-24.043c16.732-8.433,37.793-12.011,62.594-10.636,31.037,1.723,68.048,11.253,110,28.327l-.34.838c-41.864-17.037-78.777-26.544-109.713-28.262-24.646-1.369-45.549,2.179-62.138,10.54a70.5,70.5,0,0,0-27.368,23.737A48.528,48.528,0,0,0,779.026,330.442Z" transform="translate(-658.915 -281.85)" fill="#8dc73f" opacity="0.5"/>
    </g>
    <g id="Group_894" data-name="Group 894" transform="translate(248.567 285.737)">
      <g id="Group_892" data-name="Group 892" transform="translate(0 11.859)">
        <rect id="Rectangle_2725" data-name="Rectangle 2725" width="314.585" height="190.708" transform="translate(0.454 0.452)" fill="#fff"/>
        <path id="Path_1054" data-name="Path 1054" d="M1068.55,814.323H753.06V622.71h315.488V814.323Zm-314.585-.905h313.679v-189.8H753.965Z" transform="translate(-753.06 -622.71)" fill="#8dc73f"/>
      </g>
      <g id="Group_893" data-name="Group 893" transform="translate(0 0)">
        <rect id="Rectangle_2726" data-name="Rectangle 2726" width="314.585" height="11.859" transform="translate(0.454 0.454)" fill="#fff"/>
        <path id="Path_1055" data-name="Path 1055" d="M1068.55,575.873H753.06V563.11h315.488v12.763Zm-314.585-.9h313.679V564.015H753.965Z" transform="translate(-753.06 -563.11)" fill="#8dc73f"/>
      </g>
    </g>
    <g id="Group_895" data-name="Group 895" transform="translate(261.181 289.615)">
      <path id="Path_1056" data-name="Path 1056" d="M818.62,586.89a2.74,2.74,0,1,1,2.74-2.74A2.744,2.744,0,0,1,818.62,586.89Zm0-4.575a1.835,1.835,0,1,0,1.835,1.835A1.838,1.838,0,0,0,818.62,582.315Z" transform="translate(-815.88 -581.41)" fill="#8dc73f"/>
      <path id="Path_1057" data-name="Path 1057" d="M864.6,586.89a2.74,2.74,0,1,1,2.74-2.74A2.744,2.744,0,0,1,864.6,586.89Zm0-4.575a1.835,1.835,0,1,0,1.835,1.835A1.838,1.838,0,0,0,864.6,582.315Z" transform="translate(-852.711 -581.41)" fill="#8dc73f"/>
      <path id="Path_1058" data-name="Path 1058" d="M910.58,586.89a2.74,2.74,0,1,1,2.74-2.74A2.744,2.744,0,0,1,910.58,586.89Zm0-4.575a1.835,1.835,0,1,0,1.835,1.835A1.838,1.838,0,0,0,910.58,582.315Z" transform="translate(-889.541 -581.41)" fill="#8dc73f"/>
    </g>
    <g id="Group_896" data-name="Group 896" transform="translate(380.82 394.773)">
      <rect id="Rectangle_2727" data-name="Rectangle 2727" width="13.461" height="25.776" transform="translate(0 35.879)" fill="#8dc73f"/>
      <rect id="Rectangle_2728" data-name="Rectangle 2728" width="13.461" height="41.11" transform="translate(27.764 20.545)" fill="#ddeec5"/>
      <rect id="Rectangle_2729" data-name="Rectangle 2729" width="13.461" height="50.138" transform="translate(55.53 11.519)" fill="#8dc73f"/>
      <rect id="Rectangle_2730" data-name="Rectangle 2730" width="13.461" height="28.321" transform="translate(83.296 33.336)" fill="#ddeec5"/>
      <rect id="Rectangle_2731" data-name="Rectangle 2731" width="13.461" height="44.682" transform="translate(111.062 16.975)" fill="#8dc73f"/>
      <rect id="Rectangle_2732" data-name="Rectangle 2732" width="13.461" height="61.655" transform="translate(138.827)" fill="#ddeec5"/>
    </g>
    <g id="Group_898" data-name="Group 898" transform="translate(275.378 393.208)">
      <rect id="Rectangle_2733" data-name="Rectangle 2733" width="75.976" height="4.851" fill="#e5ecff"/>
      <rect id="Rectangle_2734" data-name="Rectangle 2734" width="75.976" height="49.603" transform="translate(0 13.62)" fill="#ddeec5"/>
      <g id="Group_897" data-name="Group 897" transform="translate(9.722 28.95)">
        <path id="Path_1059" data-name="Path 1059" d="M1051.318,1261.856a7.308,7.308,0,0,0-7.9,1.811c-1.914,1.87-2.183,4.515-3.084,6.875,1.86.507,3.534,1.61,5.562,1.293,2.634-.41,2.7-2.869,4.2-4.543a7.467,7.467,0,0,1,4.642-2.6A7.042,7.042,0,0,0,1051.318,1261.856Z" transform="translate(-1019.612 -1258.747)" fill="#32a15a"/>
        <path id="Path_1060" data-name="Path 1060" d="M1164.047,1248.765c-2.591.563-5.313,1.484-7.161,3.373-1.59,1.624-1.532,4.451-2.686,6.159a3.938,3.938,0,0,0,4.2.5c1.4-.756,2.249-2.457,3.757-3.2a17.576,17.576,0,0,1,4.272-1.21c.3-.054.615-.09.923-.131v-6.029A32.758,32.758,0,0,0,1164.047,1248.765Z" transform="translate(-1110.824 -1248.23)" fill="#32a15a"/>
        <path id="Path_1061" data-name="Path 1061" d="M991.816,1278a17.57,17.57,0,0,0-4.272,1.21c-1.508.742-2.358,2.442-3.757,3.2a3.935,3.935,0,0,1-4.2-.5,9.976,9.976,0,0,1-1.453-1.2c-1.783-1.757-2.34-2.75-5.162-2.979a7.6,7.6,0,0,0-1.644.048,7.476,7.476,0,0,0-4.642,2.6c-1.492,1.676-1.562,4.133-4.2,4.543-2.028.317-3.7-.786-5.562-1.293a5.759,5.759,0,0,0-2.35-.2c-1.962.271-3.2,1.448-4.571,2.342a5.369,5.369,0,0,1-3.329,1.047c-3.042-.133-6.964-1.886-10.469-2v13.547h56.527v-20.5C992.429,1277.915,992.119,1277.948,991.816,1278Z" transform="translate(-936.21 -1271.844)" fill="#8dc73f"/>
        <path id="Path_1062" data-name="Path 1062" d="M950.016,1285.724a5.114,5.114,0,0,1-.623-.639c-1.4-1.737-1.512-3.942-3.06-5.569-3.015-3.17-7.132-1.916-10.112.78v4.477c3.5.114,7.426,1.865,10.469,2A5.383,5.383,0,0,0,950.016,1285.724Z" transform="translate(-936.218 -1271.79)" fill="#32a15a"/>
      </g>
    </g>
    <g id="Group_899" data-name="Group 899" transform="translate(281.161 349.919)">
      <path id="Path_1063" data-name="Path 1063" d="M1157.027,915.362H931.632a14.79,14.79,0,0,1-14.772-14.773V899.6a14.789,14.789,0,0,1,14.772-14.772h225.392A14.788,14.788,0,0,1,1171.8,899.6v.987A14.788,14.788,0,0,1,1157.027,915.362ZM931.632,885.735A13.882,13.882,0,0,0,917.765,899.6v.987a13.882,13.882,0,0,0,13.867,13.867h225.392a13.882,13.882,0,0,0,13.867-13.867V899.6a13.882,13.882,0,0,0-13.867-13.867Z" transform="translate(-916.86 -884.83)" fill="#8dc73f"/>
      <path id="Path_1064" data-name="Path 1064" d="M997.552,944.857H970.3a4.559,4.559,0,0,1-4.547-4.547v-1.944a4.559,4.559,0,0,1,4.547-4.547h27.255a4.56,4.56,0,0,1,4.547,4.547v1.944A4.559,4.559,0,0,1,997.552,944.857Z" transform="translate(-956.022 -924.072)" fill="#ddeec5"/>
      <path id="Path_1065" data-name="Path 1065" d="M1233.051,944.857h-23.824a4.621,4.621,0,0,1-4.606-4.606v-1.825a4.621,4.621,0,0,1,4.606-4.606h23.824a4.621,4.621,0,0,1,4.606,4.606v1.825A4.621,4.621,0,0,1,1233.051,944.857Z" transform="translate(-1147.36 -924.072)" fill="#ddeec5"/>
      <path id="Path_1066" data-name="Path 1066" d="M1453.889,944.85h-32.1a4.871,4.871,0,0,1-4.857-4.857v-1.325a4.872,4.872,0,0,1,4.857-4.857h32.1a4.872,4.872,0,0,1,4.857,4.857v1.325A4.873,4.873,0,0,1,1453.889,944.85Z" transform="translate(-1317.424 -924.064)" fill="#ddeec5"/>
      <path id="Path_1067" data-name="Path 1067" d="M1745.129,944.55h-47.7a4.872,4.872,0,0,1-4.857-4.857v-1.325a4.872,4.872,0,0,1,4.857-4.857h47.7a4.872,4.872,0,0,1,4.857,4.857v1.325A4.872,4.872,0,0,1,1745.129,944.55Z" transform="translate(-1538.217 -923.824)" fill="#ddeec5"/>
    </g>
    <rect id="Rectangle_2735" data-name="Rectangle 2735" width="75.976" height="7.955" transform="translate(370.651 327.03)" fill="#8dc73f"/>
    <g id="Group_908" data-name="Group 908" transform="translate(169.018 298.645)">
      <g id="Group_900" data-name="Group 900" transform="translate(31.374 69.065)">
        <path id="Path_1068" data-name="Path 1068" d="M537.214,1082.06l-14.444,2.832,3.3-21.241,8.883.181c-.056.374-.113.736-.147,1.11a32.911,32.911,0,0,0,.2,8.282A44.354,44.354,0,0,0,537.214,1082.06Z" transform="translate(-520.198 -1046.023)" fill="#f9b384"/>
        <path id="Path_1069" data-name="Path 1069" d="M553.613,1078.422a16.136,16.136,0,0,1-7.613-8.113l7.41-.169A32.817,32.817,0,0,0,553.613,1078.422Z" transform="translate(-538.805 -1051.221)" fill="#102048" opacity="0.1"/>
        <path id="Path_1070" data-name="Path 1070" d="M543.363,992.255c.567,1.982,3.777,14.54-2.077,15.954s-11.9-3.966-11.9-3.966l1.982-12.084,8.5-2.549Z" transform="translate(-525.5 -986.716)" fill="#f9b384"/>
        <path id="Path_1071" data-name="Path 1071" d="M519.953,987.436s1.522-10.043,7.752-6.833c-.223-.115-.545-1.116-.685-1.345a9.3,9.3,0,0,0-2.414-2.68c-3.546-2.6-9.525-1.654-12.385,1.335-2.816,2.943-2.9,8.172-1.453,11.975a9.522,9.522,0,0,0,.888,1.759,7.362,7.362,0,0,0,1.138,1.335c.37.356,3.15,2.545,3.18.862C516.047,989.736,519.953,987.436,519.953,987.436Z" transform="translate(-509.844 -975.064)" fill="#4b4b4b"/>
        <ellipse id="Ellipse_97" data-name="Ellipse 97" cx="2.479" cy="3.07" rx="2.479" ry="3.07" transform="translate(5.675 11.496) rotate(-39.278)" fill="#f9b384"/>
        <ellipse id="Ellipse_98" data-name="Ellipse 98" cx="1.319" cy="1.433" rx="1.319" ry="1.433" transform="translate(17.723 11.24)" fill="#f9b384"/>
      </g>
      <g id="Group_903" data-name="Group 903" transform="translate(9.908 131.586)">
        <g id="Group_901" data-name="Group 901" transform="translate(4.399 55.459)">
          <path id="Path_1072" data-name="Path 1072" d="M441.252,1567.98l-17.182,7.365s14.162,36.063,18.314,38.33,2.077-17.749,4.909-23.79l3.588-14.162Z" transform="translate(-424.07 -1567.98)"/>
          <rect id="Rectangle_2736" data-name="Rectangle 2736" width="1.811" height="7.476" transform="translate(15.71 22.301) rotate(-86.021)" fill="#fff"/>
        </g>
        <path id="Path_1073" data-name="Path 1073" d="M488.59,1407.231l10.385,24.547s40.407-21.148,50.414-40.407l-15.861-20.77Z" transform="translate(-471.353 -1354.417)" fill="#4b4b4b"/>
        <path id="Path_1074" data-name="Path 1074" d="M760.93,1585.923s18.882.756,27.567-14.162l-19.26-2.832Z" transform="translate(-689.502 -1513.282)"/>
        <g id="Group_902" data-name="Group 902" transform="translate(74.823 57.256)">
          <path id="Path_1075" data-name="Path 1075" d="M804.128,1594.972l-21.3,7.526-1.719-6.079-3.12-11.008,17.755-8.4,1.248,2.676Z" transform="translate(-777.99 -1577.01)" fill="#f9b384"/>
          <path id="Path_1076" data-name="Path 1076" d="M850.54,1693.418l-23.319-18.41-3.6-7.709-21.3,7.517,5.265,18.6Z" transform="translate(-797.479 -1649.334)"/>
          <rect id="Rectangle_2737" data-name="Rectangle 2737" width="7.8" height="1.809" transform="matrix(0.617, -0.787, 0.787, 0.617, 24.206, 31.268)" fill="#fff"/>
          <path id="Path_1077" data-name="Path 1077" d="M796.993,1579.686l-15.883,16.733-3.12-11.008,17.755-8.4Z" transform="translate(-777.99 -1577.01)" fill="#e28b6d"/>
        </g>
        <path id="Path_1078" data-name="Path 1078" d="M500.962,1347.744a69.615,69.615,0,0,0-27.569,14.164l-14.355-37.763s-28.962,27.6-46.256,23.038c-16.434-4.342-9.263-31.539-9.263-31.539,22.567-15.8,58.465-37.021,74.195-20.215a2.083,2.083,0,0,1,.209.209c3.22,3.536,6.857,10.528,10.276,18.271C495.021,1329.328,500.962,1347.744,500.962,1347.744Z" transform="translate(-401.963 -1289.269)" fill="#4b4b4b"/>
        <path id="Path_1079" data-name="Path 1079" d="M707.548,1336.561c-15.648,3.681-31.748-13.7-31.748-13.7l16.171-5.309,5.092.533a2.056,2.056,0,0,1,.209.209C700.494,1321.828,704.129,1328.818,707.548,1336.561Z" transform="translate(-621.311 -1311.922)" fill="#4b4b4b"/>
        <path id="Path_1080" data-name="Path 1080" d="M551.068,1499.2l-14.112-37.122c-3.06,2.907-19.711,18.143-37.266,22.77l-.231-.873c19.108-5.036,37.176-22.839,37.357-23.018l.493-.491,14.6,38.414Z" transform="translate(-480.06 -1426.396)" opacity="0.2"/>
      </g>
      <g id="Group_907" data-name="Group 907" transform="translate(0 0)">
        <path id="Path_1081" data-name="Path 1081" d="M386.911,1116.54l-6.34,20.5-8.528,27.569s-6.222,2.235-11.712,1.538c-4.847-.615-9.125-3.528-7.969-12.329C354.909,1134.413,386.911,1116.54,386.911,1116.54Z" transform="translate(-352.171 -1019.324)" fill="#8dc73f"/>
        <path id="Path_1082" data-name="Path 1082" d="M413.411,1174.25l-8.528,27.569s-6.222,2.235-11.712,1.538C397.773,1175.056,413,1163,413,1163Z" transform="translate(-385.012 -1056.539)" fill="#4b4b4b" opacity="0.2"/>
        <path id="Path_1083" data-name="Path 1083" d="M755.328,1187.693l-4.722,17.98-15.937-15.031,6.322-10.6,8.548,4.559Z" transform="translate(-658.559 -1070.188)" fill="#8dc73f"/>
        <path id="Path_1084" data-name="Path 1084" d="M766.62,1120.256l6.049-9.667,12.22-5.209-4,22.545Z" transform="translate(-684.152 -1010.385)" fill="#f9b384"/>
        <g id="Group_906" data-name="Group 906" transform="translate(35.459)">
          <path id="Path_1085" data-name="Path 1085" d="M986.707,1014.872a14.819,14.819,0,0,0-8.719.316,14.576,14.576,0,0,0-4.821,2.995l-5.906-13.694a18.941,18.941,0,0,0,5.617-1.872,15.767,15.767,0,0,0,6.087-5.707Z" transform="translate(-880.326 -923.498)" fill="#32a15a"/>
          <path id="Path_1086" data-name="Path 1086" d="M623.226,1048.642l-5.9-13.692-86.954,41.277,3.142,7.289,89.714-34.874-5.9-13.692Z" transform="translate(-530.37 -953.969)" fill="#32a15a"/>
          <path id="Path_1087" data-name="Path 1087" d="M1009.319,1014.872a14.819,14.819,0,0,0-8.719.317l-5.11-12.572a15.765,15.765,0,0,0,6.087-5.707Z" transform="translate(-902.939 -923.498)" fill="#32815a"/>
          <ellipse id="Ellipse_99" data-name="Ellipse 99" cx="46.453" cy="46.451" rx="46.453" ry="46.451" transform="translate(75.561 65.693) rotate(-45)" fill="#32a15a"/>
          <circle id="Ellipse_100" data-name="Ellipse 100" cx="38.7" cy="38.7" r="38.7" transform="translate(86.523 65.692) rotate(-45)" fill="#fff"/>
          <g id="Group_905" data-name="Group 905" transform="translate(86.523 10.962)">
            <g id="Group_904" data-name="Group 904" clip-path="url(#clip-path)">
              <path id="Path_1088" data-name="Path 1088" d="M1054.441,914.833H752.265a19.828,19.828,0,0,1-19.8-19.8V893.7a19.827,19.827,0,0,1,19.8-19.8h302.176a19.827,19.827,0,0,1,19.8,19.8v1.323A19.827,19.827,0,0,1,1054.441,914.833ZM752.265,875.114A18.612,18.612,0,0,0,733.674,893.7v1.323a18.611,18.611,0,0,0,18.591,18.591h302.176a18.611,18.611,0,0,0,18.591-18.591V893.7a18.612,18.612,0,0,0-18.591-18.591Z" transform="translate(-778.771 -835.927)" fill="#8dc73f"/>
              <path id="Path_1089" data-name="Path 1089" d="M840.636,954.36H804.1a6.115,6.115,0,0,1-6.1-6.1v-2.607a6.115,6.115,0,0,1,6.1-6.1h36.539a6.115,6.115,0,0,1,6.1,6.1v2.607A6.115,6.115,0,0,1,840.636,954.36Z" transform="translate(-831.27 -888.522)" fill="#ddeec5"/>
              <path id="Path_1090" data-name="Path 1090" d="M1156.357,954.368h-31.941a6.2,6.2,0,0,1-6.176-6.176v-2.446a6.2,6.2,0,0,1,6.176-6.176h31.941a6.2,6.2,0,0,1,6.176,6.176v2.446A6.194,6.194,0,0,1,1156.357,954.368Z" transform="translate(-1087.787 -888.53)" fill="#ddeec5"/>
              <path id="Path_1091" data-name="Path 1091" d="M1452.429,954.368h-43.038a6.53,6.53,0,0,1-6.511-6.511v-1.777a6.53,6.53,0,0,1,6.511-6.511h43.038a6.53,6.53,0,0,1,6.511,6.511v1.777A6.527,6.527,0,0,1,1452.429,954.368Z" transform="translate(-1315.789 -888.53)" fill="#ddeec5"/>
              <path id="Path_1092" data-name="Path 1092" d="M1842.9,953.968h-63.951a6.53,6.53,0,0,1-6.51-6.511v-1.777a6.53,6.53,0,0,1,6.51-6.511H1842.9a6.53,6.53,0,0,1,6.511,6.511v1.777A6.53,6.53,0,0,1,1842.9,953.968Z" transform="translate(-1611.812 -888.21)" fill="#ddeec5"/>
            </g>
          </g>
        </g>
        <path id="Path_1093" data-name="Path 1093" d="M815.188,1140.97l-5.788-3.094,3.528-7.661s4.911-8.873,7.362-8.493S815.188,1140.97,815.188,1140.97Z" transform="translate(-718.419 -1023.465)" fill="#f9b384"/>
        <path id="Path_1094" data-name="Path 1094" d="M474.464,1130.165l-1.2,2.018a91.465,91.465,0,0,0-14.285-15.849h0c-5.96-5-14.044-12.767-21.1-11.69-18.9,2.865-28.055,63.034-28.055,63.034l48.9-17.7,10.954,8.534a11.964,11.964,0,0,0,8.387,2.483h0a11.976,11.976,0,0,0,10.562-8.92l1.783-6.871Z" transform="translate(-398.349 -1009.714)" fill="#8dc73f"/>
        <rect id="Rectangle_2738" data-name="Rectangle 2738" width="0.903" height="17.725" transform="matrix(0.663, -0.748, 0.748, 0.663, 46.793, 128.836)" fill="#4b4b4b" opacity="0.2"/>
        <rect id="Rectangle_2739" data-name="Rectangle 2739" width="0.903" height="13.845" transform="translate(73.225 121.13) rotate(-35.246)" fill="#4b4b4b" opacity="0.2"/>
      </g>
    </g>
    <g id="Group_911" data-name="Group 911" transform="translate(199.118 217.22)">
      <g id="Group_909" data-name="Group 909" transform="translate(226.772 25.951)">
        <path id="Path_1095" data-name="Path 1095" d="M1903.2,658.96s-2.286,7.159-8.055,10.341-13.425,6.563-10.839,7.657,9.5.4,9.5.4-13.375,10.341-9.6,11.436,12.928-6.363,12.928-6.363-1.244,2.784.647,3.381,5.52-.1,5.52-.1-.5,1.99,3.281,1.492,13.624-12.43,13.624-12.43l.7-10.938Z" transform="translate(-1835.688 -597.012)" fill="#f9b384"/>
        <path id="Path_1096" data-name="Path 1096" d="M1923.89,348.13s14.916-3.878,37.291,10.144c20.135,12.617,21.48,25.06,11.933,40.573A161.178,161.178,0,0,1,1952.53,425.4l-17.005-15.811,14.916-23.269Z" transform="translate(-1868.017 -347.638)" fill="#32a15a"/>
        <path id="Path_1097" data-name="Path 1097" d="M1769.3,362.1a80.35,80.35,0,0,0-31.822,35.8h73.588l-20.286-32.219Z" transform="translate(-1718.699 -359.222)" fill="#32a15a"/>
        <path id="Path_1098" data-name="Path 1098" d="M1672.941,507.3s7.235,1.268,9.77,0-5.52-4.923-12.454-6.638-15.065-4.774-21.779,4.774-6.041,10.218-3.878,10.069,7.309-6.562,7.309-6.562-5.52,6.937-2.909,7.683,8.875-8.725,8.875-8.725-5.371,7.683-2.611,8.576,8.725-8.5,8.725-8.5-6.041,9.472-2.386,9.249c2.378-.145,5.1-4.3,6.718-7.187a5.3,5.3,0,0,1,4.62-2.734Z" transform="translate(-1643.097 -468.723)" fill="#f9b384"/>
        <path id="Path_1099" data-name="Path 1099" d="M1902.461,393.622a11.854,11.854,0,0,1-5.171-1.254l.442-.79c.3.165,7.38,3.992,11.949-3.128l.762.488C1908.067,392.641,1905.023,393.622,1902.461,393.622Z" transform="translate(-1846.71 -380.329)" fill="#4b4b4b" opacity="0.2"/>
        <path id="Path_1100" data-name="Path 1100" d="M1981.218,490.921l-.758-.493,19.238-29.557-7.38-11.511.762-.49,7.695,12Z" transform="translate(-1913.33 -428.726)" fill="#4b4b4b" opacity="0.2"/>
      </g>
      <g id="Group_910" data-name="Group 910" transform="translate(0 0)">
        <path id="Path_1101" data-name="Path 1101" d="M1884.811,317.3a5.482,5.482,0,0,1-9.668,1.62l-.71-.957-4.592-6.222,4.732-6.153.454-.593,1.076.8.78.583,8.266,6.182A13.27,13.27,0,0,1,1884.811,317.3Z" transform="translate(-1597.95 -287.525)" fill="#f9b384"/>
        <path id="Path_1102" data-name="Path 1102" d="M1874.423,320.345l-4.593-6.222,4.732-6.153,1.53.207.73.1s.02.167.05.484A21.1,21.1,0,0,1,1874.423,320.345Z" transform="translate(-1597.942 -289.912)" fill="#102048" opacity="0.1"/>
        <path id="Path_1103" data-name="Path 1103" d="M1804.06,255.537s10.244,18.4,17.614,10.7c5.6-5.844,1.646-13.909,1.646-13.909l-5.432-5.267-12.1,3.621Z" transform="translate(-1545.259 -241.122)" fill="#f9b384"/>
        <path id="Path_1104" data-name="Path 1104" d="M1795.292,233.035a1.08,1.08,0,0,1-.537-.052,2.743,2.743,0,0,1-1.415-.991c-1-1.323-3.82-4.427-6.833-2.352-3.765,2.593-8.19,9.567-13.354,5.536-3.3-2.573-1.518-9.489,2.463-10.1a2.783,2.783,0,0,0,1.876-1.208c1.737-2.587,6.481-8.276,13.521-6.2,7.06,2.079,6.469,5.824,8.194,7.736a2.589,2.589,0,0,1-.058,3.49Z" transform="translate(-1519.124 -217.22)" fill="#4b4b4b"/>
        <path id="Path_1105" data-name="Path 1105" d="M511.393,972.163c.109-.056-.44.368-.342.209a5.024,5.024,0,0,0,0-2.165c-.131-1.437.834-4.929,3.98-5.367,3.932-.547,10.855,1.329,11.8-4.282.6-3.58-4.591-6.966-7.5-5.026a2.421,2.421,0,0,1-1.91.326c-2.63-.639-9-1.5-12.3,3.954s-.728,7.522-.714,9.758a2.246,2.246,0,0,0,2.083,2.2Z" transform="translate(-503.441 -808.167)" fill="#4b4b4b"/>
        <ellipse id="Ellipse_102" data-name="Ellipse 102" cx="2.716" cy="3.518" rx="2.716" ry="3.518" transform="translate(272.752 11.37)" fill="#f9b384"/>
      </g>
    </g>
    <rect id="Rectangle_2740" data-name="Rectangle 2740" width="545" height="1.357" transform="translate(123.52 530.863)" fill="#4b4b4b"/>
  </g>
</svg>
