<?xml version="1.0" encoding="utf-8"?>
<!-- Generator: Adobe Illustrator 25.3.0, SVG Export Plug-In . SVG Version: 6.00 Build 0)  -->
<svg version="1.1" id="alarm-clock-time" xmlns="http://www.w3.org/2000/svg" xmlns:xlink="http://www.w3.org/1999/xlink" x="0px"
	 y="0px" viewBox="0 0 24 24" style="enable-background:new 0 0 24 24;" xml:space="preserve">
<style type="text/css">
	.st0{fill:#111111;}
</style>
<g id="Group_967">
	<g id="Path_1201">
		<path class="st0" d="M12,21.8c-3.4,0-6.7-2-8.1-5.4c0,0,0,0,0-0.1C2.1,11.8,4.2,6.7,8.7,4.9l0,0c2.2-0.9,4.5-0.9,6.7,0
			c2.2,0.9,3.8,2.6,4.7,4.7c1.8,4.5-0.3,9.6-4.7,11.4C14.3,21.5,13.1,21.8,12,21.8z M5.3,15.8c1.5,3.7,5.8,5.4,9.5,3.9
			c3.7-1.5,5.5-5.8,3.9-9.5c-1.5-3.7-5.8-5.5-9.5-3.9l0,0C5.5,7.8,3.8,12.1,5.3,15.8C5.3,15.8,5.3,15.8,5.3,15.8z M5.4,16.1
			L5.4,16.1L5.4,16.1z M8.9,5.6L8.9,5.6L8.9,5.6z"/>
	</g>
	<g id="Path_1202">
		<path class="st0" d="M3.5,6.6C3.2,6.6,3,6.5,2.9,6.3C2.6,6,2.7,5.5,3,5.2l3-2.5C6.3,2.4,6.8,2.5,7,2.8c0.3,0.3,0.2,0.8-0.1,1.1
			l-3,2.5C3.8,6.5,3.6,6.6,3.5,6.6z"/>
	</g>
	<g id="Path_1203">
		<path class="st0" d="M20.6,6.6c-0.2,0-0.3-0.1-0.5-0.2l-3-2.5c-0.3-0.3-0.4-0.7-0.1-1.1c0.3-0.3,0.7-0.4,1.1-0.1l3,2.5
			c0.3,0.3,0.4,0.7,0.1,1.1C21,6.5,20.8,6.6,20.6,6.6z"/>
	</g>
	<g id="Path_1204">
		<path class="st0" d="M15,16.3c-0.1,0-0.3,0-0.4-0.1l-3.2-2c-0.2-0.1-0.4-0.4-0.4-0.6V9.4c0-0.4,0.3-0.8,0.8-0.8s0.8,0.3,0.8,0.8
			v3.7l2.9,1.8c0.4,0.2,0.5,0.7,0.2,1C15.5,16.2,15.3,16.3,15,16.3z"/>
	</g>
</g>
</svg>
