<?xml version="1.0" encoding="utf-8"?>
<!-- Generator: Adobe Illustrator 25.3.0, SVG Export Plug-In . SVG Version: 6.00 Build 0)  -->
<svg version="1.1" id="attachment-link" xmlns="http://www.w3.org/2000/svg" xmlns:xlink="http://www.w3.org/1999/xlink" x="0px"
	 y="0px" viewBox="0 0 24 24" style="enable-background:new 0 0 24 24;" xml:space="preserve">
<style type="text/css">
	.st0{fill:#111111;}
	.st1{fill:none;}
</style>
<g id="Group_357">
	<g id="Path_449">
		<path class="st0" d="M7.3,17.4c-0.2,0-0.4-0.1-0.5-0.2c-0.3-0.3-0.3-0.8,0-1.1l4.7-4.7c0.3-0.3,0.8-0.3,1.1,0s0.3,0.8,0,1.1
			l-4.7,4.7C7.7,17.3,7.5,17.4,7.3,17.4z"/>
	</g>
	<g id="Path_450">
		<path class="st0" d="M12,12.8c-0.2,0-0.4-0.1-0.5-0.2c-0.3-0.3-0.3-0.8,0-1.1l4.7-4.7c0.3-0.3,0.8-0.3,1.1,0s0.3,0.8,0,1.1
			l-4.7,4.7C12.4,12.7,12.2,12.8,12,12.8z"/>
	</g>
	<g id="Path_451">
		<path class="st0" d="M6.7,21.8c-1.2,0-2.3-0.4-3.2-1.3c-0.8-0.8-1.3-2-1.3-3.2c0-1.2,0.5-2.3,1.3-3.2l1.5-1.5
			c1.7-1.7,4.6-1.7,6.3,0c0.3,0.3,0.3,0.8,0,1.1c-0.3,0.3-0.8,0.3-1.1,0c-1.2-1.2-3.1-1.2-4.2,0l-1.5,1.5c-1.2,1.2-1.2,3.1,0,4.2
			c1.2,1.2,3,1.2,4.2,0l1.6-1.6c0.7-0.7,1-1.7,0.8-2.6c-0.1-0.4,0.2-0.8,0.6-0.9c0.4-0.1,0.8,0.2,0.9,0.6c0.3,1.4-0.2,2.9-1.2,4
			l-1.5,1.5C9,21.3,7.9,21.8,6.7,21.8z"/>
	</g>
	<g id="Path_452">
		<path class="st0" d="M15.7,12.7c-0.3,0-0.5,0-0.8-0.1c-0.4-0.1-0.7-0.5-0.6-0.9c0.1-0.4,0.5-0.7,0.9-0.6c1,0.2,1.9-0.1,2.6-0.8
			l1.5-1.5c1.2-1.2,1.2-3.1,0-4.2c-1.2-1.2-3-1.2-4.2,0l-1.6,1.6c-1.2,1.2-1.2,3.1,0,4.2c0.3,0.3,0.3,0.8,0,1.1
			c-0.3,0.3-0.8,0.3-1.1,0c-1.7-1.7-1.7-4.6,0-6.3l1.5-1.5c0.9-0.9,2-1.3,3.2-1.3c0,0,0,0,0,0c1.2,0,2.3,0.5,3.2,1.3
			c1.7,1.8,1.7,4.6,0,6.3l-1.5,1.5C18,12.3,16.9,12.7,15.7,12.7z"/>
	</g>
</g>
<g id="Path_453">
	<path class="st1" d="M0,0h24v24H0V0z"/>
</g>
</svg>
