<?xml version="1.0" encoding="utf-8"?>
<!-- Generator: Adobe Illustrator 25.3.0, SVG Export Plug-In . SVG Version: 6.00 Build 0)  -->
<svg version="1.1" id="bullet-list-text" xmlns="http://www.w3.org/2000/svg" xmlns:xlink="http://www.w3.org/1999/xlink" x="0px"
	 y="0px" viewBox="0 0 24 24" style="enable-background:new 0 0 24 24;" xml:space="preserve">
<style type="text/css">
	.st0{fill:none;}
	.st1{fill:#111111;}
</style>
<g id="Group_276">
	<g id="Path_150">
		<path class="st0" d="M0,0h24v24H0V0z"/>
	</g>
	<g id="Path_151">
		<path class="st1" d="M20.5,6.8h-12C8.1,6.8,7.8,6.4,7.8,6s0.3-0.8,0.8-0.8h12c0.4,0,0.8,0.3,0.8,0.8S20.9,6.8,20.5,6.8z"/>
	</g>
	<g id="Path_152">
		<path class="st1" d="M4.5,6.8h-1C3.1,6.8,2.8,6.4,2.8,6s0.3-0.8,0.8-0.8h1c0.4,0,0.8,0.3,0.8,0.8S4.9,6.8,4.5,6.8z"/>
	</g>
	<g id="Path_153">
		<path class="st1" d="M4.5,12.8h-1c-0.4,0-0.8-0.3-0.8-0.8s0.3-0.8,0.8-0.8h1c0.4,0,0.8,0.3,0.8,0.8S4.9,12.8,4.5,12.8z"/>
	</g>
	<g id="Path_154">
		<path class="st1" d="M4.5,18.8h-1c-0.4,0-0.8-0.3-0.8-0.8s0.3-0.8,0.8-0.8h1c0.4,0,0.8,0.3,0.8,0.8S4.9,18.8,4.5,18.8z"/>
	</g>
	<g id="Path_155">
		<path class="st1" d="M20.5,12.8h-12c-0.4,0-0.8-0.3-0.8-0.8s0.3-0.8,0.8-0.8h12c0.4,0,0.8,0.3,0.8,0.8S20.9,12.8,20.5,12.8z"/>
	</g>
	<g id="Path_156">
		<path class="st1" d="M20.5,18.8h-12c-0.4,0-0.8-0.3-0.8-0.8s0.3-0.8,0.8-0.8h12c0.4,0,0.8,0.3,0.8,0.8S20.9,18.8,20.5,18.8z"/>
	</g>
</g>
</svg>
