<?xml version="1.0" encoding="utf-8"?>
<!-- Generator: Adobe Illustrator 25.3.0, SVG Export Plug-In . SVG Version: 6.00 Build 0)  -->
<svg version="1.1" id="Business_Chart" xmlns="http://www.w3.org/2000/svg" xmlns:xlink="http://www.w3.org/1999/xlink" x="0px"
	 y="0px" viewBox="0 0 24 24" style="enable-background:new 0 0 24 24;" xml:space="preserve">
<style type="text/css">
	.st0{fill:#111111;}
	.st1{fill:none;}
</style>
<g id="Group_359">
	<g id="Path_457">
		<path class="st0" d="M20,20.8c-0.4,0-0.8-0.3-0.8-0.8v-8c0-0.4,0.3-0.8,0.8-0.8s0.8,0.3,0.8,0.8v8C20.8,20.4,20.4,20.8,20,20.8z"
			/>
	</g>
	<g id="Path_458">
		<path class="st0" d="M14.7,20.8c-0.4,0-0.8-0.3-0.8-0.8v-5.3c0-0.4,0.3-0.8,0.8-0.8s0.8,0.3,0.8,0.8V20
			C15.5,20.4,15.1,20.8,14.7,20.8z"/>
	</g>
	<g id="Path_459">
		<path class="st0" d="M4,20.8c-0.4,0-0.8-0.3-0.8-0.8v-3c0-0.4,0.3-0.8,0.8-0.8s0.8,0.3,0.8,0.8v3C4.8,20.4,4.4,20.8,4,20.8z"/>
	</g>
	<g id="Path_460">
		<path class="st0" d="M9.3,20.8c-0.4,0-0.8-0.3-0.8-0.8v-6.4c0-0.4,0.3-0.8,0.8-0.8s0.8,0.3,0.8,0.8V20C10,20.4,9.7,20.8,9.3,20.8z
			"/>
	</g>
	<g id="Path_461">
		<path class="st0" d="M14.7,12.3c-0.6,0-1.3-0.2-1.7-0.7c-0.5-0.5-0.8-1.1-0.8-1.8s0.2-1.3,0.7-1.8c1-1,2.5-1,3.5-0.1v0
			c1,1,1,2.5,0.1,3.5C16.1,12,15.5,12.3,14.7,12.3C14.8,12.3,14.8,12.3,14.7,12.3z M14.7,8.8c-0.3,0-0.5,0.1-0.7,0.3
			c-0.2,0.2-0.3,0.5-0.3,0.7c0,0.3,0.1,0.5,0.3,0.7c0.2,0.2,0.4,0.3,0.7,0.3c0.3,0,0.5-0.1,0.7-0.3c0.4-0.4,0.4-1,0-1.4
			C15.2,8.9,15,8.8,14.7,8.8z"/>
	</g>
	<g id="Path_462">
		<path class="st0" d="M20.1,7.8c-0.6,0-1.2-0.2-1.7-0.7c-1-0.9-1-2.5-0.1-3.5c1-1,2.5-1,3.5-0.1c1,0.9,1,2.5,0.1,3.5
			C21.5,7.5,20.8,7.8,20.1,7.8z M20.1,4.3c-0.3,0-0.5,0.1-0.7,0.3C19,5,19,5.6,19.4,6c0.4,0.4,1,0.4,1.4,0c0.4-0.4,0.4-1,0-1.4l0,0
			C20.6,4.4,20.4,4.3,20.1,4.3z"/>
	</g>
	<g id="Path_463">
		<path class="st0" d="M3.9,13.2c-0.6,0-1.2-0.2-1.7-0.7c-1-0.9-1-2.5-0.1-3.5c1-1,2.5-1,3.5-0.1l0,0c0.5,0.5,0.8,1.1,0.8,1.7
			s-0.2,1.3-0.7,1.8C5.3,12.9,4.6,13.2,3.9,13.2z M3.9,9.7c-0.3,0-0.5,0.1-0.7,0.3c-0.4,0.4-0.4,1.1,0,1.4c0.2,0.2,0.4,0.3,0.7,0.3
			c0.3,0,0.5-0.1,0.7-0.3s0.3-0.4,0.3-0.7c0-0.3-0.1-0.5-0.3-0.7l0,0C4.4,9.8,4.2,9.7,3.9,9.7z"/>
	</g>
	<g id="Path_464">
		<path class="st0" d="M9.3,8.7C8.7,8.7,8.1,8.4,7.6,8C7.1,7.5,6.8,6.9,6.8,6.2s0.2-1.3,0.7-1.8c1-1,2.5-1,3.5-0.1c0,0,0,0,0,0
			c1,1,1,2.5,0.1,3.5C10.7,8.4,10.1,8.6,9.3,8.7C9.4,8.7,9.3,8.7,9.3,8.7z M9.3,5.2c-0.3,0-0.5,0.1-0.7,0.3C8.4,5.7,8.3,5.9,8.3,6.2
			s0.1,0.5,0.3,0.7c0.4,0.4,1,0.4,1.4,0c0.4-0.4,0.4-1,0-1.4l0,0C9.8,5.3,9.6,5.2,9.3,5.2z"/>
	</g>
	<g id="Path_465">
		<path class="st0" d="M16,9.4c-0.2,0-0.4-0.1-0.6-0.3c-0.3-0.3-0.2-0.8,0.1-1.1l2.7-2.3c0.3-0.3,0.8-0.2,1.1,0.1
			c0.3,0.3,0.2,0.8-0.1,1.1l-2.7,2.3C16.4,9.3,16.2,9.4,16,9.4z"/>
	</g>
	<g id="Path_466">
		<path class="st0" d="M13.2,9.5c-0.1,0-0.3,0-0.4-0.1l-2.5-1.7C10,7.5,9.9,7,10.1,6.7c0.2-0.3,0.7-0.4,1-0.2l2.5,1.7
			c0.3,0.2,0.4,0.7,0.2,1C13.7,9.4,13.5,9.5,13.2,9.5z"/>
	</g>
	<g id="Path_467">
		<path class="st0" d="M5.2,10.3c-0.2,0-0.4-0.1-0.6-0.3C4.4,9.7,4.4,9.2,4.8,9l2.7-2.3c0.3-0.3,0.8-0.2,1.1,0.1
			c0.3,0.3,0.2,0.8-0.1,1.1l-2.7,2.3C5.6,10.2,5.4,10.3,5.2,10.3z"/>
	</g>
</g>
<g id="Path_468">
	<path class="st1" d="M0,0h24v24H0V0z"/>
</g>
</svg>
