<?xml version="1.0" encoding="utf-8"?>
<!-- Generator: Adobe Illustrator 25.3.0, SVG Export Plug-In . SVG Version: 6.00 Build 0)  -->
<svg version="1.1" id="Business_-Chart" xmlns="http://www.w3.org/2000/svg" xmlns:xlink="http://www.w3.org/1999/xlink" x="0px"
	 y="0px" viewBox="0 0 24 24" style="enable-background:new 0 0 24 24;" xml:space="preserve">
<style type="text/css">
	.st0{fill:none;}
	.st1{fill:#111111;}
</style>
<g id="Group_253">
	<g id="Path_117">
		<path class="st0" d="M0,0h24v24H0V0z"/>
	</g>
	<g id="Path_118">
		<path class="st1" d="M5,16.6c-0.2,0-0.4-0.1-0.5-0.2c-0.3-0.3-0.3-0.8,0-1.1l5.1-5.1c0.7-0.7,1.8-0.7,2.5,0l2.1,2.1
			c0.1,0.1,0.3,0.1,0.4,0l6-6c0.3-0.3,0.8-0.3,1.1,0s0.3,0.8,0,1.1l-6,6c-0.7,0.7-1.8,0.7-2.5,0L11,11.3c-0.1-0.1-0.3-0.1-0.4,0
			l-5.1,5.1C5.4,16.6,5.2,16.6,5,16.6z"/>
	</g>
	<g id="Path_119">
		<path class="st1" d="M21,10.4c-0.4,0-0.8-0.3-0.8-0.8V7.8h-1.9c-0.4,0-0.8-0.3-0.8-0.8s0.3-0.8,0.8-0.8H21c0.4,0,0.8,0.3,0.8,0.8
			v2.7C21.8,10.1,21.4,10.4,21,10.4z"/>
	</g>
	<g id="Path_120">
		<path class="st1" d="M21,21.7H1.9c-0.4,0-0.8-0.3-0.8-0.8V3.2c0-0.4,0.3-0.8,0.8-0.8s0.8,0.3,0.8,0.8v17H21c0.4,0,0.8,0.3,0.8,0.8
			S21.4,21.7,21,21.7z"/>
	</g>
</g>
</svg>
