<?xml version="1.0" encoding="utf-8"?>
<!-- Generator: Adobe Illustrator 25.3.0, SVG Export Plug-In . SVG Version: 6.00 Build 0)  -->
<svg version="1.1" id="calendar-schedule-clock-time"
	 xmlns="http://www.w3.org/2000/svg" xmlns:xlink="http://www.w3.org/1999/xlink" x="0px" y="0px" viewBox="0 0 24 24"
	 style="enable-background:new 0 0 24 24;" xml:space="preserve">
<style type="text/css">
	.st0{fill:none;}
	.st1{fill:#111111;}
</style>
<g id="Group_355">
	<g id="Path_433">
		<path class="st0" d="M0,0h24v24H0V0z"/>
	</g>
	<g id="Path_434">
		<path class="st1" d="M21,8.8H3C2.6,8.8,2.2,8.4,2.2,8S2.6,7.2,3,7.2h18c0.4,0,0.8,0.3,0.8,0.8S21.4,8.8,21,8.8z"/>
	</g>
	<g id="Path_435">
		<path class="st1" d="M17.5,22.8c-2.9,0-5.2-2.4-5.2-5.2s2.4-5.2,5.2-5.2s5.2,2.4,5.2,5.2S20.4,22.8,17.5,22.8z M17.5,13.8
			c-2.1,0-3.8,1.7-3.8,3.8s1.7,3.8,3.8,3.8s3.8-1.7,3.8-3.8S19.6,13.8,17.5,13.8z"/>
	</g>
	<g id="Path_436">
		<path class="st1" d="M14.7,21.8H6c-2.1,0-3.8-1.7-3.8-3.8V6c0-2.1,1.7-3.8,3.8-3.8h12c2.1,0,3.8,1.7,3.8,3.8v8.7
			c0,0.4-0.3,0.8-0.8,0.8s-0.8-0.3-0.8-0.8V6c0-1.2-1-2.2-2.2-2.2H6c-1.2,0-2.2,1-2.2,2.2v12c0,1.2,1,2.2,2.2,2.2h8.7
			c0.4,0,0.8,0.3,0.8,0.8S15.1,21.8,14.7,21.8z"/>
	</g>
	<g id="Path_437">
		<path class="st1" d="M18.8,19.3c-0.1,0-0.3,0-0.4-0.1L17,18.4c-0.2-0.1-0.4-0.4-0.4-0.6V16c0-0.4,0.3-0.8,0.8-0.8s0.8,0.3,0.8,0.8
			v1.3l1,0.6c0.4,0.2,0.5,0.7,0.2,1C19.3,19.2,19,19.3,18.8,19.3z"/>
	</g>
	<g id="Path_438">
		<circle class="st1" cx="13.7" cy="11.5" r="0.8"/>
	</g>
	<g id="Path_439">
		<path class="st1" d="M10.2,12.3c-0.4,0-0.8-0.4-0.8-0.8s0.4-0.8,0.8-0.8s0.8,0.4,0.8,0.8S10.7,12.3,10.2,12.3z"/>
	</g>
	<g id="Path_440">
		<path class="st1" d="M6.7,12.3c-0.4,0-0.8-0.4-0.8-0.8c0-0.2,0.1-0.4,0.2-0.6c0.1-0.1,0.2-0.1,0.3-0.2c0,0,0.1,0,0.1,0
			c0,0,0.1,0,0.1,0c0.2,0,0.4,0.1,0.5,0.2c0.1,0.1,0.2,0.3,0.2,0.6C7.5,11.9,7.2,12.3,6.7,12.3z"/>
	</g>
	<g id="Path_441">
		<path class="st1" d="M10.2,15.3c-0.4,0-0.8-0.4-0.8-0.8s0.4-0.8,0.8-0.8s0.8,0.4,0.8,0.8S10.7,15.3,10.2,15.3z"/>
	</g>
	<g id="Path_442">
		<path class="st1" d="M6.7,15.3c-0.4,0-0.8-0.4-0.8-0.8c0-0.2,0.1-0.4,0.2-0.6c0.1-0.1,0.2-0.1,0.3-0.2c0,0,0.1,0,0.1,0
			c0,0,0.1,0,0.1,0c0.2,0,0.4,0.1,0.5,0.2c0.1,0.1,0.2,0.3,0.2,0.6C7.5,14.9,7.2,15.3,6.7,15.3z"/>
	</g>
	<g id="Path_443">
		<path class="st1" d="M10.2,18.3c-0.4,0-0.8-0.4-0.8-0.8s0.4-0.8,0.8-0.8s0.8,0.4,0.8,0.8S10.7,18.3,10.2,18.3z"/>
	</g>
	<g id="Path_444">
		<path class="st1" d="M6.7,18.3c-0.4,0-0.8-0.4-0.8-0.8c0-0.2,0.1-0.4,0.2-0.6c0.1-0.1,0.2-0.1,0.3-0.2c0.1,0,0.2-0.1,0.3-0.1
			c0,0,0,0,0,0c0.2,0,0.4,0.1,0.5,0.2c0.2,0.1,0.3,0.4,0.3,0.6C7.5,17.9,7.2,18.3,6.7,18.3z"/>
	</g>
</g>
</svg>
