<?xml version="1.0" encoding="utf-8"?>
<!-- Generator: Adobe Illustrator 25.3.0, SVG Export Plug-In . SVG Version: 6.00 Build 0)  -->
<svg version="1.1" id="Calendar_Schedule" xmlns="http://www.w3.org/2000/svg" xmlns:xlink="http://www.w3.org/1999/xlink" x="0px"
	 y="0px" viewBox="0 0 24 24" style="enable-background:new 0 0 24 24;" xml:space="preserve">
<style type="text/css">
	.st0{fill:none;}
	.st1{fill:#111111;}
</style>
<g id="Group_312">
	<g id="Path_245">
		<path class="st0" d="M0,0h24v24H0V0z"/>
	</g>
	<g id="Path_246">
		<path class="st1" d="M16,6.8c-0.4,0-0.8-0.3-0.8-0.8V2c0-0.4,0.3-0.8,0.8-0.8s0.8,0.3,0.8,0.8v4C16.8,6.4,16.4,6.8,16,6.8z"/>
	</g>
	<g id="Path_247">
		<path class="st1" d="M8,6.8C7.6,6.8,7.2,6.4,7.2,6V2c0-0.4,0.3-0.8,0.8-0.8S8.8,1.6,8.8,2v4C8.8,6.4,8.4,6.8,8,6.8z"/>
	</g>
	<g id="Path_248">
		<path class="st1" d="M21,9.8H3C2.6,9.8,2.2,9.4,2.2,9S2.6,8.2,3,8.2h18c0.4,0,0.8,0.3,0.8,0.8S21.4,9.8,21,9.8z"/>
	</g>
	<g id="Path_249">
		<path class="st1" d="M19,21.8H5c-1.5,0-2.8-1.2-2.8-2.8V6c0-1.5,1.2-2.8,2.8-2.8h14c1.5,0,2.8,1.2,2.8,2.8v13
			C21.8,20.5,20.5,21.8,19,21.8z M5,4.8C4.3,4.8,3.8,5.3,3.8,6v13c0,0.7,0.6,1.2,1.2,1.2h14c0.7,0,1.2-0.6,1.2-1.2V6
			c0-0.7-0.6-1.2-1.2-1.2H5z"/>
	</g>
	<g id="Path_250">
		<path class="st1" d="M7,14c-0.3,0-0.5-0.1-0.7-0.3C6.1,13.5,6,13.2,6,13c0-0.3,0.1-0.5,0.3-0.7c0.4-0.4,1-0.4,1.4,0
			C7.9,12.5,8,12.7,8,13C8,13.5,7.6,14,7,14C7,14,7,14,7,14z M7,12.5c-0.3,0-0.5,0.2-0.5,0.5c0,0.1,0.1,0.3,0.1,0.4
			c0.2,0.2,0.5,0.2,0.7,0c0.1-0.1,0.1-0.2,0.1-0.4c0-0.1-0.1-0.3-0.1-0.4C7.3,12.5,7.2,12.5,7,12.5z"/>
	</g>
	<g id="Path_251">
		<path class="st1" d="M12,14c-0.3,0-0.5-0.1-0.7-0.3C11.1,13.5,11,13.2,11,13c0-0.3,0.1-0.5,0.3-0.7c0.4-0.4,1-0.4,1.4,0
			c0.2,0.2,0.3,0.4,0.3,0.7C13,13.5,12.6,14,12,14C12,14,12,14,12,14z M12,12.5c-0.3,0-0.5,0.2-0.5,0.5c0,0.1,0.1,0.3,0.1,0.4
			c0.2,0.2,0.5,0.2,0.7,0c0.1-0.1,0.1-0.2,0.1-0.4c0-0.1-0.1-0.3-0.1-0.4C12.3,12.5,12.1,12.5,12,12.5z"/>
	</g>
	<g id="Path_252">
		<path class="st1" d="M17,14c-0.3,0-0.5-0.1-0.7-0.3C16.1,13.5,16,13.2,16,13c0-0.6,0.4-1,1-1c0.3,0,0.5,0.1,0.7,0.3
			c0.2,0.2,0.3,0.4,0.3,0.7C18,13.5,17.6,14,17,14z M17,12.5c-0.3,0-0.5,0.2-0.5,0.5c0,0.1,0.1,0.3,0.1,0.4c0.3,0.3,0.9,0.1,0.9-0.4
			c0-0.1-0.1-0.3-0.1-0.4C17.3,12.5,17.1,12.5,17,12.5z"/>
	</g>
	<g id="Path_253">
		<path class="st1" d="M7,18c-0.3,0-0.5-0.1-0.7-0.3C6.1,17.5,6,17.2,6,17c0-0.5,0.4-1,1-1c0.3,0,0.5,0.1,0.7,0.3
			C7.9,16.5,8,16.7,8,17C8,17.5,7.6,18,7,18C7,18,7,18,7,18z M7,16.5c-0.3,0-0.5,0.2-0.5,0.5c0,0.1,0.1,0.3,0.1,0.4
			c0.1,0.1,0.2,0.1,0.4,0.1v-0.8l0,0.8c0.3,0,0.5-0.2,0.5-0.5c0-0.1-0.1-0.3-0.1-0.4C7.3,16.5,7.2,16.5,7,16.5z"/>
	</g>
	<g id="Path_254">
		<path class="st1" d="M12,18c-0.3,0-0.5-0.1-0.7-0.3C11.1,17.5,11,17.2,11,17c0-0.5,0.4-1,1-1c0.3,0,0.5,0.1,0.7,0.3
			c0.2,0.2,0.3,0.4,0.3,0.7C13,17.5,12.6,18,12,18C12,18,12,18,12,18z M12,16.5c-0.3,0-0.5,0.2-0.5,0.5c0,0.1,0.1,0.3,0.1,0.4
			c0.1,0.1,0.2,0.1,0.4,0.1v-0.8l0,0.8c0.3,0,0.5-0.2,0.5-0.5c0-0.1-0.1-0.3-0.1-0.4C12.3,16.5,12.1,16.5,12,16.5z"/>
	</g>
</g>
</svg>
