<?xml version="1.0" encoding="utf-8"?>
<!-- Generator: Adobe Illustrator 25.3.0, SVG Export Plug-In . SVG Version: 6.00 Build 0)  -->
<svg version="1.1" id="chart-square_1" xmlns="http://www.w3.org/2000/svg" xmlns:xlink="http://www.w3.org/1999/xlink" x="0px"
	 y="0px" viewBox="0 0 24 24" style="enable-background:new 0 0 24 24;" xml:space="preserve">
<style type="text/css">
	.st0{fill:none;}
	.st1{fill:#111111;}
</style>
<g id="Path_83">
	<path class="st0" d="M0,0h24v24H0V0z"/>
</g>
<g id="Rectangle_2499">
	<path class="st1" d="M16,21.8H8c-3.2,0-5.8-2.6-5.8-5.8V8c0-3.2,2.6-5.8,5.8-5.8h8c3.2,0,5.8,2.6,5.8,5.8v8
		C21.8,19.2,19.2,21.8,16,21.8z M8,3.8C5.7,3.8,3.8,5.7,3.8,8v8c0,2.3,1.9,4.2,4.2,4.2h8c2.3,0,4.2-1.9,4.2-4.2V8
		c0-2.3-1.9-4.2-4.2-4.2H8z"/>
</g>
<g id="Path_84">
	<path class="st1" d="M12,15.8c-0.4,0-0.8-0.3-0.8-0.8V8c0-0.4,0.3-0.8,0.8-0.8s0.8,0.3,0.8,0.8v7C12.8,15.4,12.4,15.8,12,15.8z"/>
</g>
<g id="Path_85">
	<path class="st1" d="M8,15.8c-0.4,0-0.8-0.3-0.8-0.8v-4.1c0-0.4,0.3-0.8,0.8-0.8s0.8,0.3,0.8,0.8V15C8.8,15.4,8.4,15.8,8,15.8z"/>
</g>
<g id="Path_86">
	<path class="st1" d="M16,15.8c-0.4,0-0.8-0.3-0.8-0.8v-2.7c0-0.4,0.3-0.8,0.8-0.8s0.8,0.3,0.8,0.8V15C16.8,15.4,16.4,15.8,16,15.8z
		"/>
</g>
</svg>
