<?xml version="1.0" encoding="utf-8"?>
<!-- Generator: Adobe Illustrator 25.3.0, SVG Export Plug-In . SVG Version: 6.00 Build 0)  -->
<svg version="1.1" id="chart-notification" xmlns="http://www.w3.org/2000/svg" xmlns:xlink="http://www.w3.org/1999/xlink" x="0px"
	 y="0px" viewBox="0 0 24 24" style="enable-background:new 0 0 24 24;" xml:space="preserve">
<style type="text/css">
	.st0{fill:#111111;}
	.st1{fill:none;}
</style>
<g id="Group_354">
	<g id="Ellipse_29">
		<path class="st0" d="M19.5,7.8c-1.8,0-3.2-1.5-3.2-3.2s1.5-3.2,3.2-3.2s3.2,1.5,3.2,3.2S21.3,7.8,19.5,7.8z M19.5,2.8
			c-1,0-1.8,0.8-1.8,1.8s0.8,1.8,1.8,1.8s1.8-0.8,1.8-1.8S20.5,2.8,19.5,2.8z"/>
	</g>
	<g id="Path_430">
		<path class="st0" d="M7,15.8c-0.2,0-0.3,0-0.4-0.2c-0.3-0.2-0.4-0.7-0.1-1l3-4c0.1-0.2,0.3-0.3,0.5-0.3c0.2,0,0.4,0,0.6,0.2
			l2.7,2.1l2.3-3c0.2-0.3,0.7-0.4,1-0.1c0.3,0.2,0.4,0.7,0.1,1.1l-2.7,3.6c-0.1,0.2-0.3,0.3-0.5,0.3c-0.2,0-0.4,0-0.6-0.2l-2.7-2.1
			l-2.5,3.4C7.5,15.6,7.2,15.8,7,15.8z"/>
	</g>
	<g id="Path_431">
		<path class="st0" d="M17,21.8H7c-2.6,0-4.8-2.1-4.8-4.8V7c0-2.6,2.1-4.8,4.8-4.8h7c0.4,0,0.8,0.3,0.8,0.8S14.4,3.8,14,3.8H7
			C5.2,3.8,3.8,5.2,3.8,7v10c0,1.8,1.5,3.2,3.2,3.2h10c1.8,0,3.2-1.5,3.2-3.2v-7c0-0.4,0.3-0.8,0.8-0.8s0.8,0.3,0.8,0.8v7
			C21.8,19.6,19.6,21.8,17,21.8z"/>
	</g>
</g>
<g id="Path_432">
	<path class="st1" d="M0,0h24v24H0V0z"/>
</g>
</svg>
