<?xml version="1.0" encoding="utf-8"?>
<!-- Generator: Adobe Illustrator 25.3.0, SVG Export Plug-In . SVG Version: 6.00 Build 0)  -->
<svg version="1.1" id="Layer_1" xmlns="http://www.w3.org/2000/svg" xmlns:xlink="http://www.w3.org/1999/xlink" x="0px" y="0px"
	 viewBox="0 0 24 24" style="enable-background:new 0 0 24 24;" xml:space="preserve">
<style type="text/css">
	.st0{display:none;}
	.st1{fill:none;}
	.st2{fill:#111111;}
</style>
<g id="Group_854" transform="translate(-210 -1061)">
	<g id="Rectangle_2480">
		<rect x="210" y="1061" class="st0" width="24" height="24"/>
	</g>
	<g id="Messages_-Chat" transform="translate(210 1061)">
		<g id="Group_222">
			<g id="Path_71">
				<path class="st1" d="M0,0h24v24H0V0z"/>
			</g>
			<g id="Path_72">
				<path class="st2" d="M3,21.8c-0.2,0-0.4-0.1-0.5-0.2c-0.2-0.2-0.3-0.5-0.2-0.8l1.6-4.4c-0.9-1.5-1.3-3.3-1.3-5
					c0-2.7,1.1-5.2,3-7.1c1.9-1.9,4.4-2.9,7.1-2.9c0,0,0,0,0,0c1.9,0,3.7,0.5,5.3,1.5c4.7,2.9,6.2,9.2,3.3,13.9
					c-2.9,4.6-8.9,6.1-13.6,3.4l-4.4,1.6C3.2,21.7,3.1,21.8,3,21.8z M7.8,18.5c0.1,0,0.3,0,0.4,0.1c4,2.5,9.3,1.2,11.8-2.8
					c2.5-4,1.2-9.3-2.8-11.8c-1.4-0.8-2.9-1.3-4.5-1.3c0,0,0,0,0,0c0,0,0,0,0,0c-2.3,0-4.4,0.9-6,2.5C5,6.9,4.1,9,4.1,11.3
					c0,1.6,0.4,3.2,1.3,4.5c0.1,0.2,0.1,0.4,0.1,0.7l-1.2,3.2l3.2-1.2C7.6,18.5,7.7,18.5,7.8,18.5z"/>
			</g>
		</g>
	</g>
</g>
</svg>
