<?xml version="1.0" encoding="utf-8"?>
<!-- Generator: Adobe Illustrator 25.3.0, SVG Export Plug-In . SVG Version: 6.00 Build 0)  -->
<svg version="1.1" id="checkmark-sqaure-copy" xmlns="http://www.w3.org/2000/svg" xmlns:xlink="http://www.w3.org/1999/xlink"
	 x="0px" y="0px" viewBox="0 0 24 24" style="enable-background:new 0 0 24 24;" xml:space="preserve">
<style type="text/css">
	.st0{fill:none;}
	.st1{fill:#111111;}
</style>
<g id="Path_182">
	<path class="st0" d="M0,0h24v24H0V0z"/>
</g>
<g id="Path_183">
	<path class="st1" d="M11.2,14.9c-0.2,0-0.4-0.1-0.5-0.2l-2.4-2.4C8,12,8,11.5,8.3,11.2s0.8-0.3,1.1,0l1.9,1.9l3.5-3.5
		c0.3-0.3,0.8-0.3,1.1,0s0.3,0.8,0,1.1l-4,4C11.6,14.8,11.4,14.9,11.2,14.9z"/>
</g>
<g id="Rectangle_2507">
	<path class="st1" d="M16,21.8H8c-3.2,0-5.8-2.6-5.8-5.8V8c0-3.2,2.6-5.8,5.8-5.8h8c3.2,0,5.8,2.6,5.8,5.8v8
		C21.8,19.2,19.2,21.8,16,21.8z M8,3.8C5.7,3.8,3.8,5.7,3.8,8v8c0,2.3,1.9,4.2,4.2,4.2h8c2.3,0,4.2-1.9,4.2-4.2V8
		c0-2.3-1.9-4.2-4.2-4.2H8z"/>
</g>
</svg>
