<?xml version="1.0" encoding="utf-8"?>
<!-- Generator: Adobe Illustrator 25.3.0, SVG Export Plug-In . SVG Version: 6.00 Build 0)  -->
<svg version="1.1" id="clip-attachment" xmlns="http://www.w3.org/2000/svg" xmlns:xlink="http://www.w3.org/1999/xlink" x="0px"
	 y="0px" viewBox="0 0 24 24" style="enable-background:new 0 0 24 24;" xml:space="preserve">
<style type="text/css">
	.st0{fill:#111111;}
	.st1{fill:none;}
</style>
<g id="Group_865">
	<g id="Path_1012">
		<path class="st0" d="M14,17.8c-0.4,0-0.8-0.3-0.8-0.8V9c0-0.3-0.1-0.6-0.4-0.9c-0.2-0.2-0.6-0.4-0.9-0.3c-0.7,0-1.2,0.6-1.2,1.2v7
			c0,0.4-0.3,0.8-0.8,0.8S9.2,16.4,9.2,16V9c0-1.5,1.2-2.7,2.7-2.7c0.7,0,1.4,0.3,2,0.8c0.5,0.5,0.8,1.2,0.9,1.9v8
			C14.8,17.4,14.4,17.8,14,17.8z"/>
	</g>
	<g id="Path_1013">
		<path class="st0" d="M7,17.8c-0.4,0-0.8-0.3-0.8-0.8V8c0-0.4,0.3-0.8,0.8-0.8S7.8,7.6,7.8,8v9C7.8,17.5,7.4,17.8,7,17.8z"/>
	</g>
	<g id="Path_1014">
		<path class="st0" d="M17,15.8c-0.4,0-0.8-0.3-0.8-0.8V8c0-0.4,0.3-0.8,0.8-0.8s0.8,0.3,0.8,0.8v7C17.8,15.4,17.4,15.8,17,15.8z"/>
	</g>
	<g id="Path_1015">
		<path class="st0" d="M10.5,21.8c-2.3,0-4.2-1.9-4.2-4.2V17c0-0.4,0.3-0.8,0.8-0.8s0.8,0.3,0.8,0.8v0.5c0,1.5,1.2,2.8,2.8,2.8
			s2.8-1.2,2.8-2.8V17c0-0.4,0.3-0.8,0.8-0.8s0.8,0.3,0.8,0.8v0.5C14.8,19.8,12.8,21.8,10.5,21.8z"/>
	</g>
	<g id="Path_1016">
		<path class="st0" d="M17,8.8c-0.4,0-0.8-0.3-0.8-0.8c0-2.3-1.9-4.2-4.2-4.2C9.7,3.8,7.8,5.7,7.8,8c0,0.4-0.3,0.8-0.8,0.8
			S6.2,8.4,6.2,8c0-3.2,2.6-5.8,5.8-5.8c3.2,0,5.8,2.6,5.8,5.8C17.8,8.4,17.4,8.8,17,8.8z"/>
	</g>
</g>
<g id="Path_1017">
	<path class="st1" d="M0,0h24v24H0V0z"/>
</g>
</svg>
