<?xml version="1.0" encoding="utf-8"?>
<!-- Generator: Adobe Illustrator 25.3.0, SVG Export Plug-In . SVG Version: 6.00 Build 0)  -->
<svg version="1.1" id="clock-time-arrow" xmlns="http://www.w3.org/2000/svg" xmlns:xlink="http://www.w3.org/1999/xlink" x="0px"
	 y="0px" viewBox="0 0 24 24" style="enable-background:new 0 0 24 24;" xml:space="preserve">
<style type="text/css">
	.st0{fill:#111111;}
	.st1{fill:none;}
</style>
<g id="Group_360">
	<g id="Path_469">
		<path class="st0" d="M4.1,15c-0.2,0-0.4-0.1-0.5-0.2l-2.2-2.2c-0.3-0.3-0.3-0.8,0-1.1s0.8-0.3,1.1,0l1.7,1.7l1.7-1.7
			c0.3-0.3,0.8-0.3,1.1,0s0.3,0.8,0,1.1l-2.2,2.2C4.5,14.9,4.3,15,4.1,15z"/>
	</g>
	<g id="Path_470">
		<path class="st0" d="M4.4,14.8c-0.3,0-0.6-0.2-0.7-0.6c-0.2-0.7-0.3-1.4-0.3-2.2c0-0.4,0.3-0.8,0.7-0.8c0,0,0,0,0,0
			c0.4,0,0.7,0.3,0.8,0.7c0,0.6,0.1,1.2,0.2,1.8c0.1,0.4-0.2,0.8-0.6,0.9C4.5,14.8,4.4,14.8,4.4,14.8z"/>
	</g>
	<g id="Path_471">
		<path class="st0" d="M22.1,12.8c-0.4,0-0.8-0.3-0.8-0.8c0-4.5-3.7-8.2-8.2-8.2S4.9,7.5,4.9,12c0,0.4-0.3,0.8-0.8,0.8
			S3.4,12.4,3.4,12c0-5.4,4.4-9.8,9.8-9.8s9.8,4.4,9.8,9.8C22.9,12.4,22.5,12.8,22.1,12.8z"/>
	</g>
	<g id="Path_472">
		<path class="st0" d="M13.1,21.8c-0.4,0-0.8-0.3-0.8-0.8s0.3-0.8,0.8-0.8c4.5,0,8.2-3.7,8.2-8.2c0-0.4,0.3-0.8,0.8-0.8
			s0.8,0.3,0.8,0.8C22.9,17.4,18.5,21.8,13.1,21.8z"/>
	</g>
	<g id="Path_473">
		<path class="st0" d="M13.1,21.8c-3.2,0-6.2-1.6-8-4.2c-0.2-0.3-0.2-0.8,0.2-1c0.3-0.2,0.8-0.2,1,0.2c1.5,2.2,4.1,3.5,6.8,3.5
			c0,0,0,0,0,0l0,0c0.4,0,0.8,0.3,0.8,0.8S13.5,21.8,13.1,21.8C13.1,21.8,13.1,21.8,13.1,21.8z"/>
	</g>
	<g id="Path_474">
		<path class="st0" d="M16.5,15.6c-0.1,0-0.3,0-0.4-0.1l-3.7-2.2c-0.2-0.1-0.4-0.4-0.4-0.6V8c0-0.4,0.3-0.8,0.8-0.8
			c0.4,0,0.7,0.3,0.7,0.8v4.3l3.3,2c0.4,0.2,0.5,0.7,0.3,1C17,15.5,16.8,15.6,16.5,15.6z"/>
	</g>
</g>
<g id="Path_475">
	<path class="st1" d="M0,0h24v24H0V0z"/>
</g>
</svg>
