<?xml version="1.0" encoding="utf-8"?>
<!-- Generator: Adobe Illustrator 25.3.0, SVG Export Plug-In . SVG Version: 6.00 Build 0)  -->
<svg version="1.1" id="cloud-upload" xmlns="http://www.w3.org/2000/svg" xmlns:xlink="http://www.w3.org/1999/xlink" x="0px"
	 y="0px" viewBox="0 0 24 24" style="enable-background:new 0 0 24 24;" xml:space="preserve">
<style type="text/css">
	.st0{fill:none;}
	.st1{fill:#111111;}
</style>
<g id="Group_273">
	<g id="Path_146">
		<path class="st0" d="M0,0h24v24H0V0z"/>
	</g>
	<g id="Path_147">
		<path class="st1" d="M12,19.8c-0.4,0-0.8-0.3-0.8-0.8v-7c0-0.4,0.3-0.8,0.8-0.8s0.8,0.3,0.8,0.8v7C12.8,19.4,12.4,19.8,12,19.8z"
			/>
	</g>
	<g id="Path_148">
		<path class="st1" d="M14.2,14.8c-0.2,0-0.4-0.1-0.5-0.2L12,12.9l-1.6,1.6c-0.3,0.3-0.8,0.3-1.1,0s-0.3-0.8,0-1.1l2.2-2.2
			c0.3-0.3,0.8-0.3,1.1,0l2.2,2.2c0.3,0.3,0.3,0.8,0,1.1C14.6,14.7,14.4,14.8,14.2,14.8z"/>
	</g>
	<g id="Path_149">
		<path class="st1" d="M6.4,19.8c-2.8,0-5.1-2.2-5.2-5c-0.1-2.7,1.8-5,4.4-5.4c0.8-2.9,3.4-5,6.5-5c1.8,0,3.5,0.7,4.8,1.9
			c1.3,1.3,2,3,2,4.8v0.3c2.2,0.2,3.9,2,3.9,4.2c0,2.3-1.9,4.2-4.2,4.2H16c-0.4,0-0.8-0.3-0.8-0.8s0.3-0.8,0.8-0.8h2.6
			c1.5,0,2.8-1.2,2.8-2.8s-1.2-2.8-2.8-2.8h-0.4c-0.4,0-0.8-0.3-0.8-0.8v-1c0-1.4-0.6-2.7-1.6-3.7s-2.3-1.5-3.7-1.5
			c-2.5,0-4.7,1.9-5.1,4.4c-0.1,0.3-0.4,0.6-0.7,0.6c-2.1,0.1-3.7,1.9-3.6,3.9c0.1,2,1.7,3.6,3.7,3.6c0,0,0,0,0,0H8
			c0.4,0,0.8,0.3,0.8,0.8S8.4,19.8,8,19.8H6.4C6.4,19.8,6.4,19.8,6.4,19.8z"/>
	</g>
</g>
</svg>
