<?xml version="1.0" encoding="utf-8"?>
<!-- Generator: Adobe Illustrator 25.3.0, SVG Export Plug-In . SVG Version: 6.00 Build 0)  -->
<svg version="1.1" id="delete-disabled" xmlns="http://www.w3.org/2000/svg" xmlns:xlink="http://www.w3.org/1999/xlink" x="0px"
	 y="0px" viewBox="0 0 24 24" style="enable-background:new 0 0 24 24;" xml:space="preserve">
<style type="text/css">
	.st0{fill:none;}
	.st1{fill:#111111;}
</style>
<g id="Group_305">
	<g id="Path_190">
		<path class="st0" d="M0,0h24v24H0V0z"/>
	</g>
	<g id="Path_191">
		<path class="st1" d="M16,16.8c-0.2,0-0.4-0.1-0.5-0.2l-8-8c-0.3-0.3-0.3-0.8,0-1.1s0.8-0.3,1.1,0l8,8c0.3,0.3,0.3,0.8,0,1.1
			C16.4,16.7,16.2,16.8,16,16.8z"/>
	</g>
	<g id="Path_192">
		<path class="st1" d="M8,16.8c-0.2,0-0.4-0.1-0.5-0.2c-0.3-0.3-0.3-0.8,0-1.1l8-8c0.3-0.3,0.8-0.3,1.1,0s0.3,0.8,0,1.1l-8,8
			C8.4,16.7,8.2,16.8,8,16.8z"/>
	</g>
</g>
</svg>
