<?xml version="1.0" encoding="utf-8"?>
<!-- Generator: Adobe Illustrator 25.3.0, SVG Export Plug-In . SVG Version: 6.00 Build 0)  -->
<svg version="1.1" id="documents-file" xmlns="http://www.w3.org/2000/svg" xmlns:xlink="http://www.w3.org/1999/xlink" x="0px"
	 y="0px" viewBox="0 0 24 24" style="enable-background:new 0 0 24 24;" xml:space="preserve">
<style type="text/css">
	.st0{fill:#111111;}
	.st1{fill:none;}
</style>
<g id="Group_268">
	<g id="Path_138">
		<path class="st0" d="M10.7,15.8c-0.2,0-0.4-0.1-0.5-0.2l-1.8-1.8c-0.3-0.3-0.3-0.8,0-1.1l1.8-1.8c0.3-0.3,0.8-0.3,1.1,0
			s0.3,0.8,0,1.1L10,13.2l1.2,1.2c0.3,0.3,0.3,0.8,0,1.1C11.1,15.7,10.9,15.8,10.7,15.8z"/>
	</g>
	<g id="Path_139">
		<path class="st0" d="M13.3,15.8c-0.2,0-0.4-0.1-0.5-0.2c-0.3-0.3-0.3-0.8,0-1.1l1.2-1.2L12.8,12c-0.3-0.3-0.3-0.8,0-1.1
			s0.8-0.3,1.1,0l1.8,1.8c0.3,0.3,0.3,0.8,0,1.1l-1.8,1.8C13.7,15.7,13.5,15.8,13.3,15.8z"/>
	</g>
	<g id="Path_140">
		<path class="st0" d="M17,21.8H7c-1.5,0-2.8-1.2-2.8-2.8V5c0-1.5,1.2-2.8,2.8-2.8h7.2c0.7,0,1.4,0.3,1.9,0.8l2.8,2.8
			c0.5,0.5,0.8,1.2,0.8,1.9V19C19.8,20.5,18.5,21.8,17,21.8z M7,3.8C6.3,3.8,5.8,4.3,5.8,5v14c0,0.7,0.6,1.2,1.2,1.2h10
			c0.7,0,1.2-0.6,1.2-1.2V7.8c0-0.3-0.1-0.7-0.4-0.9l-2.8-2.8c-0.2-0.2-0.6-0.4-0.9-0.4H7z"/>
	</g>
</g>
<g id="Path_141">
	<path class="st1" d="M0,0h24v24H0V0z"/>
</g>
</svg>
