<?xml version="1.0" encoding="utf-8"?>
<!-- Generator: Adobe Illustrator 25.3.0, SVG Export Plug-In . SVG Version: 6.00 Build 0)  -->
<svg version="1.1" id="documents-file-power-point" xmlns="http://www.w3.org/2000/svg" xmlns:xlink="http://www.w3.org/1999/xlink"
	 x="0px" y="0px" viewBox="0 0 24 24" style="enable-background:new 0 0 24 24;" xml:space="preserve">
<style type="text/css">
	.st0{fill:#111111;}
	.st1{fill:none;}
</style>
<g id="Group_266">
	<g id="Path_129">
		<path class="st0" d="M20,8.8h-4c-1,0-1.8-0.8-1.8-1.8V3c0-0.4,0.3-0.8,0.8-0.8s0.8,0.3,0.8,0.8v4c0,0.1,0.1,0.2,0.2,0.2h4
			c0.4,0,0.8,0.3,0.8,0.8S20.4,8.8,20,8.8z"/>
	</g>
	<g id="Path_130">
		<path class="st0" d="M18,21.8H8c-1.5,0-2.8-1.2-2.8-2.8v-1c0-0.4,0.3-0.8,0.8-0.8s0.8,0.3,0.8,0.8v1c0,0.7,0.6,1.2,1.2,1.2h10
			c0.7,0,1.2-0.6,1.2-1.2V7.8c0-0.3-0.1-0.7-0.4-0.9l-2.8-2.8c-0.2-0.2-0.6-0.4-0.9-0.4H8C7.3,3.8,6.8,4.3,6.8,5v3
			c0,0.4-0.3,0.8-0.8,0.8S5.2,8.4,5.2,8V5c0-1.5,1.2-2.8,2.8-2.8h7.2c0.7,0,1.4,0.3,1.9,0.8l2.8,2.8c0.5,0.5,0.8,1.2,0.8,1.9V19
			C20.8,20.5,19.5,21.8,18,21.8z"/>
	</g>
	<g id="Rectangle_2502">
		<path class="st0" d="M11.3,18.8H4.7c-1.3,0-2.4-1.1-2.4-2.4V9.7c0-1.3,1.1-2.4,2.4-2.4h6.7c1.3,0,2.4,1.1,2.4,2.4v6.7
			C13.8,17.7,12.7,18.8,11.3,18.8z M4.7,8.8c-0.5,0-0.9,0.4-0.9,0.9v6.7c0,0.5,0.4,0.9,0.9,0.9h6.7c0.5,0,0.9-0.4,0.9-0.9V9.7
			c0-0.5-0.4-0.9-0.9-0.9H4.7z"/>
	</g>
	<g id="Path_131">
		<path class="st0" d="M8.9,14.2H6.4c-0.4,0-0.8-0.3-0.8-0.8s0.3-0.8,0.8-0.8h2.5c0.1,0,0.2-0.1,0.2-0.2V12c0-0.1-0.1-0.2-0.2-0.2
			H6.4c-0.4,0-0.8-0.3-0.8-0.8s0.3-0.8,0.8-0.8h2.5c1,0,1.8,0.8,1.8,1.8v0.5C10.7,13.4,9.9,14.2,8.9,14.2z"/>
	</g>
	<g id="Path_132">
		<path class="st0" d="M6.4,15.7c-0.4,0-0.8-0.3-0.8-0.8v-4c0-0.4,0.3-0.8,0.8-0.8s0.8,0.3,0.8,0.8v4C7.2,15.4,6.8,15.7,6.4,15.7z"
			/>
	</g>
</g>
<g id="Path_133">
	<path class="st1" d="M0,0h24v24H0V0z"/>
</g>
</svg>
