<?xml version="1.0" encoding="utf-8"?>
<!-- Generator: Adobe Illustrator 25.3.0, SVG Export Plug-In . SVG Version: 6.00 Build 0)  -->
<svg version="1.1" id="dots" xmlns="http://www.w3.org/2000/svg" xmlns:xlink="http://www.w3.org/1999/xlink" x="0px" y="0px"
	 viewBox="0 0 24 24" style="enable-background:new 0 0 24 24;" xml:space="preserve">
<style type="text/css">
	.st0{fill:#111111;}
	.st1{fill:none;}
</style>
<g id="Group_244">
	<g id="Path_109">
		<path class="st0" d="M12,19.2c-0.7,0-1.2-0.6-1.2-1.2s0.6-1.2,1.2-1.2s1.2,0.6,1.2,1.2S12.7,19.2,12,19.2z M12,17.8
			c-0.1,0-0.2,0.1-0.2,0.2c0,0.3,0.5,0.3,0.5,0C12.2,17.9,12.1,17.8,12,17.8z"/>
	</g>
	<g id="Path_110">
		<path class="st0" d="M12,13.2c-0.7,0-1.2-0.6-1.2-1.2s0.6-1.2,1.2-1.2s1.2,0.6,1.2,1.2S12.7,13.2,12,13.2z M12,11.8
			c-0.1,0-0.2,0.1-0.2,0.2c0,0.3,0.5,0.3,0.5,0C12.2,11.9,12.1,11.8,12,11.8z"/>
	</g>
	<g id="Path_111">
		<path class="st0" d="M12,7.2c-0.7,0-1.2-0.6-1.2-1.2s0.6-1.2,1.2-1.2s1.2,0.6,1.2,1.2S12.7,7.2,12,7.2z M12,5.8
			c-0.1,0-0.2,0.1-0.2,0.2c0,0.3,0.5,0.3,0.5,0C12.2,5.9,12.1,5.8,12,5.8z"/>
	</g>
</g>
<g id="Path_112">
	<path class="st1" d="M0,0h24v24H0V0z"/>
</g>
</svg>
