<?xml version="1.0" encoding="utf-8"?>
<!-- Generator: Adobe Illustrator 25.3.0, SVG Export Plug-In . SVG Version: 6.00 Build 0)  -->
<svg version="1.1" id="dots-menu" xmlns="http://www.w3.org/2000/svg" xmlns:xlink="http://www.w3.org/1999/xlink" x="0px" y="0px"
	 viewBox="0 0 24 24" style="enable-background:new 0 0 24 24;" xml:space="preserve">
<style type="text/css">
	.st0{fill:#111111;}
	.st1{fill:none;}
</style>
<g id="Group_252">
	<g id="Path_113">
		<path class="st0" d="M18,13.2c-0.7,0-1.2-0.6-1.2-1.2s0.6-1.2,1.2-1.2s1.2,0.6,1.2,1.2S18.7,13.2,18,13.2z M18,11.8
			c-0.1,0-0.2,0.1-0.2,0.2c0,0.3,0.5,0.3,0.5,0C18.2,11.9,18.1,11.8,18,11.8z"/>
	</g>
	<g id="Path_114">
		<path class="st0" d="M12,13.2c-0.7,0-1.2-0.6-1.2-1.2s0.6-1.2,1.2-1.2s1.2,0.6,1.2,1.2S12.7,13.2,12,13.2z M12,11.8
			c-0.1,0-0.2,0.1-0.2,0.2c0,0.3,0.5,0.3,0.5,0C12.2,11.9,12.1,11.8,12,11.8z"/>
	</g>
	<g id="Path_115">
		<path class="st0" d="M6,13.2c-0.7,0-1.2-0.6-1.2-1.2s0.6-1.2,1.2-1.2s1.2,0.6,1.2,1.2S6.7,13.2,6,13.2z M6,11.8
			c-0.1,0-0.2,0.1-0.2,0.2c0,0.3,0.5,0.3,0.5,0C6.2,11.9,6.1,11.8,6,11.8z"/>
	</g>
</g>
<g id="Path_116">
	<path class="st1" d="M24,0v24H0V0H24z"/>
</g>
</svg>
