<?xml version="1.0" encoding="utf-8"?>
<!-- Generator: Adobe Illustrator 25.3.0, SVG Export Plug-In . SVG Version: 6.00 Build 0)  -->
<svg version="1.1" id="download-save-upload" xmlns="http://www.w3.org/2000/svg" xmlns:xlink="http://www.w3.org/1999/xlink"
	 x="0px" y="0px" viewBox="0 0 24 24" style="enable-background:new 0 0 24 24;" xml:space="preserve">
<style type="text/css">
	.st0{fill:#111111;}
	.st1{fill:none;}
</style>
<g id="Group_1012">
	<g id="Path_1222">
		<path class="st0" d="M12,17.8c-0.4,0-0.8-0.3-0.8-0.8V3c0-0.4,0.3-0.8,0.8-0.8s0.8,0.3,0.8,0.8v14C12.8,17.4,12.4,17.8,12,17.8z"
			/>
	</g>
	<g id="Path_1223">
		<path class="st0" d="M17,21.8H7c-2.6,0-4.8-2.1-4.8-4.8c0-0.4,0.3-0.8,0.8-0.8s0.8,0.3,0.8,0.8c0,1.8,1.5,3.2,3.2,3.2h10
			c1.8,0,3.2-1.5,3.2-3.2c0-0.4,0.3-0.8,0.8-0.8s0.8,0.3,0.8,0.8C21.8,19.6,19.6,21.8,17,21.8z"/>
	</g>
	<g id="Path_1224">
		<path class="st0" d="M12,17.8c-0.2,0-0.4-0.1-0.5-0.2l-5-5c-0.3-0.3-0.3-0.8,0-1.1s0.8-0.3,1.1,0l4.5,4.5l4.5-4.5
			c0.3-0.3,0.8-0.3,1.1,0s0.3,0.8,0,1.1l-5,5C12.4,17.7,12.2,17.8,12,17.8z"/>
	</g>
</g>
<g id="Path_1225">
	<path class="st1" d="M0,0h24v24H0V0z"/>
</g>
</svg>
