<?xml version="1.0" encoding="utf-8"?>
<!-- Generator: Adobe Illustrator 25.3.0, SVG Export Plug-In . SVG Version: 6.00 Build 0)  -->
<svg version="1.1" id="file-blank-zip-archive" xmlns="http://www.w3.org/2000/svg" xmlns:xlink="http://www.w3.org/1999/xlink"
	 x="0px" y="0px" viewBox="0 0 24 24" style="enable-background:new 0 0 24 24;" xml:space="preserve">
<style type="text/css">
	.st0{fill:none;}
	.st1{fill:#111111;}
</style>
<g id="Path_142">
	<path class="st0" d="M0,0h24v24H0V0z"/>
</g>
<g id="Path_143">
	<path class="st1" d="M10,7.8C9.6,7.8,9.2,7.4,9.2,7V6c0-0.4,0.3-0.8,0.8-0.8s0.8,0.3,0.8,0.8v1C10.8,7.4,10.4,7.8,10,7.8z"/>
</g>
<g id="Path_144">
	<path class="st1" d="M10,11.8c-0.4,0-0.8-0.3-0.8-0.8v-1c0-0.4,0.3-0.8,0.8-0.8s0.8,0.3,0.8,0.8v1C10.8,11.4,10.4,11.8,10,11.8z"/>
</g>
<g id="Rectangle_2504">
	<path class="st1" d="M10,18.8c-1.2,0-2.2-1-2.2-2.2v-1c0-1.2,1-2.2,2.2-2.2s2.2,1,2.2,2.2v1C12.2,17.7,11.2,18.8,10,18.8z M10,14.8
		c-0.4,0-0.8,0.3-0.8,0.8v1c0,0.4,0.3,0.8,0.8,0.8s0.8-0.3,0.8-0.8v-1C10.8,15.1,10.4,14.8,10,14.8z"/>
</g>
<g id="Path_145">
	<path class="st1" d="M17.5,21.8H7c-1.5,0-2.8-1.2-2.8-2.8V5.5c0-1.8,1.5-3.2,3.2-3.2h7.1c1,0,2,0.4,2.7,1.1l2.4,2.4
		c0.7,0.7,1.1,1.7,1.1,2.7v10.1C20.8,20.3,19.3,21.8,17.5,21.8z M7.5,3.8c-1,0-1.8,0.8-1.8,1.8V19c0,0.7,0.6,1.2,1.2,1.2h10.5
		c1,0,1.8-0.8,1.8-1.8V8.4c0-0.6-0.2-1.2-0.7-1.6l-2.4-2.4c-0.4-0.4-1-0.7-1.6-0.7H7.5z"/>
</g>
</svg>
