<?xml version="1.0" encoding="utf-8"?>
<!-- Generator: Adobe Illustrator 25.3.0, SVG Export Plug-In . SVG Version: 6.00 Build 0)  -->
<svg version="1.1" id="filter-sort" xmlns="http://www.w3.org/2000/svg" xmlns:xlink="http://www.w3.org/1999/xlink" x="0px"
	 y="0px" viewBox="0 0 24 24" style="enable-background:new 0 0 24 24;" xml:space="preserve">
<style type="text/css">
	.st0{fill:#111111;}
	.st1{fill:none;}
</style>
<g id="Group_279">
	<g id="Path_163">
		<path class="st0" d="M14.5,14.2c-0.2,0-0.4-0.1-0.5-0.2c-0.3-0.3-0.3-0.8,0-1.1l5.2-5.2c0,0,0.1-0.1,0.1-0.2V5
			c0-0.1-0.1-0.2-0.2-0.2H5C4.9,4.8,4.8,4.9,4.8,5v2.6c0,0.1,0,0.1,0.1,0.2L10,13c0.3,0.3,0.3,0.8,0,1.1S9.3,14.3,9,14L3.8,8.8
			C3.4,8.5,3.2,8.1,3.2,7.6V5C3.2,4,4,3.2,5,3.2h14c1,0,1.8,0.8,1.8,1.8v2.6c0,0.5-0.2,0.9-0.5,1.2L15,14
			C14.9,14.2,14.7,14.2,14.5,14.2z"/>
	</g>
	<g id="Path_164">
		<path class="st0" d="M10.7,21.7c-1.1,0-2-0.9-2-2v-6.2c0-0.4,0.3-0.8,0.8-0.8s0.8,0.3,0.8,0.8v6.2c0,0.3,0.3,0.6,0.6,0.5l2.5-0.6
			c0.2-0.1,0.4-0.3,0.4-0.5v-5.6c0-0.4,0.3-0.8,0.8-0.8s0.8,0.3,0.8,0.8v5.6c0,0.9-0.6,1.7-1.5,1.9l-2.5,0.6
			C11.1,21.7,10.9,21.7,10.7,21.7z"/>
	</g>
</g>
<g id="Path_165">
	<path class="st1" d="M0,0h24v24H0V0z"/>
</g>
</svg>
