<?xml version="1.0" encoding="utf-8"?>
<!-- Generator: Adobe Illustrator 25.3.0, SVG Export Plug-In . SVG Version: 6.00 Build 0)  -->
<svg version="1.1" id="flag" xmlns="http://www.w3.org/2000/svg" xmlns:xlink="http://www.w3.org/1999/xlink" x="0px" y="0px"
	 viewBox="0 0 24 24" style="enable-background:new 0 0 24 24;" xml:space="preserve">
<style type="text/css">
	.st0{fill:none;}
	.st1{fill:#111111;}
</style>
<g id="Group_290">
	<g id="Path_175">
		<path class="st0" d="M0,0h24v24H0V0z"/>
	</g>
	<g id="Path_176">
		<path class="st1" d="M5,21.8c-0.4,0-0.8-0.3-0.8-0.8V3.9c0-0.4,0.3-0.8,0.8-0.8s0.8,0.3,0.8,0.8V21C5.8,21.4,5.4,21.8,5,21.8z"/>
	</g>
	<g id="Path_177">
		<path class="st1" d="M19,14.8c-0.4,0-0.8-0.3-0.8-0.8V4c0-0.4,0.3-0.8,0.8-0.8s0.8,0.3,0.8,0.8v10C19.8,14.4,19.4,14.8,19,14.8z"
			/>
	</g>
	<g id="Path_178">
		<path class="st1" d="M15.5,15.8c-1.5,0-2.6-0.5-3.8-0.9C10.7,14.4,9.7,14,8.5,14c-2.2,0-3,0.6-3,0.6c-0.3,0.2-0.8,0.2-1-0.1
			c-0.2-0.3-0.2-0.8,0.1-1c0.1-0.1,1.2-0.9,4-0.9c1.5,0,2.6,0.5,3.8,0.9c1.1,0.4,2.1,0.8,3.2,0.8c2.2,0,2.9-0.7,3-0.7
			c0.3-0.3,0.8-0.3,1.1,0c0.3,0.3,0.3,0.7,0,1C19.4,14.6,18.4,15.8,15.5,15.8z"/>
	</g>
	<g id="Path_179">
		<path class="st1" d="M15.5,5.5c-1.5,0-2.6-0.5-3.8-0.9c-1.1-0.4-2.1-0.8-3.2-0.8c-2.2,0-3,0.7-3,0.7c-0.3,0.3-0.8,0.3-1.1,0
			c-0.3-0.3-0.3-0.7,0-1c0.1-0.1,1.2-1.2,4-1.2c1.5,0,2.6,0.5,3.8,0.9C13.3,3.6,14.3,4,15.5,4c2.2,0,3-0.6,3-0.6
			c0.3-0.2,0.8-0.2,1,0.1c0.2,0.3,0.2,0.8-0.1,1C19.4,4.7,18.3,5.5,15.5,5.5z"/>
	</g>
</g>
</svg>
