<?xml version="1.0" encoding="utf-8"?>
<!-- Generator: Adobe Illustrator 25.3.0, SVG Export Plug-In . SVG Version: 6.00 Build 0)  -->
<svg version="1.1" id="folder-archive" xmlns="http://www.w3.org/2000/svg" xmlns:xlink="http://www.w3.org/1999/xlink" x="0px"
	 y="0px" viewBox="0 0 24 24" style="enable-background:new 0 0 24 24;" xml:space="preserve">
<style type="text/css">
	.st0{fill:#111111;}
	.st1{fill:none;}
</style>
<g id="Group_346">
	<g id="Rectangle_2597">
		<path class="st0" d="M19.9,21.8H4.1c-1,0-1.9-0.8-1.9-1.9v-6.8c0-1,0.8-1.9,1.9-1.9h15.8c1,0,1.9,0.8,1.9,1.9v6.8
			C21.8,20.9,20.9,21.8,19.9,21.8z M4.1,12.8c-0.2,0-0.4,0.2-0.4,0.4v6.8c0,0.2,0.2,0.4,0.4,0.4h15.8c0.2,0,0.4-0.2,0.4-0.4v-6.8
			c0-0.2-0.2-0.4-0.4-0.4H4.1z"/>
	</g>
	<g id="Path_407">
		<path class="st0" d="M14,15.8h-4c-0.4,0-0.8-0.3-0.8-0.8s0.3-0.8,0.8-0.8h4c0.4,0,0.8,0.3,0.8,0.8S14.4,15.8,14,15.8z"/>
	</g>
	<g id="Path_408">
		<path class="st0" d="M19,12.8c-0.4,0-0.8-0.3-0.8-0.8V6.8c0-0.4-0.4-0.8-0.8-0.8h-5c-0.5,0-1-0.3-1.3-0.7l-1.1-1.6l-3.5,0h0
			c-0.4,0-0.8,0.4-0.8,0.8V12c0,0.4-0.3,0.8-0.8,0.8S4.2,12.4,4.2,12V4.6c0-0.6,0.2-1.2,0.7-1.6s1-0.7,1.6-0.7c0,0,0,0,0,0H10
			c0.5,0,1,0.2,1.3,0.7l1.1,1.6l5.1,0c1.3,0,2.3,1,2.3,2.3V12C19.8,12.4,19.4,12.8,19,12.8z"/>
	</g>
</g>
<g id="Path_409">
	<path class="st1" d="M0,0h24v24H0V0z"/>
</g>
</svg>
