<?xml version="1.0" encoding="utf-8"?>
<!-- Generator: Adobe Illustrator 25.3.0, SVG Export Plug-In . SVG Version: 6.00 Build 0)  -->
<svg version="1.1" id="Folder_-Group" xmlns="http://www.w3.org/2000/svg" xmlns:xlink="http://www.w3.org/1999/xlink" x="0px"
	 y="0px" viewBox="0 0 24 24" style="enable-background:new 0 0 24 24;" xml:space="preserve">
<style type="text/css">
	.st0{fill:#111111;}
	.st1{fill:none;}
</style>
<g id="Group_236">
	<g id="Path_106">
		<path class="st0" d="M21,11.8H3c-0.4,0-0.8-0.3-0.8-0.8s0.3-0.8,0.8-0.8h18c0.4,0,0.8,0.3,0.8,0.8S21.4,11.8,21,11.8z"/>
	</g>
	<g id="Path_107">
		<path class="st0" d="M19,20.8H5c-1.5,0-2.8-1.2-2.8-2.8V6c0-1.5,1.2-2.8,2.8-2.8h4.5c0,0,0,0,0,0c0.6,0,1.1,0.3,1.4,0.8l1.4,2.1
			c0,0.1,0.1,0.1,0.2,0.1H19c1.5,0,2.8,1.2,2.8,2.8V18C21.8,19.5,20.5,20.8,19,20.8z M5,4.8C4.3,4.8,3.8,5.3,3.8,6v12
			c0,0.7,0.6,1.2,1.2,1.2h14c0.7,0,1.2-0.6,1.2-1.2V8.9c0-0.7-0.6-1.2-1.2-1.2h-6.5c-0.6,0-1.1-0.3-1.5-0.8L9.7,4.9
			c0-0.1-0.1-0.1-0.2-0.1h0H5z"/>
	</g>
</g>
<g id="Path_108">
	<path class="st1" d="M0,0h24v24H0V0z"/>
</g>
</svg>
