<?xml version="1.0" encoding="utf-8"?>
<!-- Generator: Adobe Illustrator 25.3.0, SVG Export Plug-In . SVG Version: 6.00 Build 0)  -->
<svg version="1.1" id="full_screen" xmlns="http://www.w3.org/2000/svg" xmlns:xlink="http://www.w3.org/1999/xlink" x="0px"
	 y="0px" viewBox="0 0 24 24" style="enable-background:new 0 0 24 24;" xml:space="preserve">
<style type="text/css">
	.st0{fill:none;}
	.st1{fill:#111111;}
</style>
<g id="Path_170">
	<path class="st0" d="M0,0h24v24H0V0z"/>
</g>
<g id="Group_1019" transform="translate(0.091 -0.05)">
	<g id="Group_281" transform="translate(3 1.05)">
		<g id="Path_166">
			<path class="st1" d="M1.1,8.1c-0.4,0-0.8-0.3-0.8-0.8V3.1c0-0.4,0.3-0.8,0.8-0.8h4.2c0.4,0,0.8,0.3,0.8,0.8S5.8,3.9,5.4,3.9H1.9
				v3.5C1.9,7.8,1.5,8.1,1.1,8.1z"/>
		</g>
		<g id="Path_167">
			<path class="st1" d="M7.1,9.5c-0.2,0-0.4-0.1-0.5-0.2L1.7,4.4c-0.3-0.3-0.3-0.8,0-1.1s0.8-0.3,1.1,0l4.9,4.9C8,8.5,8,9,7.7,9.3
				C7.5,9.5,7.3,9.5,7.1,9.5z"/>
		</g>
		<g id="Path_168">
			<path class="st1" d="M16.6,19.5h-4.2c-0.4,0-0.8-0.3-0.8-0.8s0.3-0.8,0.8-0.8h3.5v-3.5c0-0.4,0.3-0.8,0.8-0.8s0.8,0.3,0.8,0.8
				v4.2C17.3,19.2,17,19.5,16.6,19.5z"/>
		</g>
		<g id="Path_169">
			<path class="st1" d="M16,18.7c-0.2,0-0.4-0.1-0.5-0.2l-4.9-4.9c-0.3-0.3-0.3-0.8,0-1.1s0.8-0.3,1.1,0l4.9,4.9
				c0.3,0.3,0.3,0.8,0,1.1C16.3,18.6,16.1,18.7,16,18.7z"/>
		</g>
	</g>
	<g id="Group_1018" transform="translate(0.909 20.858) rotate(-90)">
		<g id="Path_166-2">
			<path class="st1" d="M0.4,7.4V3.1c0-0.4,0.3-0.8,0.8-0.8h4.2c0.4,0,0.8,0.3,0.8,0.8S5.8,3.9,5.4,3.9H1.9v3.5
				c0,0.4-0.3,0.8-0.8,0.8S0.4,7.8,0.4,7.4z"/>
		</g>
		<g id="Path_167-2">
			<path class="st1" d="M1.4,3.8c0-0.2,0.1-0.4,0.2-0.5C1.9,3,2.4,3,2.7,3.3l5,4.9C8,8.5,8,9,7.7,9.3s-0.8,0.3-1.1,0l-5-4.9
				C1.5,4.2,1.4,4,1.4,3.8z"/>
		</g>
		<g id="Path_168-2">
			<path class="st1" d="M11.6,18.8c0-0.4,0.3-0.8,0.8-0.8h3.5v-3.5c0-0.4,0.3-0.8,0.8-0.8s0.8,0.3,0.8,0.8v4.2
				c0,0.4-0.3,0.8-0.8,0.8h-4.2C11.9,19.5,11.6,19.2,11.6,18.8z"/>
		</g>
		<g id="Path_169-2">
			<path class="st1" d="M10.3,13c0-0.2,0.1-0.4,0.2-0.5c0.3-0.3,0.8-0.3,1.1,0l4.9,4.9c0.3,0.3,0.3,0.8,0,1.1s-0.8,0.3-1.1,0
				l-4.9-4.9C10.3,13.4,10.3,13.2,10.3,13z"/>
		</g>
	</g>
</g>
</svg>
