<?xml version="1.0" encoding="utf-8"?>
<!-- Generator: Adobe Illustrator 25.3.0, SVG Export Plug-In . SVG Version: 6.00 Build 0)  -->
<svg version="1.1" id="grid-layout" xmlns="http://www.w3.org/2000/svg" xmlns:xlink="http://www.w3.org/1999/xlink" x="0px"
	 y="0px" viewBox="0 0 24 24" style="enable-background:new 0 0 24 24;" xml:space="preserve">
<style type="text/css">
	.st0{fill:#111111;}
	.st1{fill:none;}
</style>
<g id="Group_277">
	<g id="Path_157">
		<path class="st0" d="M19,21.8h-3c-1.5,0-2.8-1.2-2.8-2.8v-5c0-1.5,1.2-2.8,2.8-2.8h3c1.5,0,2.8,1.2,2.8,2.8v5
			C21.8,20.5,20.5,21.8,19,21.8z M16,12.8c-0.7,0-1.2,0.6-1.2,1.2v5c0,0.7,0.6,1.2,1.2,1.2h3c0.7,0,1.2-0.6,1.2-1.2v-5
			c0-0.7-0.6-1.2-1.2-1.2H16z"/>
	</g>
	<g id="Path_158">
		<path class="st0" d="M19,9.8h-3c-1.5,0-2.8-1.2-2.8-2.8V5c0-1.5,1.2-2.8,2.8-2.8h3c1.5,0,2.8,1.2,2.8,2.8v2
			C21.8,8.5,20.5,9.8,19,9.8z M16,3.8c-0.7,0-1.2,0.6-1.2,1.2v2c0,0.7,0.6,1.2,1.2,1.2h3c0.7,0,1.2-0.6,1.2-1.2V5
			c0-0.7-0.6-1.2-1.2-1.2H16z"/>
	</g>
	<g id="Path_159">
		<path class="st0" d="M8,12.8H5c-1.5,0-2.8-1.2-2.8-2.8V5c0-1.5,1.2-2.8,2.8-2.8h3c1.5,0,2.8,1.2,2.8,2.8v5
			C10.8,11.5,9.5,12.8,8,12.8z M5,3.8C4.3,3.8,3.8,4.3,3.8,5v5c0,0.7,0.6,1.2,1.2,1.2h3c0.7,0,1.2-0.6,1.2-1.2V5
			c0-0.7-0.6-1.2-1.2-1.2H5z"/>
	</g>
	<g id="Path_160">
		<path class="st0" d="M8,21.8H5c-1.5,0-2.8-1.2-2.8-2.8v-2c0-1.5,1.2-2.8,2.8-2.8h3c1.5,0,2.8,1.2,2.8,2.8v2
			C10.8,20.5,9.5,21.8,8,21.8z M5,15.8c-0.7,0-1.2,0.6-1.2,1.2v2c0,0.7,0.6,1.2,1.2,1.2h3c0.7,0,1.2-0.6,1.2-1.2v-2
			c0-0.7-0.6-1.2-1.2-1.2H5z"/>
	</g>
</g>
<g id="Path_161">
	<path class="st1" d="M0,0h24v24H0V0z"/>
</g>
</svg>
