<?xml version="1.0" encoding="utf-8"?>
<!-- Generator: Adobe Illustrator 25.3.0, SVG Export Plug-In . SVG Version: 6.00 Build 0)  -->
<svg version="1.1" id="grid-layout" xmlns="http://www.w3.org/2000/svg" xmlns:xlink="http://www.w3.org/1999/xlink" x="0px"
	 y="0px" viewBox="0 0 24 24" style="enable-background:new 0 0 24 24;" xml:space="preserve">
<style type="text/css">
	.st0{fill:none;}
	.st1{fill:#111111;}
</style>
<g id="Group_351">
	<g id="Path_412">
		<path class="st0" d="M0,0h24v24H0V0z"/>
	</g>
	<g id="Path_414">
		<path class="st1" d="M9,14.8c-1.5,0-2.8-1.2-2.8-2.8S7.5,9.2,9,9.2s2.8,1.2,2.8,2.8S10.5,14.8,9,14.8z M9,10.8
			c-0.7,0-1.2,0.6-1.2,1.2s0.6,1.2,1.2,1.2s1.2-0.6,1.2-1.2S9.7,10.8,9,10.8z"/>
	</g>
	<g id="Path_415">
		<path class="st1" d="M16,14.8c-1.5,0-2.8-1.2-2.8-2.8s1.2-2.8,2.8-2.8s2.8,1.2,2.8,2.8S17.5,14.8,16,14.8z M16,10.8
			c-0.7,0-1.2,0.6-1.2,1.2s0.6,1.2,1.2,1.2s1.2-0.6,1.2-1.2S16.7,10.8,16,10.8z"/>
	</g>
	<g id="Path_417">
		<path class="st1" d="M9,21.8c-1.5,0-2.8-1.2-2.8-2.8s1.2-2.8,2.8-2.8s2.8,1.2,2.8,2.8S10.5,21.8,9,21.8z M9,17.8
			c-0.7,0-1.2,0.6-1.2,1.2s0.6,1.2,1.2,1.2s1.2-0.6,1.2-1.2S9.7,17.8,9,17.8z"/>
	</g>
	<g id="Path_418">
		<path class="st1" d="M16,21.8c-1.5,0-2.8-1.2-2.8-2.8s1.2-2.8,2.8-2.8s2.8,1.2,2.8,2.8S17.5,21.8,16,21.8z M16,17.8
			c-0.7,0-1.2,0.6-1.2,1.2s0.6,1.2,1.2,1.2s1.2-0.6,1.2-1.2S16.7,17.8,16,17.8z"/>
	</g>
	<g id="Path_420">
		<path class="st1" d="M9,7.8C7.5,7.8,6.2,6.5,6.2,5S7.5,2.2,9,2.2s2.8,1.2,2.8,2.8S10.5,7.8,9,7.8z M9,3.8C8.3,3.8,7.8,4.3,7.8,5
			S8.3,6.2,9,6.2s1.2-0.6,1.2-1.2S9.7,3.8,9,3.8z"/>
	</g>
	<g id="Path_421">
		<path class="st1" d="M16,7.8c-1.5,0-2.8-1.2-2.8-2.8s1.2-2.8,2.8-2.8s2.8,1.2,2.8,2.8S17.5,7.8,16,7.8z M16,3.8
			c-0.7,0-1.2,0.6-1.2,1.2s0.6,1.2,1.2,1.2s1.2-0.6,1.2-1.2S16.7,3.8,16,3.8z"/>
	</g>
</g>
</svg>
