<?xml version="1.0" encoding="utf-8"?>
<!-- Generator: Adobe Illustrator 25.3.0, SVG Export Plug-In . SVG Version: 6.00 Build 0)  -->
<svg version="1.1" id="grid-layout" xmlns="http://www.w3.org/2000/svg" xmlns:xlink="http://www.w3.org/1999/xlink" x="0px"
	 y="0px" viewBox="0 0 24 24" style="enable-background:new 0 0 24 24;" xml:space="preserve">
<style type="text/css">
	.st0{fill:none;}
	.st1{fill:#111111;}
</style>
<g id="Group_345">
	<g id="Path_402">
		<path class="st0" d="M0,0h24v24H0V0z"/>
	</g>
	<g id="Path_403">
		<path class="st1" d="M19,21.8H5c-1.5,0-2.8-1.2-2.8-2.8V5c0-1.5,1.2-2.8,2.8-2.8h14c1.5,0,2.8,1.2,2.8,2.8v14
			C21.8,20.5,20.5,21.8,19,21.8z M5,3.8C4.3,3.8,3.8,4.3,3.8,5v14c0,0.7,0.6,1.2,1.2,1.2h14c0.7,0,1.2-0.6,1.2-1.2V5
			c0-0.7-0.6-1.2-1.2-1.2H5z"/>
	</g>
	<g id="Path_404">
		<path class="st1" d="M21,9.8H3C2.6,9.8,2.2,9.4,2.2,9S2.6,8.2,3,8.2h18c0.4,0,0.8,0.3,0.8,0.8S21.4,9.8,21,9.8z"/>
	</g>
	<g id="Path_405">
		<path class="st1" d="M10,21.8c-0.4,0-0.8-0.3-0.8-0.8V9c0-0.4,0.3-0.8,0.8-0.8s0.8,0.3,0.8,0.8v12C10.8,21.4,10.4,21.8,10,21.8z"
			/>
	</g>
	<g id="Path_406">
		<path class="st1" d="M21,15.2H10c-0.4,0-0.8-0.3-0.8-0.8s0.3-0.8,0.8-0.8h11c0.4,0,0.8,0.3,0.8,0.8S21.4,15.2,21,15.2z"/>
	</g>
</g>
</svg>
