<svg xmlns="http://www.w3.org/2000/svg" width="24" height="24" viewBox="0 0 24 24"><g class="nc-icon-wrapper" fill="#111111"><g stroke-linecap="round" stroke-width="1.5" stroke="#111111" fill="none" stroke-linejoin="round"><path d="M19 21h-3a2 2 0 0 1-2-2v-5a2 2 0 0 1 2-2h3a2 2 0 0 1 2 2v5a2 2 0 0 1-2 2z"></path><path d="M19 9h-3a2 2 0 0 1-2-2V5a2 2 0 0 1 2-2h3a2 2 0 0 1 2 2v2a2 2 0 0 1-2 2z"></path><path d="M5 3h3a2 2 0 0 1 2 2v5a2 2 0 0 1-2 2H5a2 2 0 0 1-2-2V5a2 2 0 0 1 2-2z"></path><path d="M5 15h3a2 2 0 0 1 2 2v2a2 2 0 0 1-2 2H5a2 2 0 0 1-2-2v-2a2 2 0 0 1 2-2z"></path></g><path fill="none" d="M0 0h24v24H0z"></path></g></svg>