<?xml version="1.0" encoding="utf-8"?>
<!-- Generator: Adobe Illustrator 25.3.0, SVG Export Plug-In . SVG Version: 6.00 Build 0)  -->
<svg version="1.1" id="image-square" xmlns="http://www.w3.org/2000/svg" xmlns:xlink="http://www.w3.org/1999/xlink" x="0px"
	 y="0px" viewBox="0 0 24 24" style="enable-background:new 0 0 24 24;" xml:space="preserve">
<style type="text/css">
	.st0{fill:none;}
	.st1{fill:#111111;}
</style>
<g id="Path_491">
	<path class="st0" d="M0,0h24v24H0V0z"/>
</g>
<g id="Rectangle_2602">
	<path class="st1" d="M15.6,20.8H8.4c-2.9,0-5.2-2.3-5.2-5.2V8.4c0-2.9,2.3-5.2,5.2-5.2h7.1c2.9,0,5.2,2.3,5.2,5.2v7.1
		C20.8,18.4,18.4,20.8,15.6,20.8z M8.4,4.8c-2,0-3.7,1.7-3.7,3.7v7.1c0,2,1.7,3.7,3.7,3.7h7.1c2,0,3.7-1.7,3.7-3.7V8.4
		c0-2-1.7-3.7-3.7-3.7H8.4z"/>
</g>
<g id="Path_492">
	<path class="st1" d="M12,15.2c-0.2,0-0.4-0.1-0.5-0.2c-0.3-0.3-0.3-0.8,0-1.1l3.8-3.9c0.5-0.5,1.2-0.8,1.9-0.8
		c0.8,0,1.4,0.3,1.9,0.8l1.3,1.3c0.3,0.3,0.3,0.8,0,1.1c-0.3,0.3-0.8,0.3-1.1,0l-1.3-1.3c-0.2-0.2-0.6-0.4-0.9-0.4
		c-0.3,0-0.6,0.1-0.9,0.4L12.6,15C12.4,15.2,12.2,15.2,12,15.2z"/>
</g>
<g id="Path_493">
	<path class="st1" d="M17.2,20.5c-0.2,0-0.4-0.1-0.5-0.2l-6-6.1c-0.5-0.5-1.3-0.5-1.8,0L5,18c-0.3,0.3-0.8,0.3-1.1,0
		c-0.3-0.3-0.3-0.8,0-1.1l3.8-3.9c1.1-1.1,2.8-1.1,3.9,0l6,6.1c0.3,0.3,0.3,0.8,0,1.1C17.6,20.4,17.4,20.5,17.2,20.5z"/>
</g>
</svg>
