<?xml version="1.0" encoding="utf-8"?>
<!-- Generator: Adobe Illustrator 25.3.0, SVG Export Plug-In . SVG Version: 6.00 Build 0)  -->
<svg version="1.1" id="label-tag" xmlns="http://www.w3.org/2000/svg" xmlns:xlink="http://www.w3.org/1999/xlink" x="0px" y="0px"
	 viewBox="0 0 24 24" style="enable-background:new 0 0 24 24;" xml:space="preserve">
<style type="text/css">
	.st0{fill:none;}
	.st1{fill:#111111;}
</style>
<g id="Group_358">
	<g id="Path_454">
		<path class="st0" d="M0,0h24v24H0V0z"/>
	</g>
	<g id="Path_455">
		<path class="st1" d="M19,19H8.1c-0.9,0-1.7-0.4-2.2-1.2l-3.1-4.3c-0.7-1-0.7-2.2,0-3.2l3.1-4.3C6.4,5.4,7.2,5,8.1,5H19
			c1.5,0,2.8,1.2,2.8,2.8v8.6C21.8,17.8,20.5,19,19,19z M8.1,6.5c-0.4,0-0.8,0.2-1,0.5c0,0,0,0,0,0L4,11.3c-0.3,0.4-0.3,1,0,1.5
			L7.1,17c0.2,0.3,0.6,0.5,1,0.5H19c0.7,0,1.2-0.6,1.2-1.2V7.7c0-0.7-0.6-1.2-1.2-1.2H8.1z M6.5,6.5L6.5,6.5L6.5,6.5z"/>
	</g>
	<g id="Path_456">
		<path class="st1" d="M9.3,14.5c-0.7,0-1.3-0.2-1.8-0.7c-1-1-1-2.6,0-3.6c1-1,2.6-1,3.6,0l0,0c1,1,1,2.6,0,3.6
			C10.6,14.3,10,14.5,9.3,14.5z M9.3,11c-0.3,0-0.5,0.1-0.7,0.3c-0.4,0.4-0.4,1.1,0,1.5c0.4,0.4,1.1,0.4,1.5,0
			c0.2-0.2,0.3-0.5,0.3-0.7c0-0.3-0.1-0.5-0.3-0.7C9.8,11.1,9.6,11,9.3,11z"/>
	</g>
</g>
</svg>
