<?xml version="1.0" encoding="utf-8"?>
<!-- Generator: Adobe Illustrator 25.3.0, SVG Export Plug-In . SVG Version: 6.00 Build 0)  -->
<svg version="1.1" id="left-arrow" xmlns="http://www.w3.org/2000/svg" xmlns:xlink="http://www.w3.org/1999/xlink" x="0px" y="0px"
	 viewBox="0 0 24 24" style="enable-background:new 0 0 24 24;" xml:space="preserve">
<style type="text/css">
	.st0{fill:none;}
	.st1{fill:#111111;}
</style>
<g id="Group_304">
	<g id="Path_187">
		<path class="st0" d="M0,0h24v24H0V0z"/>
	</g>
	<g id="Path_188">
		<path class="st1" d="M19,12.7H4c-0.4,0-0.8-0.3-0.8-0.8s0.3-0.8,0.8-0.8h15c0.4,0,0.8,0.3,0.8,0.8S19.4,12.7,19,12.7z"/>
	</g>
	<g id="Path_189">
		<path class="st1" d="M10,18.8c-0.2,0-0.4-0.1-0.5-0.2l-6-6c-0.1-0.1-0.2-0.3-0.2-0.5s0.1-0.4,0.2-0.5l6-6c0.3-0.3,0.8-0.3,1.1,0
			s0.3,0.8,0,1.1L5.1,12l5.5,5.5c0.3,0.3,0.3,0.8,0,1.1C10.4,18.7,10.2,18.8,10,18.8z"/>
	</g>
</g>
</svg>
