<?xml version="1.0" encoding="utf-8"?>
<!-- Generator: Adobe Illustrator 25.3.0, SVG Export Plug-In . SVG Version: 6.00 Build 0)  -->
<svg version="1.1" id="Thumbs_up_Like" xmlns="http://www.w3.org/2000/svg" xmlns:xlink="http://www.w3.org/1999/xlink" x="0px"
	 y="0px" viewBox="0 0 24 24" style="enable-background:new 0 0 24 24;" xml:space="preserve">
<style type="text/css">
	.st0{fill:none;}
	.st1{fill:#111111;}
</style>
<g id="Group_918">
	<g id="Path_1106">
		<path class="st0" d="M0,0h24v24H0V0z"/>
	</g>
	<g id="Path_1107">
		<path class="st1" d="M6.9,19.8H5.1c-1,0-1.8-0.8-1.8-1.8v-7.4c0-1,0.8-1.8,1.8-1.8h1.9c1,0,1.8,0.8,1.8,1.8v7.4
			C8.8,18.9,7.9,19.8,6.9,19.8z M5.1,10.2c-0.2,0-0.3,0.1-0.3,0.3v7.4c0,0.2,0.1,0.3,0.3,0.3h1.9c0.2,0,0.3-0.1,0.3-0.3v-7.4
			c0-0.2-0.1-0.3-0.3-0.3H5.1z"/>
	</g>
	<g id="Path_1108">
		<path class="st1" d="M16.8,19.8h-6.3c-0.7,0-1.4-0.3-1.9-0.8l-1.2-1.3c-0.3-0.3-0.3-0.8,0-1.1c0.3-0.3,0.8-0.3,1.1,0l1.2,1.3
			c0.2,0.2,0.5,0.3,0.8,0.3h6.3c0.5,0,0.9-0.3,1-0.8l1.4-4.7c0.1-0.3,0-0.6-0.1-0.9l-0.3-0.5c-0.2-0.3-0.5-0.5-0.9-0.5c0,0,0,0,0,0
			h-3.1c-0.4,0-0.8-0.3-0.8-0.8V6.9c0-0.2-0.1-0.5-0.2-0.7c0-0.1-0.1-0.1-0.2-0.2c-0.2-0.2-0.5-0.2-0.7-0.2c-0.3,0-0.5,0.2-0.7,0.4
			L8.6,11c-0.3,0.3-0.7,0.4-1.1,0.1c-0.3-0.3-0.4-0.7-0.1-1.1l3.6-4.8c0.4-0.5,1-0.9,1.6-0.9c0.7-0.1,1.3,0.1,1.8,0.5
			c0.1,0.1,0.3,0.2,0.4,0.4c0.4,0.5,0.6,1,0.6,1.6v2.5h2.3c0,0,0,0,0,0c0.9,0,1.6,0.4,2.1,1.1l0.3,0.5c0.4,0.6,0.5,1.4,0.3,2.1
			l-1.4,4.7C19,19,18,19.8,16.8,19.8z"/>
	</g>
</g>
</svg>
