<?xml version="1.0" encoding="utf-8"?>
<!-- Generator: Adobe Illustrator 25.3.0, SVG Export Plug-In . SVG Version: 6.00 Build 0)  -->
<svg version="1.1" id="link-big" xmlns="http://www.w3.org/2000/svg" xmlns:xlink="http://www.w3.org/1999/xlink" x="0px" y="0px"
	 viewBox="0 0 24 24" style="enable-background:new 0 0 24 24;" xml:space="preserve">
<style type="text/css">
	.st0{fill:#111111;}
	.st1{fill:none;}
</style>
<g id="Path_121">
	<path class="st0" d="M8.6,20.7c-1.5,0-2.8-0.6-3.9-1.6c-1-1-1.6-2.4-1.6-3.9c0-1.5,0.6-2.8,1.6-3.9c0,0,0.1,0,0.1-0.1l1.6-1.6
		c2.2-1.9,5.5-1.9,7.7,0l-1,1.1l0,0c-1.6-1.4-4-1.4-5.7,0l-1.6,1.6c0,0,0,0-0.1,0.1c-0.7,0.7-1.1,1.7-1.1,2.7c0,1.1,0.4,2,1.2,2.8
		c1.5,1.5,4.1,1.5,5.6,0c0.3-0.3,0.8-0.3,1.1,0s0.3,0.8,0,1.1C11.4,20.2,10.1,20.7,8.6,20.7z M13.6,15.6c-1.3,0-2.7-0.5-3.8-1.4
		c0,0,0,0-0.1,0l0,0c-0.3-0.3-0.3-0.7,0-1c0.3-0.3,0.7-0.3,1-0.1c1.6,1.4,4,1.4,5.7,0l1.5-1.6c0,0,0,0,0.1-0.1
		c0.7-0.8,1.1-1.8,1.1-2.8c0-1.1-0.4-2-1.2-2.8c-1.5-1.5-4-1.5-5.5,0c-0.3,0.3-0.8,0.3-1.1,0c-0.3-0.3-0.3-0.8,0-1.1
		c2.1-2.1,5.5-2.1,7.6,0c1,1,1.6,2.4,1.7,3.8c0,1.4-0.5,2.8-1.5,3.8c0,0,0,0.1-0.1,0.1l-1.7,1.7C16.4,15.1,15,15.6,13.6,15.6z"/>
</g>
<g id="Path_122">
	<path class="st1" d="M0,0h24v24H0V0z"/>
</g>
</svg>
