<?xml version="1.0" encoding="utf-8"?>
<!-- Generator: Adobe Illustrator 25.3.0, SVG Export Plug-In . SVG Version: 6.00 Build 0)  -->
<svg version="1.1" id="list-task-checkmark" xmlns="http://www.w3.org/2000/svg" xmlns:xlink="http://www.w3.org/1999/xlink"
	 x="0px" y="0px" viewBox="0 0 24 24" style="enable-background:new 0 0 24 24;" xml:space="preserve">
<style type="text/css">
	.st0{fill:#212121;}
	.st1{fill:none;}
</style>
<g id="Group_233">
	<g id="Path_87">
		<path class="st0" d="M17,15.5h-4c-0.4,0-0.8-0.3-0.8-0.8S12.6,14,13,14h4c0.4,0,0.8,0.3,0.8,0.8S17.4,15.5,17,15.5z"/>
	</g>
	<g id="Path_88">
		<path class="st0" d="M19,21.2H5c-1.5,0-2.8-1.2-2.8-2.8v-13C2.2,4,3.5,2.8,5,2.8h14c1.5,0,2.8,1.2,2.8,2.8v13
			C21.8,20,20.5,21.2,19,21.2z M5,4.2c-0.7,0-1.2,0.6-1.2,1.2v13c0,0.7,0.6,1.2,1.2,1.2h14c0.7,0,1.2-0.6,1.2-1.2v-13
			c0-0.7-0.6-1.2-1.2-1.2H5z"/>
	</g>
	<g id="Path_89">
		<path class="st0" d="M7.9,16.1c-0.2,0-0.4-0.1-0.5-0.2l-0.9-0.8c-0.3-0.3-0.3-0.8-0.1-1.1c0.3-0.3,0.8-0.3,1.1-0.1l0.4,0.4
			l1.3-1.2c0.3-0.3,0.8-0.3,1.1,0.1c0.3,0.3,0.3,0.8-0.1,1.1l-1.9,1.7C8.3,16,8.1,16.1,7.9,16.1z"/>
	</g>
	<g id="Path_90">
		<path class="st0" d="M17,10.5h-4c-0.4,0-0.8-0.3-0.8-0.8S12.6,9,13,9h4c0.4,0,0.8,0.3,0.8,0.8S17.4,10.5,17,10.5z"/>
	</g>
	<g id="Path_91">
		<path class="st0" d="M7.9,11.1c-0.2,0-0.4-0.1-0.5-0.2l-0.9-0.8C6.2,9.8,6.2,9.3,6.4,9c0.3-0.3,0.8-0.3,1.1-0.1l0.4,0.4l1.3-1.2
			c0.3-0.3,0.8-0.3,1.1,0.1c0.3,0.3,0.3,0.8-0.1,1.1l-1.9,1.7C8.3,11,8.1,11.1,7.9,11.1z"/>
	</g>
</g>
<g id="Path_92">
	<path class="st1" d="M0,0h24v24H0V0z"/>
</g>
</svg>
