<?xml version="1.0" encoding="utf-8"?>
<!-- Generator: Adobe Illustrator 25.3.0, SVG Export Plug-In . SVG Version: 6.00 Build 0)  -->
<svg version="1.1" id="login-logout-cross-delete" xmlns="http://www.w3.org/2000/svg" xmlns:xlink="http://www.w3.org/1999/xlink"
	 x="0px" y="0px" viewBox="0 0 24 24" style="enable-background:new 0 0 24 24;" xml:space="preserve">
<style type="text/css">
	.st0{fill:#111111;}
	.st1{fill:none;}
</style>
<g id="Group_984">
	<g id="Path_1212">
		<path class="st0" d="M10,21.7c-0.5,0-1-0.1-1.5-0.4l-4-2.5c0,0,0,0-0.1,0c-0.8-0.5-1.3-1.4-1.2-2.3V5.1c0,0,0-0.1,0-0.1
			c0-1.5,1.2-2.8,2.7-2.8c0.5,0,1,0.1,1.5,0.4l4,2.5c0.8,0.5,1.3,1.4,1.3,2.3l0,11.5c0,0,0,0,0,0c0,0,0,0,0,0v0
			C12.7,20.5,11.5,21.7,10,21.7C10,21.7,10,21.7,10,21.7z M5.4,17.6l4,2.5c0.2,0.1,0.4,0.2,0.7,0.2c0,0,0,0,0,0
			c0.7,0,1.2-0.6,1.3-1.2l0-11.5c0-0.4-0.2-0.8-0.6-1.1l-4-2.5C6.4,3.8,6.2,3.7,6,3.7c-0.7,0-1.2,0.5-1.3,1.2c0,0,0,0.1,0,0.1v11.5
			C4.7,16.9,5,17.3,5.4,17.6C5.3,17.5,5.4,17.5,5.4,17.6z"/>
	</g>
	<g id="Path_1215">
		<path class="st0" d="M19,6.8c-0.4,0-0.8-0.3-0.8-0.8V5c0-0.7-0.6-1.2-1.2-1.2H6C5.6,3.7,5.2,3.4,5.2,3S5.6,2.2,6,2.2h11
			c1.5,0,2.8,1.2,2.8,2.8v1C19.8,6.4,19.4,6.8,19,6.8z"/>
	</g>
	<g id="Path_1216">
		<path class="st0" d="M12,19.8c-0.4,0-0.8-0.3-0.8-0.8s0.3-0.8,0.8-0.8h5c0.7,0,1.2-0.6,1.2-1.2v-1c0-0.4,0.3-0.8,0.8-0.8
			s0.8,0.3,0.8,0.8v1c0,1.5-1.2,2.7-2.7,2.8H12z"/>
	</g>
	<g id="Path_1218">
		<path class="st0" d="M21.6,11.8h-7c-0.4,0-0.8-0.3-0.8-0.8s0.3-0.8,0.8-0.8h7c0.4,0,0.8,0.3,0.8,0.8S22,11.8,21.6,11.8z"/>
	</g>
	<g id="Path_1219">
		<path class="st0" d="M19.6,13.9c-0.2,0-0.4-0.1-0.5-0.2c-0.3-0.3-0.3-0.8,0-1.1l1.6-1.6l-1.6-1.6c-0.3-0.3-0.3-0.8,0-1.1
			s0.8-0.3,1.1,0l2.2,2.2c0.1,0.1,0.2,0.3,0.2,0.5s-0.1,0.4-0.2,0.5l-2.2,2.2C20,13.9,19.8,13.9,19.6,13.9z"/>
	</g>
</g>
<g id="Path_1217">
	<path class="st1" d="M0,0h24v24H0V0z"/>
</g>
</svg>
