<?xml version="1.0" encoding="utf-8"?>
<!-- Generator: Adobe Illustrator 25.3.0, SVG Export Plug-In . SVG Version: 6.00 Build 0)  -->
<svg version="1.1" id="Layer_1" xmlns="http://www.w3.org/2000/svg" xmlns:xlink="http://www.w3.org/1999/xlink" x="0px" y="0px"
	 viewBox="0 0 24 24" style="enable-background:new 0 0 24 24;" xml:space="preserve">
<style type="text/css">
	.st0{fill:#111111;}
	.st1{fill:none;}
</style>
<g id="Emails_Letter_Mail" transform="translate(0 1)">
	<g id="Group_395">
		<g id="Path_496">
			<path class="st0" d="M12,12.8c-0.9,0-1.9-0.3-2.7-0.8l-6-4.1C2.7,7.4,2.2,6.6,2.2,5.8c0-1.4,1.1-2.5,2.5-2.5h14.4
				c1.4,0,2.5,1.1,2.5,2.5c0,0.9-0.4,1.6-1.1,2.1l-6,4C13.9,12.5,12.9,12.8,12,12.8z M4.8,4.8c-0.6,0-1,0.5-1,1
				c0,0.3,0.2,0.7,0.5,0.9l6,4.1c1.1,0.8,2.5,0.8,3.6,0l6-4c0.3-0.2,0.5-0.5,0.5-0.9c0-0.6-0.5-1-1-1H4.8z"/>
		</g>
		<g id="Path_497">
			<path class="st0" d="M19,18.8H5c-1.5,0-2.8-1.2-2.8-2.8V6c0-0.4,0.3-0.8,0.8-0.8S3.8,5.6,3.8,6v10c0,0.7,0.6,1.2,1.2,1.2h14
				c0.7,0,1.2-0.6,1.2-1.2V6c0-0.4,0.3-0.8,0.8-0.8s0.8,0.3,0.8,0.8v10C21.8,17.5,20.5,18.8,19,18.8z"/>
		</g>
		<g id="Path_498">
			<path class="st0" d="M3.6,18.2c-0.2,0-0.4-0.1-0.5-0.2c-0.3-0.3-0.3-0.8,0-1.1l6.1-6.1c0.3-0.3,0.8-0.3,1.1,0s0.3,0.8,0,1.1
				l-6.1,6.1C4,18.1,3.8,18.2,3.6,18.2z"/>
		</g>
		<g id="Path_499">
			<path class="st0" d="M20.4,18.2c-0.2,0-0.4-0.1-0.5-0.2l-6.1-6.1c-0.3-0.3-0.3-0.8,0-1.1s0.8-0.3,1.1,0l6.1,6.1
				c0.3,0.3,0.3,0.8,0,1.1C20.8,18.1,20.6,18.2,20.4,18.2z"/>
		</g>
		<g id="Path_500">
			<path class="st1" d="M0-1h24v24H0V-1z"/>
		</g>
	</g>
</g>
</svg>
