<?xml version="1.0" encoding="utf-8"?>
<!-- Generator: Adobe Illustrator 25.3.0, SVG Export Plug-In . SVG Version: 6.00 Build 0)  -->
<svg version="1.1" id="Notebook_Check_list" xmlns="http://www.w3.org/2000/svg" xmlns:xlink="http://www.w3.org/1999/xlink"
	 x="0px" y="0px" viewBox="0 0 24 24" style="enable-background:new 0 0 24 24;" xml:space="preserve">
<style type="text/css">
	.st0{fill:none;}
	.st1{fill:#323232;}
</style>
<g id="Path_93">
	<path class="st0" d="M0,0h24v24H0V0z"/>
</g>
<g id="Path_94">
	<path class="st0" d="M0,0h24v24H0V0z"/>
</g>
<g id="Path_95">
	<path class="st1" d="M17,16.8h-4c-0.4,0-0.8-0.3-0.8-0.8s0.3-0.8,0.8-0.8h4c0.4,0,0.8,0.3,0.8,0.8S17.4,16.8,17,16.8z"/>
</g>
<g id="Path_96">
	<path class="st1" d="M7.9,17.3c-0.2,0-0.4-0.1-0.5-0.2l-0.9-0.8c-0.3-0.3-0.3-0.8-0.1-1.1c0.3-0.3,0.8-0.3,1.1-0.1l0.4,0.4l1.3-1.2
		c0.3-0.3,0.8-0.3,1.1,0.1c0.3,0.3,0.3,0.8-0.1,1.1l-1.9,1.7C8.3,17.2,8.1,17.3,7.9,17.3z"/>
</g>
<g id="Path_97">
	<path class="st1" d="M17,11.8h-4c-0.4,0-0.8-0.3-0.8-0.8s0.3-0.8,0.8-0.8h4c0.4,0,0.8,0.3,0.8,0.8S17.4,11.8,17,11.8z"/>
</g>
<g id="Path_98">
	<path class="st1" d="M7.9,12.3c-0.2,0-0.4-0.1-0.5-0.2l-0.9-0.8c-0.3-0.3-0.3-0.8-0.1-1.1c0.3-0.3,0.8-0.3,1.1-0.1l0.4,0.4l1.3-1.2
		c0.3-0.3,0.8-0.3,1.1,0.1c0.3,0.3,0.3,0.8-0.1,1.1l-1.9,1.7C8.3,12.2,8.1,12.3,7.9,12.3z"/>
</g>
<g id="Path_99">
	<path class="st1" d="M19,21.8H5c-1.5,0-2.8-1.2-2.8-2.8V6c0-1.5,1.2-2.8,2.8-2.8h14c1.5,0,2.8,1.2,2.8,2.8v13
		C21.8,20.5,20.5,21.8,19,21.8z M5,4.8C4.3,4.8,3.8,5.3,3.8,6v13c0,0.7,0.6,1.2,1.2,1.2h14c0.7,0,1.2-0.6,1.2-1.2V6
		c0-0.7-0.6-1.2-1.2-1.2H5z"/>
</g>
<g id="Path_100">
	<path class="st1" d="M16,6.8c-0.4,0-0.8-0.3-0.8-0.8V3c0-0.4,0.3-0.8,0.8-0.8s0.8,0.3,0.8,0.8v3C16.8,6.4,16.4,6.8,16,6.8z"/>
</g>
<g id="Path_101">
	<path class="st1" d="M12,6.8c-0.4,0-0.8-0.3-0.8-0.8V3c0-0.4,0.3-0.8,0.8-0.8s0.8,0.3,0.8,0.8v3C12.8,6.4,12.4,6.8,12,6.8z"/>
</g>
<g id="Path_102">
	<path class="st1" d="M8,6.8C7.6,6.8,7.2,6.4,7.2,6V3c0-0.4,0.3-0.8,0.8-0.8S8.8,2.6,8.8,3v3C8.8,6.4,8.4,6.8,8,6.8z"/>
</g>
</svg>
