<?xml version="1.0" encoding="utf-8"?>
<!-- Generator: Adobe Illustrator 25.3.0, SVG Export Plug-In . SVG Version: 6.00 Build 0)  -->
<svg version="1.1" id="Layer_1" xmlns="http://www.w3.org/2000/svg" xmlns:xlink="http://www.w3.org/1999/xlink" x="0px" y="0px"
	 viewBox="0 0 24 24" style="enable-background:new 0 0 24 24;" xml:space="preserve">
<style type="text/css">
	.st0{opacity:0;}
	.st1{fill:#FFFFFF;}
	.st2{fill:#111111;}
	.st3{fill:none;}
</style>
<g id="Group_855" transform="translate(-219 -1198)">
	<g id="Rectangle_2481" transform="translate(219 1198)" class="st0">
		<g>
			<rect class="st1" width="24" height="24"/>
		</g>
		<g>
			<path class="st2" d="M24,24H0V0h24V24z M1,23h22V1H1V23z"/>
		</g>
	</g>
	<g id="bell-notifications" transform="translate(219 1198)">
		<g id="Group_225">
			<g id="Path_73">
				<path class="st2" d="M12,21.8c-1.8,0-3.2-1.5-3.2-3.2V18c0-0.4,0.3-0.8,0.8-0.8s0.8,0.3,0.8,0.8v0.5c0,1,0.8,1.7,1.7,1.7
					c0,0,0,0,0,0c1,0,1.7-0.8,1.7-1.7V18c0-0.4,0.3-0.8,0.8-0.8s0.8,0.3,0.8,0.8v0.5C15.2,20.3,13.8,21.8,12,21.8
					C12,21.8,12,21.8,12,21.8z"/>
			</g>
			<g id="Path_74">
				<path class="st2" d="M17.9,18.8H6.1c-1.5,0-2.8-1.3-2.8-2.8c0-0.8,0.3-1.5,0.9-2.1l1.1-1.1V9c0-3.7,3-6.8,6.8-6.8
					c3.7,0,6.8,3,6.8,6.8v3.7l1.1,1.1c0.6,0.6,0.9,1.3,0.9,2.1C20.8,17.5,19.5,18.8,17.9,18.8z M12,3.8C9.1,3.8,6.8,6.1,6.8,9v4
					c0,0.2-0.1,0.4-0.2,0.5l-1.4,1.4c-0.3,0.3-0.4,0.6-0.4,1c0,0.7,0.6,1.3,1.3,1.3h11.9c0.7,0,1.3-0.6,1.3-1.3c0-0.4-0.2-0.7-0.4-1
					l-1.4-1.4c-0.1-0.1-0.2-0.3-0.2-0.5V9C17.2,6.1,14.9,3.8,12,3.8z"/>
			</g>
		</g>
		<g id="Path_75">
			<path class="st3" d="M0,0h24v24H0V0z"/>
		</g>
	</g>
</g>
</svg>
