<?xml version="1.0" encoding="utf-8"?>
<!-- Generator: Adobe Illustrator 25.3.0, SVG Export Plug-In . SVG Version: 6.00 Build 0)  -->
<svg version="1.1" id="pen-edit" xmlns="http://www.w3.org/2000/svg" xmlns:xlink="http://www.w3.org/1999/xlink" x="0px" y="0px"
	 viewBox="0 0 24 24" style="enable-background:new 0 0 24 24;" xml:space="preserve">
<style type="text/css">
	.st0{fill:none;}
	.st1{fill:#111111;}
</style>
<g id="Group_824">
	<g id="Path_965">
		<path class="st0" d="M0,0h24v24H0V0z"/>
	</g>
	<g id="Path_966">
		<path class="st1" d="M17.5,10.9c-0.2,0-0.4-0.1-0.5-0.2L13.3,7c-0.3-0.3-0.3-0.8,0-1.1s0.8-0.3,1.1,0l3.7,3.7
			c0.3,0.3,0.3,0.8,0,1.1C17.9,10.8,17.7,10.9,17.5,10.9z"/>
	</g>
	<g id="Path_967">
		<path class="st1" d="M6.3,21.8H3c-0.4,0-0.8-0.3-0.8-0.8v-3.3c0-0.5,0.2-0.9,0.5-1.2L16.1,3.2c0.7-0.7,1.8-0.7,2.5,0l2.3,2.3
			c0.7,0.7,0.7,1.8,0,2.5L7.5,21.2C7.2,21.6,6.7,21.8,6.3,21.8z M3.8,20.2h2.5c0.1,0,0.1,0,0.2-0.1L19.8,6.8c0.1-0.1,0.1-0.3,0-0.4
			l-2.3-2.3c-0.1-0.1-0.3-0.1-0.4,0L3.8,17.6c0,0-0.1,0.1-0.1,0.2V20.2z"/>
	</g>
</g>
</svg>
