<?xml version="1.0" encoding="utf-8"?>
<!-- Generator: Adobe Illustrator 25.3.0, SVG Export Plug-In . SVG Version: 6.00 Build 0)  -->
<svg version="1.1" id="pen-edit" xmlns="http://www.w3.org/2000/svg" xmlns:xlink="http://www.w3.org/1999/xlink" x="0px" y="0px"
	 viewBox="0 0 24 24" style="enable-background:new 0 0 24 24;" xml:space="preserve">
<style type="text/css">
	.st0{fill:#111111;}
	.st1{fill:none;}
</style>
<g id="Group_975">
	<g id="Path_1208">
		<path class="st0" d="M19,21.8H5c-1.5,0-2.8-1.2-2.8-2.8V5c0-1.5,1.2-2.8,2.8-2.8h8c0.4,0,0.8,0.3,0.8,0.8S13.4,3.8,13,3.8H5
			C4.3,3.8,3.8,4.3,3.8,5v14c0,0.7,0.6,1.2,1.2,1.2h14c0.7,0,1.2-0.6,1.2-1.2v-8c0-0.4,0.3-0.8,0.8-0.8s0.8,0.3,0.8,0.8v8
			C21.8,20.5,20.5,21.8,19,21.8z"/>
	</g>
	<g id="Path_1209">
		<path class="st0" d="M9.8,17.8H7c-0.4,0-0.8-0.3-0.8-0.8v-2.8c0-0.2,0.1-0.4,0.2-0.5L17.3,2.8c0.7-0.7,1.8-0.7,2.5,0l1.4,1.4
			c0.7,0.7,0.7,1.8,0,2.5L10.4,17.5C10.2,17.7,10,17.8,9.8,17.8z M7.8,16.2h1.8L20.2,5.6c0.1-0.1,0.1-0.3,0-0.4l-1.4-1.4
			c-0.1-0.1-0.3-0.1-0.4,0L7.8,14.5V16.2z"/>
	</g>
	<g id="Path_1210">
		<path class="st0" d="M18.9,8.7c-0.2,0-0.4-0.1-0.5-0.2l-2.8-2.8c-0.3-0.3-0.3-0.8,0-1.1s0.8-0.3,1.1,0l2.8,2.8
			c0.3,0.3,0.3,0.8,0,1.1C19.3,8.6,19.1,8.7,18.9,8.7z"/>
	</g>
</g>
<g id="Path_1211">
	<path class="st1" d="M0,0h24v24H0V0z"/>
</g>
</svg>
