<?xml version="1.0" encoding="utf-8"?>
<!-- Generator: Adobe Illustrator 25.3.0, SVG Export Plug-In . SVG Version: 6.00 Build 0)  -->
<svg version="1.1" id="keyhole-lock-protection-square"
	 xmlns="http://www.w3.org/2000/svg" xmlns:xlink="http://www.w3.org/1999/xlink" x="0px" y="0px" viewBox="0 0 24 24"
	 style="enable-background:new 0 0 24 24;" xml:space="preserve">
<style type="text/css">
	.st0{fill:#111111;}
	.st1{fill:none;}
</style>
<g id="Path_410">
	<path class="st0" d="M12,16.2c-0.4,0-0.8-0.3-0.8-0.8v-3c0-0.4,0.3-0.8,0.8-0.8s0.8,0.3,0.8,0.8v3C12.8,15.9,12.4,16.2,12,16.2z"/>
</g>
<g id="Ellipse_27">
	<path class="st0" d="M12,13.2c-1.5,0-2.8-1.2-2.8-2.8s1.2-2.8,2.8-2.8s2.8,1.2,2.8,2.8S13.5,13.2,12,13.2z M12,9.2
		c-0.7,0-1.2,0.6-1.2,1.2s0.6,1.2,1.2,1.2s1.2-0.6,1.2-1.2S12.7,9.2,12,9.2z"/>
</g>
<g id="Rectangle_2598">
	<path class="st0" d="M16,21.8H8c-3.2,0-5.8-2.6-5.8-5.8V8c0-3.2,2.6-5.8,5.8-5.8h8c3.2,0,5.8,2.6,5.8,5.8v8
		C21.8,19.2,19.2,21.8,16,21.8z M8,3.8C5.7,3.8,3.8,5.7,3.8,8v8c0,2.3,1.9,4.2,4.2,4.2h8c2.3,0,4.2-1.9,4.2-4.2V8
		c0-2.3-1.9-4.2-4.2-4.2H8z"/>
</g>
<g id="Path_411">
	<path class="st1" d="M0,0h24v24H0V0z"/>
</g>
</svg>
