<?xml version="1.0" encoding="utf-8"?>
<!-- Generator: Adobe Illustrator 25.3.0, SVG Export Plug-In . SVG Version: 6.00 Build 0)  -->
<svg version="1.1" id="plus-add" xmlns="http://www.w3.org/2000/svg" xmlns:xlink="http://www.w3.org/1999/xlink" x="0px" y="0px"
	 viewBox="0 0 24 24" style="enable-background:new 0 0 24 24;" xml:space="preserve">
<style type="text/css">
	.st0{fill:none;}
	.st1{fill:#111111;}
</style>
<g id="Group_282">
	<g id="Path_171">
		<path class="st0" d="M0,0h24v24H0V0z"/>
	</g>
	<g id="Path_172">
		<path class="st1" d="M12,16.8c-0.4,0-0.8-0.3-0.8-0.8V8c0-0.4,0.3-0.8,0.8-0.8s0.8,0.3,0.8,0.8v8C12.8,16.4,12.4,16.8,12,16.8z"/>
	</g>
	<g id="Path_173">
		<path class="st1" d="M16,12.8H8c-0.4,0-0.8-0.3-0.8-0.8s0.3-0.8,0.8-0.8h8c0.4,0,0.8,0.3,0.8,0.8S16.4,12.8,16,12.8z"/>
	</g>
	<g id="Path_174">
		<path class="st1" d="M12,21.8c-5.4,0-9.8-4.4-9.8-9.8S6.6,2.2,12,2.2s9.8,4.4,9.8,9.8S17.4,21.8,12,21.8z M12,3.8
			c-4.5,0-8.2,3.7-8.2,8.2s3.7,8.2,8.2,8.2s8.2-3.7,8.2-8.2S16.5,3.8,12,3.8z"/>
	</g>
</g>
</svg>
