<?xml version="1.0" encoding="utf-8"?>
<!-- Generator: Adobe Illustrator 25.3.0, SVG Export Plug-In . SVG Version: 6.00 Build 0)  -->
<svg version="1.1" id="scroll-down-circle" xmlns="http://www.w3.org/2000/svg" xmlns:xlink="http://www.w3.org/1999/xlink" x="0px"
	 y="0px" viewBox="0 0 24 24" style="enable-background:new 0 0 24 24;" xml:space="preserve">
<style type="text/css">
	.st0{fill:#212121;}
	.st1{fill:none;}
</style>
<g id="Group_299">
	<g id="Path_185">
		<path class="st0" d="M12,14.3c-0.2,0-0.4-0.1-0.5-0.2L8.4,11c-0.3-0.3-0.3-0.8,0-1.1s0.8-0.3,1.1,0l2.6,2.6l2.6-2.6
			c0.3-0.3,0.8-0.3,1.1,0s0.3,0.8,0,1.1l-3.1,3.1C12.4,14.2,12.2,14.3,12,14.3z"/>
	</g>
	<g id="Ellipse_16">
		<path class="st0" d="M12,21.8c-5.4,0-9.8-4.4-9.8-9.8S6.6,2.2,12,2.2s9.8,4.4,9.8,9.8S17.4,21.8,12,21.8z M12,3.8
			c-4.5,0-8.2,3.7-8.2,8.2s3.7,8.2,8.2,8.2s8.2-3.7,8.2-8.2S16.5,3.8,12,3.8z"/>
	</g>
</g>
<g id="Path_186">
	<path class="st1" d="M24,24H0V0h24V24z"/>
</g>
</svg>
