<?xml version="1.0" encoding="utf-8"?>
<!-- Generator: Adobe Illustrator 25.3.0, SVG Export Plug-In . SVG Version: 6.00 Build 0)  -->
<svg version="1.1" id="search-loupe" xmlns="http://www.w3.org/2000/svg" xmlns:xlink="http://www.w3.org/1999/xlink" x="0px"
	 y="0px" viewBox="0 0 24 24" style="enable-background:new 0 0 24 24;" xml:space="preserve">
<style type="text/css">
	.st0{fill:#111111;}
	.st1{fill:none;}
</style>
<g id="Group_227">
	<g id="Ellipse_12">
		<path class="st0" d="M11.1,18.9c-4.3,0-7.8-3.5-7.8-7.8s3.5-7.8,7.8-7.8s7.8,3.5,7.8,7.8S15.4,18.9,11.1,18.9z M11.1,4.8
			c-3.5,0-6.3,2.8-6.3,6.3s2.8,6.3,6.3,6.3s6.3-2.8,6.3-6.3S14.5,4.8,11.1,4.8z"/>
	</g>
	<g id="Path_76">
		<path class="st0" d="M20,20.8c-0.2,0-0.4-0.1-0.5-0.2l-4-4c-0.3-0.3-0.3-0.8,0-1.1s0.8-0.3,1.1,0l4,4c0.3,0.3,0.3,0.8,0,1.1
			C20.4,20.7,20.2,20.8,20,20.8z"/>
	</g>
</g>
<g id="Path_77">
	<path class="st1" d="M0,0h24v24H0V0z"/>
</g>
</svg>
