<?xml version="1.0" encoding="utf-8"?>
<!-- Generator: Adobe Illustrator 25.3.0, SVG Export Plug-In . SVG Version: 6.00 Build 0)  -->
<svg version="1.1" id="send" xmlns="http://www.w3.org/2000/svg" xmlns:xlink="http://www.w3.org/1999/xlink" x="0px" y="0px"
	 viewBox="0 0 24 24" style="enable-background:new 0 0 24 24;" xml:space="preserve">
<style type="text/css">
	.st0{fill:none;}
	.st1{fill:#111111;}
</style>
<g id="Group_864">
	<g id="Path_1010">
		<path class="st0" d="M0,0h24v24H0V0z"/>
	</g>
	<g id="Path_1011">
		<path class="st1" d="M13.7,20.7c-0.4,0-0.7-0.1-1-0.3c-0.5-0.3-0.8-0.7-0.9-1.2l-1.4-5.6l-5.6-1.4C4.1,12,3.6,11.6,3.4,11
			C3,9.9,3.5,8.8,4.6,8.4l13.5-5c0.5-0.2,0.9-0.2,1.4,0c1,0.4,1.6,1.5,1.2,2.6l-5,13.5c-0.2,0.6-0.8,1.1-1.4,1.2
			C14.1,20.7,13.9,20.7,13.7,20.7z M18.7,4.8c-0.1,0-0.1,0-0.2,0l-13.5,5c-0.3,0.1-0.4,0.4-0.3,0.6c0.1,0.2,0.2,0.3,0.4,0.3l6.1,1.5
			c0.3,0.1,0.5,0.3,0.5,0.5l1.5,6c0,0.1,0.1,0.2,0.2,0.3s0.3,0.1,0.4,0.1c0.2,0,0.3-0.2,0.4-0.3v0l5-13.5c0.1-0.3,0-0.6-0.3-0.6
			C18.9,4.8,18.8,4.8,18.7,4.8z"/>
	</g>
</g>
</svg>
