<?xml version="1.0" encoding="utf-8"?>
<!-- Generator: Adobe Illustrator 25.3.0, SVG Export Plug-In . SVG Version: 6.00 Build 0)  -->
<svg version="1.1" id="setting-edit-filter-gear" xmlns="http://www.w3.org/2000/svg" xmlns:xlink="http://www.w3.org/1999/xlink"
	 x="0px" y="0px" viewBox="0 0 24 24" style="enable-background:new 0 0 24 24;" xml:space="preserve">
<style type="text/css">
	.st0{fill:#111111;}
	.st1{fill:none;}
</style>
<g id="Group_819">
	<g id="Path_962">
		<path class="st0" d="M12,15.2C12,15.2,12,15.2,12,15.2c-0.9,0-1.7-0.3-2.3-1c-0.6-0.6-1-1.4-1-2.3c0-0.9,0.3-1.7,1-2.3
			c1.2-1.2,3.4-1.2,4.6,0v0c0.6,0.6,1,1.4,1,2.3s-0.3,1.7-1,2.3C13.7,14.9,12.9,15.2,12,15.2z M12,10.2c-0.5,0-0.9,0.2-1.2,0.5
			c-0.3,0.3-0.5,0.8-0.5,1.2s0.2,0.9,0.5,1.2c0.3,0.3,0.8,0.5,1.2,0.5h0c0.5,0,0.9-0.2,1.2-0.5c0.3-0.3,0.5-0.8,0.5-1.2
			c0-0.5-0.2-0.9-0.5-1.2C12.9,10.4,12.5,10.2,12,10.2z"/>
	</g>
	<g id="Path_963">
		<path class="st0" d="M14.4,20.8c-0.5,0-1.1-0.2-1.5-0.6l-0.6-0.6c-0.2-0.2-0.6-0.2-0.8,0L11,20.1c-0.6,0.5-1.3,0.7-2.1,0.5
			l-0.6-0.2c-0.8-0.3-1.4-1.1-1.4-2v-0.8c0-0.3-0.2-0.6-0.5-0.6l-0.8,0c-0.8,0-1.5-0.5-1.8-1.1l-0.3-0.5c-0.4-0.8-0.2-1.7,0.4-2.4
			l0.6-0.6c0.2-0.2,0.2-0.6,0-0.8L3.9,11c-0.5-0.6-0.7-1.3-0.5-2.1l0.2-0.6c0.3-0.8,1.1-1.4,2-1.4h0.8c0,0,0,0,0,0
			c0.3,0,0.5-0.2,0.6-0.5l0-0.8c0-0.8,0.5-1.5,1.1-1.8l0.6-0.3c0.8-0.4,1.7-0.2,2.4,0.4l0.6,0.6c0.2,0.2,0.6,0.2,0.8,0L13,3.9
			c0.6-0.5,1.3-0.7,2.1-0.5l0.6,0.2c0.8,0.3,1.4,1.1,1.4,2v0.8c0,0.3,0.2,0.6,0.5,0.6l0.8,0c0.8,0,1.5,0.5,1.8,1.1l0.3,0.5
			c0.4,0.8,0.2,1.7-0.4,2.4l-0.6,0.6c-0.2,0.2-0.2,0.6,0,0.8l0.6,0.6c0.5,0.5,0.7,1.3,0.5,2.1l-0.2,0.6c-0.3,0.8-1.1,1.4-2,1.4h-0.8
			h0c-0.3,0-0.6,0.2-0.6,0.5l0,0.8c0,0.8-0.5,1.5-1.1,1.8l-0.6,0.3C15.1,20.7,14.7,20.8,14.4,20.8z M12,17.9c0.5,0,1.1,0.2,1.5,0.6
			l0.6,0.6c0.2,0.2,0.4,0.2,0.6,0.1l0.6-0.3c0.2-0.1,0.3-0.3,0.3-0.5l0-0.8c0-1.1,0.9-2,2.1-2c0,0,0,0,0,0h0.8
			c0.2,0,0.5-0.2,0.5-0.4l0.2-0.6c0.1-0.2,0-0.4-0.1-0.6l-0.6-0.6c-0.8-0.8-0.8-2.1,0-2.9l0.6-0.6c0.2-0.2,0.2-0.4,0.1-0.6l-0.3-0.6
			c-0.1-0.2-0.3-0.3-0.5-0.3l-0.8,0c-1.1,0-2-0.9-2-2.1V5.6c0-0.2-0.2-0.5-0.4-0.5l-0.6-0.2c0,0,0,0,0,0c-0.2-0.1-0.4,0-0.6,0.1
			l-0.6,0.6c-0.8,0.8-2.1,0.8-2.9,0L10,4.9C9.8,4.7,9.5,4.7,9.3,4.8L8.8,5.1C8.6,5.2,8.5,5.4,8.5,5.6l0,0.8c0,1.1-0.9,2-2.1,2
			c0,0,0,0,0,0H5.6C5.3,8.4,5.1,8.6,5,8.8L4.8,9.4C4.8,9.6,4.8,9.8,5,10l0.6,0.6c0.8,0.8,0.8,2.1,0,2.9L4.9,14
			c-0.2,0.2-0.2,0.4-0.1,0.6l0.3,0.6c0.1,0.2,0.3,0.3,0.5,0.3l0.8,0c1.1,0,2,1,2,2.1v0.8c0,0.2,0.2,0.5,0.4,0.5l0.6,0.2
			c0.2,0.1,0.4,0,0.6-0.1l0.6-0.6C11,18.1,11.5,17.9,12,17.9z"/>
	</g>
</g>
<g id="Path_964">
	<path class="st1" d="M0,0h24v24H0V0z"/>
</g>
</svg>
