<?xml version="1.0" encoding="utf-8"?>
<!-- Generator: Adobe Illustrator 25.3.0, SVG Export Plug-In . SVG Version: 6.00 Build 0)  -->
<svg version="1.1" id="Arrange_-Filter_-Sort" xmlns="http://www.w3.org/2000/svg" xmlns:xlink="http://www.w3.org/1999/xlink"
	 x="0px" y="0px" viewBox="0 0 24 24" style="enable-background:new 0 0 24 24;" xml:space="preserve">
<style type="text/css">
	.st0{fill:#111111;}
	.st1{fill:none;}
</style>
<g id="Group_281">
	<g id="Path_166">
		<path class="st0" d="M10,8.8c-0.2,0-0.4-0.1-0.5-0.2L7,6.1L4.5,8.5c-0.3,0.3-0.8,0.3-1.1,0s-0.3-0.8,0-1.1l3-3
			c0.3-0.3,0.8-0.3,1.1,0l3,3c0.3,0.3,0.3,0.8,0,1.1C10.4,8.7,10.2,8.8,10,8.8z"/>
	</g>
	<g id="Path_167">
		<path class="st0" d="M7,19.8c-0.4,0-0.8-0.3-0.8-0.8V5c0-0.4,0.3-0.8,0.8-0.8S7.8,4.6,7.8,5v14C7.8,19.4,7.4,19.8,7,19.8z"/>
	</g>
	<g id="Path_168">
		<path class="st0" d="M17,19.8c-0.2,0-0.4-0.1-0.5-0.2l-3-3c-0.3-0.3-0.3-0.8,0-1.1s0.8-0.3,1.1,0l2.5,2.5l2.5-2.5
			c0.3-0.3,0.8-0.3,1.1,0s0.3,0.8,0,1.1l-3,3C17.4,19.7,17.2,19.8,17,19.8z"/>
	</g>
	<g id="Path_169">
		<path class="st0" d="M17,19.8c-0.4,0-0.8-0.3-0.8-0.8V5c0-0.4,0.3-0.8,0.8-0.8s0.8,0.3,0.8,0.8v14C17.8,19.4,17.4,19.8,17,19.8z"
			/>
	</g>
</g>
<path id="Path_170" class="st1" d="M0,0h24v24H0V0z"/>
</svg>
