<?xml version="1.0" encoding="utf-8"?>
<!-- Generator: Adobe Illustrator 25.3.0, SVG Export Plug-In . SVG Version: 6.00 Build 0)  -->
<svg version="1.1" id="sort-ascending" xmlns="http://www.w3.org/2000/svg" xmlns:xlink="http://www.w3.org/1999/xlink" x="0px"
	 y="0px" viewBox="0 0 24 24" style="enable-background:new 0 0 24 24;" xml:space="preserve">
<style type="text/css">
	.st0{fill:#111111;}
	.st1{fill:none;}
</style>
<g id="Group_375" transform="translate(3.5 4)">
	<g id="Path_483">
		<path class="st0" d="M2.5,17.8c-0.4,0-0.8-0.3-0.8-0.8V0c0-0.4,0.3-0.8,0.8-0.8S3.2-0.4,3.2,0v17C3.2,17.4,2.9,17.8,2.5,17.8z"/>
	</g>
	<g id="Path_484">
		<path class="st0" d="M17.5,0.8h-9C8.1,0.8,7.8,0.4,7.8,0s0.3-0.8,0.8-0.8h9c0.4,0,0.8,0.3,0.8,0.8S17.9,0.8,17.5,0.8z"/>
	</g>
	<g id="Path_485">
		<path class="st0" d="M15.5,4.8h-7C8.1,4.8,7.8,4.4,7.8,4s0.3-0.8,0.8-0.8h7c0.4,0,0.8,0.3,0.8,0.8S15.9,4.8,15.5,4.8z"/>
	</g>
	<g id="Path_486">
		<path class="st0" d="M13.5,8.8h-5C8.1,8.8,7.8,8.4,7.8,8s0.3-0.8,0.8-0.8h5c0.4,0,0.8,0.3,0.8,0.8S13.9,8.8,13.5,8.8z"/>
	</g>
	<g id="Path_487">
		<path class="st0" d="M12.1,12.8H8.5c-0.4,0-0.8-0.3-0.8-0.8s0.3-0.8,0.8-0.8h3.6c0.4,0,0.8,0.3,0.8,0.8S12.5,12.8,12.1,12.8z"/>
	</g>
	<g id="Path_488">
		<path class="st0" d="M2.5,17.8c-0.2,0-0.4-0.1-0.5-0.2L-0.5,15c-0.3-0.3-0.3-0.8,0-1.1s0.8-0.3,1.1,0L3,16.5
			c0.3,0.3,0.3,0.8,0,1.1C2.9,17.7,2.7,17.8,2.5,17.8z"/>
	</g>
	<g id="Path_489">
		<path class="st0" d="M2.5,17.8c-0.2,0-0.4-0.1-0.5-0.2c-0.3-0.3-0.3-0.8,0-1.1L4.5,14c0.3-0.3,0.8-0.3,1.1,0s0.3,0.8,0,1.1L3,17.5
			C2.9,17.7,2.7,17.8,2.5,17.8z"/>
	</g>
</g>
<g id="Path_490">
	<path class="st1" d="M24,0H0v24h24V0z"/>
</g>
</svg>
