<?xml version="1.0" encoding="utf-8"?>
<!-- Generator: Adobe Illustrator 25.3.0, SVG Export Plug-In . SVG Version: 6.00 Build 0)  -->
<svg version="1.1" id="sort-decending" xmlns="http://www.w3.org/2000/svg" xmlns:xlink="http://www.w3.org/1999/xlink" x="0px"
	 y="0px" viewBox="0 0 24 24" style="enable-background:new 0 0 24 24;" xml:space="preserve">
<style type="text/css">
	.st0{fill:#111111;}
	.st1{fill:none;}
</style>
<g id="Group_374" transform="translate(3.5 3)">
	<g id="Path_476">
		<path class="st0" d="M2.5,17.8c-0.4,0-0.8-0.3-0.8-0.8V0c0-0.4,0.3-0.8,0.8-0.8S3.2-0.4,3.2,0v17C3.2,17.4,2.9,17.8,2.5,17.8z"/>
	</g>
	<g id="Path_477">
		<path class="st0" d="M17.5,17.8h-9c-0.4,0-0.8-0.3-0.8-0.8s0.3-0.8,0.8-0.8h9c0.4,0,0.8,0.3,0.8,0.8S17.9,17.8,17.5,17.8z"/>
	</g>
	<g id="Path_478">
		<path class="st0" d="M15.5,13.8h-7c-0.4,0-0.8-0.3-0.8-0.8s0.3-0.8,0.8-0.8h7c0.4,0,0.8,0.3,0.8,0.8S15.9,13.8,15.5,13.8z"/>
	</g>
	<g id="Path_479">
		<path class="st0" d="M13.5,9.8h-5C8.1,9.8,7.8,9.4,7.8,9s0.3-0.8,0.8-0.8h5c0.4,0,0.8,0.3,0.8,0.8S13.9,9.8,13.5,9.8z"/>
	</g>
	<g id="Path_480">
		<path class="st0" d="M12.1,5.8H8.5C8.1,5.8,7.8,5.4,7.8,5s0.3-0.8,0.8-0.8h3.6c0.4,0,0.8,0.3,0.8,0.8S12.5,5.8,12.1,5.8z"/>
	</g>
	<g id="Path_481">
		<path class="st0" d="M5,3.2C4.8,3.2,4.6,3.2,4.5,3l-2-2l-2,2C0.2,3.3-0.2,3.3-0.5,3s-0.3-0.8,0-1.1L2-0.5c0.3-0.3,0.8-0.3,1.1,0
			L5.5,2c0.3,0.3,0.3,0.8,0,1.1C5.4,3.2,5.2,3.2,5,3.2z"/>
	</g>
</g>
<g id="Path_482">
	<path class="st1" d="M24,0H0v24h24V0z"/>
</g>
</svg>
