<?xml version="1.0" encoding="utf-8"?>
<!-- Generator: Adobe Illustrator 25.3.0, SVG Export Plug-In . SVG Version: 6.00 Build 0)  -->
<svg version="1.1" id="star-favorite" xmlns="http://www.w3.org/2000/svg" xmlns:xlink="http://www.w3.org/1999/xlink" x="0px"
	 y="0px" viewBox="0 0 24 24" style="enable-background:new 0 0 24 24;" xml:space="preserve">
<style type="text/css">
	.st0{fill:none;}
	.st1{fill:#111111;}
</style>
<g id="Group_1127">
	<g id="Path_2057">
		<path class="st0" d="M0,0h24v24H0V0z"/>
	</g>
	<g id="Path_2058">
		<path class="st1" d="M17,21.8c-0.4,0-0.7-0.1-1-0.3l-3.9-2l-3.9,2c-1.1,0.6-2.5,0.1-3-1c-0.2-0.4-0.3-0.9-0.2-1.4l0.7-4.2l-3.1-3
			C1.5,11,1.5,9.6,2.4,8.7C2.7,8.3,3.2,8.1,3.7,8L8,7.4l2-3.9c0.6-1.1,1.9-1.6,3-1c0.4,0.2,0.8,0.6,1,1l2,3.9L20.3,8
			c0.6,0.1,1.1,0.4,1.5,0.9c0.4,0.5,0.5,1.1,0.4,1.7c-0.1,0.5-0.3,1-0.7,1.3l-3.1,3l0.7,4.2c0.2,1.2-0.6,2.4-1.8,2.6
			C17.2,21.7,17.1,21.8,17,21.8z M12,17.9c0.1,0,0.2,0,0.3,0.1l4.3,2.2c0.1,0.1,0.3,0.1,0.5,0.1c0.4-0.1,0.7-0.5,0.6-0.9l-0.8-4.6
			c0-0.2,0-0.5,0.2-0.7l3.4-3.3c0.1-0.1,0.2-0.3,0.2-0.4c0-0.2,0-0.4-0.1-0.6c-0.1-0.2-0.3-0.3-0.5-0.3l-4.7-0.7
			c-0.2,0-0.5-0.2-0.6-0.4l-2.1-4.3c-0.1-0.1-0.2-0.3-0.3-0.3c-0.4-0.2-0.8,0-1,0.3L9.2,8.4C9.1,8.6,8.9,8.8,8.6,8.8L3.9,9.5
			c-0.2,0-0.3,0.1-0.4,0.2c-0.3,0.3-0.3,0.8,0,1.1l3.4,3.3c0.2,0.2,0.3,0.4,0.2,0.7l-0.8,4.6c0,0.2,0,0.3,0.1,0.5
			c0.2,0.4,0.6,0.5,1,0.3c0,0,0,0,0,0l4.3-2.2C11.8,17.9,11.9,17.9,12,17.9z"/>
	</g>
</g>
</svg>
