<?xml version="1.0" encoding="utf-8"?>
<!-- Generator: Adobe Illustrator 25.3.0, SVG Export Plug-In . SVG Version: 6.00 Build 0)  -->
<svg version="1.1" id="suitcase-portfolio" xmlns="http://www.w3.org/2000/svg" xmlns:xlink="http://www.w3.org/1999/xlink" x="0px"
	 y="0px" viewBox="0 0 24 24" style="enable-background:new 0 0 24 24;" xml:space="preserve">
<style type="text/css">
	.st0{fill:none;}
	.st1{fill:#111111;}
</style>
<g id="Group_234">
	<g id="Path_103">
		<path class="st0" d="M0,0h24v24H0V0z"/>
	</g>
	<g id="Path_104">
		<path class="st1" d="M19,21.8H5c-1.5,0-2.8-1.2-2.8-2.8v-9c0-1.5,1.2-2.8,2.8-2.8h14c1.5,0,2.8,1.2,2.8,2.8v9
			C21.8,20.5,20.5,21.8,19,21.8z M5,8.8c-0.7,0-1.2,0.6-1.2,1.2v9c0,0.7,0.6,1.2,1.2,1.2h14c0.7,0,1.2-0.6,1.2-1.2v-9
			c0-0.7-0.6-1.2-1.2-1.2H5z"/>
	</g>
	<g id="Path_105">
		<path class="st1" d="M16,21.8c-0.4,0-0.8-0.3-0.8-0.8V6c0-0.7-0.6-1.2-1.2-1.2h-4C9.3,4.8,8.8,5.3,8.8,6v15c0,0.4-0.3,0.8-0.8,0.8
			S7.2,21.4,7.2,21V6c0-1.5,1.2-2.8,2.8-2.8h4c1.5,0,2.8,1.2,2.8,2.8v15C16.8,21.4,16.4,21.8,16,21.8z"/>
	</g>
</g>
</svg>
