<?xml version="1.0" encoding="utf-8"?>
<!-- Generator: Adobe Illustrator 25.3.0, SVG Export Plug-In . SVG Version: 6.00 Build 0)  -->
<svg version="1.1" id="timer-pause-clock" xmlns="http://www.w3.org/2000/svg" xmlns:xlink="http://www.w3.org/1999/xlink" x="0px"
	 y="0px" viewBox="0 0 24 24" style="enable-background:new 0 0 24 24;" xml:space="preserve">
<style type="text/css">
	.st0{fill:#111111;}
	.st1{fill:none;}
</style>
<g id="Group_259">
	<g id="Ellipse_15">
		<path class="st0" d="M11.5,22.2c-4.8,0-8.8-3.9-8.8-8.8c0-4.8,3.9-8.8,8.8-8.8c4.8,0,8.8,3.9,8.8,8.8
			C20.2,18.3,16.3,22.2,11.5,22.2z M11.5,6.2c-4,0-7.2,3.3-7.2,7.2c0,4,3.3,7.2,7.2,7.2c4,0,7.2-3.3,7.2-7.2
			C18.8,9.5,15.5,6.2,11.5,6.2z"/>
	</g>
	<g id="Path_123">
		<path class="st0" d="M13.5,3.2h-4c-0.4,0-0.8-0.3-0.8-0.8s0.3-0.8,0.8-0.8h4c0.4,0,0.8,0.3,0.8,0.8S13.9,3.2,13.5,3.2z"/>
	</g>
	<g id="Path_124">
		<path class="st0" d="M20.5,7.2c-0.2,0-0.4-0.1-0.5-0.2l-2-2c-0.1-0.1-0.2-0.3-0.2-0.5S17.8,4.1,18,4c0.3-0.3,0.8-0.3,1.1,0l2,2
			c0.3,0.3,0.3,0.8,0,1.1C20.9,7.2,20.7,7.2,20.5,7.2z"/>
	</g>
	<g id="Path_125">
		<path class="st0" d="M13.3,16.2c-0.4,0-0.8-0.3-0.8-0.8v-4c0-0.4,0.3-0.8,0.8-0.8s0.8,0.3,0.8,0.8v4C14,15.9,13.7,16.2,13.3,16.2z
			"/>
	</g>
	<g id="Path_126">
		<path class="st0" d="M9.7,16.2c-0.4,0-0.8-0.3-0.8-0.8v-4c0-0.4,0.3-0.8,0.8-0.8s0.8,0.3,0.8,0.8v4C10.5,15.9,10.1,16.2,9.7,16.2z
			"/>
	</g>
	<g id="Path_127">
		<path class="st0" d="M17.2,8.6c-0.2,0-0.4-0.1-0.5-0.2c-0.3-0.3-0.3-0.8,0-1.1L19,5c0.3-0.3,0.8-0.3,1.1,0s0.3,0.8,0,1.1l-2.3,2.3
			C17.5,8.5,17.4,8.6,17.2,8.6z"/>
	</g>
</g>
<g id="Path_128">
	<path class="st1" d="M0,0h24v24H0V0z"/>
</g>
</svg>
