<?xml version="1.0" encoding="utf-8"?>
<!-- Generator: Adobe Illustrator 25.3.0, SVG Export Plug-In . SVG Version: 6.00 Build 0)  -->
<svg version="1.1" id="trash-delete-bin" xmlns="http://www.w3.org/2000/svg" xmlns:xlink="http://www.w3.org/1999/xlink" x="0px"
	 y="0px" viewBox="0 0 24 24" style="enable-background:new 0 0 24 24;" xml:space="preserve">
<style type="text/css">
	.st0{fill:#111111;}
	.st1{fill:none;}
</style>
<g id="Path_378">
	<path class="st0" d="M16,21.8H8c-1.5,0-2.8-1.2-2.8-2.8V9c0-0.4,0.3-0.8,0.8-0.8S6.8,8.6,6.8,9v10c0,0.7,0.6,1.2,1.2,1.2h8
		c0.7,0,1.2-0.6,1.2-1.2V9c0-0.4,0.3-0.8,0.8-0.8s0.8,0.3,0.8,0.8v10C18.8,20.5,17.5,21.8,16,21.8z M14,17.8c-0.4,0-0.8-0.3-0.8-0.8
		v-7c0-0.4,0.3-0.8,0.8-0.8s0.8,0.3,0.8,0.8v7C14.8,17.4,14.4,17.8,14,17.8z M10,17.8c-0.4,0-0.8-0.3-0.8-0.8v-7
		c0-0.4,0.3-0.8,0.8-0.8s0.8,0.3,0.8,0.8v7C10.8,17.4,10.4,17.8,10,17.8z M16,6.8C16,6.8,16,6.8,16,6.8H8c0,0,0,0,0,0H4.5
		C4.1,6.8,3.8,6.4,3.8,6s0.3-0.8,0.8-0.8h3l0.4-1.1C8.2,3,9.3,2.2,10.4,2.2h3.1c0,0,0,0,0,0c1.2,0,2.2,0.8,2.6,1.9l0.4,1.1h3
		c0.4,0,0.8,0.3,0.8,0.8s-0.3,0.8-0.8,0.8H16C16,6.8,16,6.8,16,6.8z M9,5.2H15l-0.2-0.6c-0.2-0.5-0.6-0.9-1.2-0.9h0h-3.1
		c-0.5,0-1,0.3-1.2,0.9L9,5.2z"/>
</g>
<g id="Path_379">
	<path class="st1" d="M0,0h24v24H0V0z"/>
</g>
</svg>
