<?xml version="1.0" encoding="utf-8"?>
<!-- Generator: Adobe Illustrator 25.3.0, SVG Export Plug-In . SVG Version: 6.00 Build 0)  -->
<svg version="1.1" id="file-blank-tree-connect" xmlns="http://www.w3.org/2000/svg" xmlns:xlink="http://www.w3.org/1999/xlink"
	 x="0px" y="0px" viewBox="0 0 24 24" style="enable-background:new 0 0 24 24;" xml:space="preserve">
<style type="text/css">
	.st0{fill:none;}
	.st1{fill:#111111;}
</style>
<g id="Path_1187">
	<path class="st0" d="M0,0h24v24H0V0z"/>
</g>
<g id="Path_1188">
	<path class="st1" d="M9,7.8H4C3.6,7.8,3.2,7.4,3.2,7S3.6,6.2,4,6.2h5c0.4,0,0.8,0.3,0.8,0.8S9.4,7.8,9,7.8z"/>
</g>
<g id="Path_1189">
	<path class="st1" d="M9,18.8H6c-1.5,0-2.8-1.2-2.8-2.8V3c0-0.4,0.3-0.8,0.8-0.8S4.8,2.6,4.8,3v13c0,0.7,0.6,1.2,1.2,1.2h3
		c0.4,0,0.8,0.3,0.8,0.8S9.4,18.8,9,18.8z"/>
</g>
<g id="Path_1190">
	<path class="st1" d="M18.5,10.8h-4c-1.2,0-2.2-1-2.2-2.2V4.7c0-0.6,0.2-1.2,0.7-1.6l1.2-1.2c0.4-0.4,1-0.7,1.6-0.7h2.8
		c1.2,0,2.2,1,2.2,2.2v5C20.8,9.7,19.7,10.8,18.5,10.8z M15.7,2.8c-0.2,0-0.4,0.1-0.5,0.2L14,4.1v0c-0.1,0.1-0.2,0.3-0.2,0.5v3.8
		c0,0.4,0.3,0.8,0.8,0.8h4c0.4,0,0.8-0.3,0.8-0.8v-5c0-0.4-0.3-0.8-0.8-0.8H15.7z M13.4,3.6L13.4,3.6L13.4,3.6z"/>
</g>
<g id="Path_1191">
	<path class="st1" d="M18.5,21.8h-4c-1.2,0-2.2-1-2.2-2.2v-3.8c0-0.6,0.2-1.2,0.7-1.6l1.2-1.2c0.4-0.4,1-0.7,1.6-0.7h2.8
		c1.2,0,2.2,1,2.2,2.2v5C20.8,20.7,19.7,21.8,18.5,21.8z M15.7,13.8c-0.2,0-0.4,0.1-0.5,0.2L14,15.1c0,0,0,0,0,0
		c-0.1,0.1-0.2,0.3-0.2,0.5v3.8c0,0.4,0.3,0.8,0.8,0.8h4c0.4,0,0.8-0.3,0.8-0.8v-5c0-0.4-0.3-0.8-0.8-0.8H15.7z M13.4,14.6
		L13.4,14.6L13.4,14.6z"/>
</g>
</svg>
