<?xml version="1.0" encoding="utf-8"?>
<!-- Generator: Adobe Illustrator 25.3.0, SVG Export Plug-In . SVG Version: 6.00 Build 0)  -->
<svg version="1.1" id="Group_User" xmlns="http://www.w3.org/2000/svg" xmlns:xlink="http://www.w3.org/1999/xlink" x="0px" y="0px"
	 viewBox="0 0 24 24" style="enable-background:new 0 0 24 24;" xml:space="preserve">
<style type="text/css">
	.st0{fill:#111111;}
	.st1{fill:none;}
</style>
<g id="Group_966">
	<g id="Path_1193">
		<path class="st0" d="M19.4,13.8c-0.7,0-1.4-0.3-1.9-0.8c-1.1-1.1-1.1-2.8-0.1-3.9C18.5,8,20.2,7.9,21.3,9l0,0
			c1.1,1.1,1.1,2.8,0.1,3.9C20.9,13.5,20.1,13.8,19.4,13.8z M19.4,9.7c-0.3,0-0.7,0.1-0.9,0.4c-0.5,0.5-0.5,1.3,0,1.8
			c0.5,0.5,1.3,0.5,1.8,0c0.5-0.5,0.5-1.3,0-1.8l0,0C20,9.8,19.7,9.7,19.4,9.7z"/>
	</g>
	<g id="Path_1194">
		<path class="st0" d="M12,12c-1,0-2-0.4-2.7-1.1c-1.5-1.5-1.5-4,0-5.5c1.5-1.5,4-1.5,5.5,0l0,0c1.5,1.5,1.5,4,0,5.5
			C14,11.6,13,12,12,12z M12,5.8c-0.6,0-1.2,0.2-1.7,0.7c-0.9,0.9-0.9,2.4,0,3.3c0.9,0.9,2.4,0.9,3.3,0c0.9-0.9,0.9-2.4,0-3.3
			C13.2,6,12.6,5.8,12,5.8z"/>
	</g>
	<g id="Path_1195">
		<path class="st0" d="M4.7,13.8c-0.7,0-1.4-0.3-1.9-0.8c-0.5-0.5-0.8-1.2-0.9-1.9c0-0.7,0.3-1.4,0.8-2C3.8,8,5.5,7.9,6.6,9
			c0.5,0.5,0.8,1.2,0.9,1.9c0,0.7-0.3,1.4-0.8,2C6.1,13.5,5.4,13.8,4.7,13.8z M4.7,9.7c-0.3,0-0.6,0.1-0.9,0.4
			c-0.3,0.3-0.4,0.6-0.4,0.9c0,0.3,0.1,0.7,0.4,0.9c0.5,0.5,1.3,0.5,1.8,0C5.8,11.6,6,11.3,5.9,11c0-0.3-0.1-0.7-0.4-0.9
			c0,0,0,0,0,0C5.3,9.8,5,9.7,4.7,9.7z"/>
	</g>
	<g id="Path_1196">
		<path class="st0" d="M23,19.8c-0.4,0-0.8-0.3-0.8-0.8v-1.1c0-1-0.8-1.8-1.8-1.8h-0.8c-0.4,0-0.8-0.3-0.8-0.8s0.3-0.8,0.8-0.8h0.8
			c1.8,0,3.2,1.5,3.2,3.2V19C23.8,19.4,23.4,19.8,23,19.8z"/>
	</g>
	<g id="Path_1197">
		<path class="st0" d="M1,19.8c-0.4,0-0.8-0.3-0.8-0.8v-1.1c0-1.8,1.5-3.2,3.2-3.2h0.8C4.7,14.7,5,15,5,15.4s-0.3,0.8-0.8,0.8H3.5
			c-1,0-1.8,0.8-1.8,1.8V19C1.8,19.4,1.4,19.8,1,19.8z"/>
	</g>
	<g id="Path_1198">
		<path class="st0" d="M17.3,19.8c-0.4,0-0.8-0.3-0.8-0.8v-1.6c0-1.5-1.2-2.8-2.8-2.8h-3.7c-1.5,0-2.8,1.2-2.8,2.8V19
			c0,0.4-0.3,0.8-0.8,0.8S5.9,19.4,5.9,19v-1.6c0-2.3,1.9-4.2,4.2-4.2h3.7c2.3,0,4.2,1.9,4.2,4.2V19C18.1,19.4,17.8,19.8,17.3,19.8z
			"/>
	</g>
</g>
<g id="Path_1199">
	<path class="st1" d="M0,0h24v24H0V0z"/>
</g>
</svg>
