<?xml version="1.0" encoding="utf-8"?>
<!-- Generator: Adobe Illustrator 25.3.0, SVG Export Plug-In . SVG Version: 6.00 Build 0)  -->
<svg version="1.1" id="user-profile" xmlns="http://www.w3.org/2000/svg" xmlns:xlink="http://www.w3.org/1999/xlink" x="0px"
	 y="0px" viewBox="0 0 24 24" style="enable-background:new 0 0 24 24;" xml:space="preserve">
<style type="text/css">
	.st0{fill:#111111;}
	.st1{fill:none;}
</style>
<g id="Path_78">
	<path class="st0" d="M19,21.8H5c-1,0-1.8-0.8-1.8-1.8v-1c0-2.6,2.1-4.7,4.7-4.8h8c2.6,0,4.7,2.1,4.8,4.7v1C20.8,21,20,21.8,19,21.8
		z M8,15.8c-1.8,0-3.2,1.5-3.2,3.3v1c0,0.1,0.1,0.2,0.2,0.2h14c0.1,0,0.2-0.1,0.2-0.2v-1c0-1.8-1.5-3.2-3.3-3.2H8z M12,12.8
		c-2.9,0-5.2-2.3-5.2-5.2c0-2.9,2.3-5.3,5.2-5.3c0,0,0,0,0,0c2.9,0,5.2,2.3,5.3,5.2c0,1.4-0.5,2.7-1.5,3.7
		C14.7,12.2,13.4,12.7,12,12.8C12,12.8,12,12.8,12,12.8C12,12.8,12,12.8,12,12.8z M12,3.8C12,3.8,12,3.8,12,3.8
		c-2.1,0-3.8,1.7-3.8,3.8c0,2.1,1.7,3.7,3.8,3.7c0,0,0,0,0,0h0c1,0,1.9-0.4,2.6-1.1c0.7-0.7,1.1-1.7,1.1-2.7C15.7,5.4,14,3.8,12,3.8
		z"/>
</g>
<g id="Path_79">
	<path class="st1" d="M0,0h24v24H0V0z"/>
</g>
</svg>
