<?xml version="1.0" encoding="utf-8"?>
<!-- Generator: Adobe Illustrator 25.3.0, SVG Export Plug-In . SVG Version: 6.00 Build 0)  -->
<svg version="1.1" id="User_Profile" xmlns="http://www.w3.org/2000/svg" xmlns:xlink="http://www.w3.org/1999/xlink" x="0px"
	 y="0px" viewBox="0 0 24 24" style="enable-background:new 0 0 24 24;" xml:space="preserve">
<style type="text/css">
	.st0{fill:#111111;}
	.st1{fill:none;}
</style>
<g id="Group_338">
	<g id="Path_392">
		<path class="st0" d="M21,7.8h-4c-0.4,0-0.8-0.3-0.8-0.8s0.3-0.8,0.8-0.8h4c0.4,0,0.8,0.3,0.8,0.8S21.4,7.8,21,7.8z"/>
	</g>
	<g id="Path_393">
		<path class="st0" d="M19,9.8c-0.4,0-0.8-0.3-0.8-0.8V5c0-0.4,0.3-0.8,0.8-0.8s0.8,0.3,0.8,0.8v4C19.8,9.4,19.4,9.8,19,9.8z"/>
	</g>
	<g id="Path_394">
		<path class="st0" d="M15,21.8H3c-1,0-1.8-0.8-1.8-1.8v-1c0-3.6,3.9-5.7,7.8-5.7s7.8,2.1,7.8,5.7c0,0,0,0,0,0s0,0,0,0v1
			C16.8,21,16,21.8,15,21.8z M9,14.7c-3,0-6.2,1.6-6.2,4.2v1c0,0.1,0.1,0.2,0.2,0.2h12c0.1,0,0.2-0.1,0.2-0.2v-1c0,0,0,0,0,0
			s0,0,0,0C15.2,16.4,12,14.7,9,14.7z"/>
	</g>
	<g id="Path_395">
		<path class="st0" d="M9,11.7c-1.1,0-2.2-0.4-3-1.2c-1.7-1.7-1.7-4.3,0-6c1.7-1.7,4.3-1.7,6,0l0,0c1.7,1.7,1.7,4.3,0,6
			C11.2,11.3,10.1,11.7,9,11.7z M9,4.8C8.3,4.8,7.6,5,7.1,5.6C6,6.6,6,8.4,7.1,9.4c0.5,0.5,1.2,0.8,1.9,0.8h0c0.7,0,1.4-0.3,1.9-0.8
			c1.1-1.1,1.1-2.8,0-3.9C10.4,5,9.7,4.8,9,4.8z"/>
	</g>
</g>
<g id="Path_396">
	<path class="st1" d="M0,0h24v24H0V0z"/>
</g>
</svg>
