<?xml version="1.0" encoding="utf-8"?>
<!-- Generator: Adobe Illustrator 25.3.0, SVG Export Plug-In . SVG Version: 6.00 Build 0)  -->
<svg version="1.1" id="Layer_1" xmlns="http://www.w3.org/2000/svg" xmlns:xlink="http://www.w3.org/1999/xlink" x="0px" y="0px"
	 viewBox="0 0 24 24" style="enable-background:new 0 0 24 24;" xml:space="preserve">
<style type="text/css">
	.st0{fill:none;}
	.st1{fill:#111111;}
</style>
<g id="Group_853" transform="translate(-435 -999)">
	<g id="grid-layout" transform="translate(435 999)">
		<g id="Group_221">
			<g id="Path_66">
				<path class="st0" d="M0,0h24v24H0V0z"/>
			</g>
			<g id="Path_67">
				<path class="st1" d="M7.8,10.5H5c-1.5,0-2.8-1.2-2.8-2.8V5c0-1.5,1.2-2.8,2.8-2.8h2.8c1.5,0,2.8,1.2,2.8,2.8v2.8
					C10.5,9.3,9.3,10.5,7.8,10.5z M5,3.8C4.3,3.8,3.8,4.3,3.8,5v2.8C3.8,8.4,4.3,9,5,9h2.8C8.4,9,9,8.4,9,7.8V5
					c0-0.7-0.6-1.2-1.2-1.2H5z"/>
			</g>
			<g id="Path_68">
				<path class="st1" d="M19,10.5h-2.8c-1.5,0-2.8-1.2-2.8-2.8V5c0-1.5,1.2-2.8,2.8-2.8H19c1.5,0,2.8,1.2,2.8,2.8v2.8
					C21.8,9.3,20.5,10.5,19,10.5z M16.2,3.8C15.6,3.8,15,4.3,15,5v2.8C15,8.4,15.6,9,16.2,9H19c0.7,0,1.2-0.6,1.2-1.2V5
					c0-0.7-0.6-1.2-1.2-1.2H16.2z"/>
			</g>
			<g id="Path_69">
				<path class="st1" d="M7.8,21.8H5c-1.5,0-2.8-1.2-2.8-2.8v-2.8c0-1.5,1.2-2.8,2.8-2.8h2.8c1.5,0,2.8,1.2,2.8,2.8V19
					C10.5,20.5,9.3,21.8,7.8,21.8z M5,15c-0.7,0-1.2,0.6-1.2,1.2V19c0,0.7,0.6,1.2,1.2,1.2h2.8C8.4,20.2,9,19.7,9,19v-2.8
					C9,15.6,8.4,15,7.8,15H5z"/>
			</g>
			<g id="Path_70">
				<path class="st1" d="M19,21.8h-2.8c-1.5,0-2.8-1.2-2.8-2.8v-2.8c0-1.5,1.2-2.8,2.8-2.8H19c1.5,0,2.8,1.2,2.8,2.8V19
					C21.8,20.5,20.5,21.8,19,21.8z M16.2,15c-0.7,0-1.2,0.6-1.2,1.2V19c0,0.7,0.6,1.2,1.2,1.2H19c0.7,0,1.2-0.6,1.2-1.2v-2.8
					c0-0.7-0.6-1.2-1.2-1.2H16.2z"/>
			</g>
		</g>
	</g>
</g>
</svg>
