<svg id="facebook_icon-circle" xmlns="http://www.w3.org/2000/svg" width="32" height="32" viewBox="0 0 32 32">
  <path id="Path_1360" data-name="Path 1360" d="M16,0A16,16,0,1,0,32,16,16,16,0,0,0,16,0Z" fill="#151b26"/>
  <path id="Path_1361" data-name="Path 1361" d="M19.269,13.291l-.184,2.394H16.63V24h-3.1V15.685H11.875V13.291h1.654V11.683A4.29,4.29,0,0,1,14.062,9.2,2.941,2.941,0,0,1,16.63,8a10.393,10.393,0,0,1,2.965.3l-.413,2.451a5.571,5.571,0,0,0-1.333-.2c-.643,0-1.219.23-1.219.874v1.869Z" fill="#fff"/>
</svg>
