<svg id="instagram_icon-circle" xmlns="http://www.w3.org/2000/svg" width="32" height="32" viewBox="0 0 32 32">
  <path id="Path_1362" data-name="Path 1362" d="M0,16A16,16,0,1,1,16,32,16,16,0,0,1,0,16Z" fill="#151b26"/>
  <path id="Path_1363" data-name="Path 1363" d="M16,9.442c2.136,0,2.389.008,3.233.047,2.168.1,3.181,1.127,3.279,3.279.039.843.046,1.1.046,3.233s-.008,2.389-.046,3.233c-.1,2.15-1.109,3.181-3.279,3.279-.844.039-1.1.047-3.233.047s-2.389-.008-3.233-.047c-2.173-.1-3.181-1.133-3.279-3.28-.039-.843-.047-1.1-.047-3.233s.009-2.389.047-3.233c.1-2.151,1.109-3.181,3.279-3.279.844-.038,1.1-.046,3.233-.046ZM16,8c-2.173,0-2.445.009-3.3.048C9.8,8.181,8.182,9.793,8.049,12.7,8.009,13.555,8,13.827,8,16s.009,2.445.048,3.3c.133,2.905,1.745,4.52,4.653,4.653.854.039,1.126.048,3.3.048s2.445-.009,3.3-.048c2.9-.133,4.521-1.745,4.653-4.653.039-.853.049-1.126.049-3.3s-.009-2.445-.048-3.3c-.131-2.9-1.745-4.52-4.653-4.653C18.445,8.009,18.173,8,16,8Zm0,3.892A4.108,4.108,0,1,0,20.108,16,4.108,4.108,0,0,0,16,11.892Zm0,6.775A2.667,2.667,0,1,1,18.667,16,2.666,2.666,0,0,1,16,18.667Zm4.271-7.9a.96.96,0,1,0,.959.96A.96.96,0,0,0,20.271,10.77Z" fill="#fff"/>
</svg>
