<svg id="linkedin_icon-circle" xmlns="http://www.w3.org/2000/svg" width="32" height="32" viewBox="0 0 32 32">
  <path id="Path_1364" data-name="Path 1364" d="M16,0A16,16,0,1,0,32,16,16,16,0,0,0,16,0Z" fill="#151b26"/>
  <path id="Path_1365" data-name="Path 1365" d="M11.647,22.691H8.528V12.71h3.118ZM10.008,11.462H9.986A1.737,1.737,0,1,1,10.031,8a1.738,1.738,0,1,1-.022,3.462ZM24.125,22.691H20.589V17.526c0-1.352-.552-2.274-1.77-2.274a1.784,1.784,0,0,0-1.688,1.222,2.308,2.308,0,0,0-.077.816v5.4h-3.5s.045-9.149,0-9.981h3.5v1.566a3.2,3.2,0,0,1,3.114-1.662c2.216,0,3.957,1.435,3.957,4.526Z" fill="#fff"/>
</svg>
