<svg id="twitter_icon-circle" xmlns="http://www.w3.org/2000/svg" width="32" height="32" viewBox="0 0 32 32">
  <path id="Path_1366" data-name="Path 1366" d="M16,0A16,16,0,1,0,32,16,16,16,0,0,0,16,0Z" fill="#151b26"/>
  <path id="Path_1367" data-name="Path 1367" d="M23.262,13.243c.006.141.008.283.008.426a9.351,9.351,0,0,1-14.4,7.878,6.678,6.678,0,0,0,.784.045,6.587,6.587,0,0,0,4.083-1.408,3.287,3.287,0,0,1-3.07-2.283,3.273,3.273,0,0,0,.618.058,3.232,3.232,0,0,0,.867-.115,3.288,3.288,0,0,1-2.638-3.224v-.038a3.306,3.306,0,0,0,1.49.411A3.293,3.293,0,0,1,9.99,10.6a9.329,9.329,0,0,0,6.778,3.435,3.289,3.289,0,0,1,5.6-3,6.58,6.58,0,0,0,2.088-.8,3.3,3.3,0,0,1-1.445,1.819,6.562,6.562,0,0,0,1.888-.518A6.676,6.676,0,0,1,23.262,13.243Z" fill="#fff"/>
</svg>
