<svg id="youtube_icon-circle" xmlns="http://www.w3.org/2000/svg" width="32" height="32" viewBox="0 0 32 32">
  <path id="Path_1368" data-name="Path 1368" d="M0,16A16,16,0,1,0,16,0,16,16,0,0,0,0,16Z" fill="#151b26" fill-rule="evenodd"/>
  <path id="Path_1369" data-name="Path 1369" d="M15.995,10a52.656,52.656,0,0,0-6.7.349,2.216,2.216,0,0,0-1.514,1.525,22.943,22.943,0,0,0-.35,4.131,22.72,22.72,0,0,0,.35,4.12A2.182,2.182,0,0,0,9.29,21.64a51.2,51.2,0,0,0,6.7.36,52.8,52.8,0,0,0,6.715-.35,2.131,2.131,0,0,0,1.5-1.514,22.128,22.128,0,0,0,.36-4.12,21.443,21.443,0,0,0-.36-4.141,2.117,2.117,0,0,0-1.5-1.5A49.813,49.813,0,0,0,15.995,10ZM14.29,13.432l4.459,2.574L14.29,18.568V13.432Z" fill="#fff"/>
</svg>
