<svg xmlns="http://www.w3.org/2000/svg" width="22.174" height="22.214" viewBox="0 0 22.174 22.214">
  <g id="Group_709" data-name="Group 709" transform="translate(0 0)">
    <g id="Group_706" data-name="Group 706" transform="translate(0 5.584)">
      <path id="Path_803" data-name="Path 803" d="M395.168,109.07H383.386a5.2,5.2,0,0,1-5.2-5.2V97.636a5.2,5.2,0,0,1,5.2-5.2h11.782a5.2,5.2,0,0,1,5.2,5.2v6.238A5.2,5.2,0,0,1,395.168,109.07Zm-11.778-14.9a3.471,3.471,0,0,0-3.466,3.466v6.238a3.468,3.468,0,0,0,3.466,3.463h11.782a3.471,3.471,0,0,0,3.466-3.463V97.64a3.471,3.471,0,0,0-3.466-3.466Z" transform="translate(-378.19 -92.44)" fill="#fff"/>
    </g>
    <g id="Group_707" data-name="Group 707" transform="translate(6.981)">
      <path id="Path_804" data-name="Path 804" d="M404.438,81.185a.866.866,0,0,1-.865-.865,1.258,1.258,0,0,0-1.256-1.257h-2.251a1.258,1.258,0,0,0-1.257,1.257.865.865,0,1,1-1.729,0,2.994,2.994,0,0,1,2.99-2.99h2.251a2.994,2.994,0,0,1,2.99,2.99A.877.877,0,0,1,404.438,81.185Z" transform="translate(-397.08 -77.33)" fill="#fff"/>
    </g>
    <g id="Group_708" data-name="Group 708" transform="translate(6.97 8.869)">
      <path id="Path_805" data-name="Path 805" d="M397.922,101.33a.866.866,0,0,1,.865.865,1.258,1.258,0,0,0,1.257,1.257h2.251a1.258,1.258,0,0,0,1.256-1.257.865.865,0,1,1,1.73,0,2.994,2.994,0,0,1-2.99,2.99H400.04a2.994,2.994,0,0,1-2.99-2.99A.872.872,0,0,1,397.922,101.33Z" transform="translate(-397.05 -101.33)" fill="#fff"/>
    </g>
  </g>
</svg>
