<svg xmlns="http://www.w3.org/2000/svg" width="24.021" height="24.015" viewBox="0 0 24.021 24.015">
  <g id="Group_767" data-name="Group 767" transform="translate(0 0)">
    <path id="Path_884" data-name="Path 884" d="M399.009,501.062a.7.7,0,0,0,.7-.7v-2.816a.705.705,0,0,0-.432-.65L387.97,492.2a.717.717,0,0,0-.54,0l-11.309,4.693a.7.7,0,0,0-.432.65v2.816a.7.7,0,0,0,.7.7h1.22v7.975h-.233a.7.7,0,0,0-.7.7v2.11H376.4a.7.7,0,0,0-.7.7v2.908a.7.7,0,0,0,.7.7h22.613a.7.7,0,0,0,.7-.7v-2.908a.7.7,0,0,0-.7-.7h-.281v-2.11a.7.7,0,0,0-.7-.7h-.233v-7.975Zm-.7,12.2v1.5H377.1v-1.5Zm-16.937-2.816v1.408h-3.285v-1.408Zm-2.347-1.408v-7.975h1.408v7.975Zm3.049,0h-.233v-7.975h11.73v7.975h-.233a.7.7,0,0,0-.7.7v2.11h-9.852v-2.11A.713.713,0,0,0,382.072,509.037Zm15.248,1.408v1.408h-3.285v-1.408Zm-2.347-1.408v-7.975h1.408v7.975ZM377.1,499.654v-1.641l10.6-4.4,10.6,4.4v1.641Z" transform="translate(-375.69 -492.147)" fill="#fff"/>
    <path id="Path_885" data-name="Path 885" d="M404.017,504.85h-8.444a.7.7,0,1,0,0,1.4h8.444a.7.7,0,0,0,0-1.4Z" transform="translate(-387.782 -500.156)" fill="#fff"/>
    <path id="Path_886" data-name="Path 886" d="M404.6,525.383a.7.7,0,0,1-.7-.7.7.7,0,0,0-1.4,0,2.118,2.118,0,0,0,1.408,1.992v.355a.7.7,0,1,0,1.4,0v-.355a2.111,2.111,0,0,0-.7-4.1.7.7,0,1,1,.7-.7.7.7,0,1,0,1.4,0,2.118,2.118,0,0,0-1.408-1.992v-.355a.7.7,0,1,0-1.4,0v.355a2.111,2.111,0,0,0,.7,4.1.7.7,0,0,1,0,1.4Z" transform="translate(-392.586 -508.963)" fill="#fff"/>
  </g>
</svg>
