<svg xmlns="http://www.w3.org/2000/svg" width="22.174" height="22.174" viewBox="0 0 22.174 22.174">
  <g id="Group_761" data-name="Group 761" transform="translate(0 0)">
    <g id="Group_752" data-name="Group 752" transform="translate(3.367 3.394)">
      <g id="Group_751" data-name="Group 751" transform="translate(0 0)">
        <rect id="Rectangle_2705" data-name="Rectangle 2705" width="20.263" height="1.478" transform="translate(0 14.316) rotate(-44.951)" fill="#fff"/>
      </g>
    </g>
    <g id="Group_754" data-name="Group 754" transform="translate(3.367 3.397)">
      <g id="Group_753" data-name="Group 753" transform="translate(0 0)">
        <rect id="Rectangle_2706" data-name="Rectangle 2706" width="1.478" height="20.263" transform="translate(0 1.046) rotate(-45.049)" fill="#fff"/>
      </g>
    </g>
    <g id="Group_756" data-name="Group 756" transform="translate(10.63 10.809)">
      <g id="Group_755" data-name="Group 755">
        <path id="Path_876" data-name="Path 876" d="M805.115,526.633a9.3,9.3,0,0,0-2.676,7.705l1.467-.174a7.864,7.864,0,0,1,9.028-8.692l.233-1.46A9.345,9.345,0,0,0,805.115,526.633Z" transform="translate(-802.374 -523.898)" fill="#fff"/>
      </g>
    </g>
    <g id="Group_758" data-name="Group 758" transform="translate(0.743 0.909)">
      <g id="Group_757" data-name="Group 757">
        <path id="Path_877" data-name="Path 877" d="M785.591,497.11l-1.474.107a7.908,7.908,0,0,1-8.408,8.422l-.089,1.475c.207.011.414.018.617.018a9.2,9.2,0,0,0,6.626-2.746A9.337,9.337,0,0,0,785.591,497.11Z" transform="translate(-775.62 -497.11)" fill="#fff"/>
      </g>
    </g>
    <g id="Group_760" data-name="Group 760">
      <g id="Group_759" data-name="Group 759">
        <path id="Path_878" data-name="Path 878" d="M784.7,494.65a11.087,11.087,0,1,0,11.087,11.087A11.1,11.1,0,0,0,784.7,494.65Zm0,20.7a9.609,9.609,0,1,1,9.609-9.609A9.618,9.618,0,0,1,784.7,515.345Z" transform="translate(-773.61 -494.65)" fill="#fff"/>
      </g>
    </g>
  </g>
</svg>
