<svg xmlns="http://www.w3.org/2000/svg" width="17.066" height="22.17" viewBox="0 0 17.066 22.17">
  <g id="Group_725" data-name="Group 725" transform="translate(0 0)">
    <g id="Group_723" data-name="Group 723" transform="translate(0 13.422)">
      <path id="Path_831" data-name="Path 831" d="M796.724,267.638a.866.866,0,0,1-.865-.865,6.154,6.154,0,0,0-6.149-6.149h-1.3a6.154,6.154,0,0,0-6.149,6.15.865.865,0,1,1-1.73,0,7.892,7.892,0,0,1,7.883-7.883h1.3a7.892,7.892,0,0,1,7.883,7.883A.874.874,0,0,1,796.724,267.638Z" transform="translate(-780.53 -258.89)" fill="#fff"/>
    </g>
    <g id="Group_724" data-name="Group 724" transform="translate(2.594)">
      <path id="Path_832" data-name="Path 832" d="M793.4,234.263a5.846,5.846,0,1,1,5.846-5.846A5.855,5.855,0,0,1,793.4,234.263Zm0-9.963a4.113,4.113,0,1,0,4.113,4.113A4.117,4.117,0,0,0,793.4,224.3Z" transform="translate(-787.55 -222.57)" fill="#fff"/>
    </g>
  </g>
</svg>
