<svg xmlns="http://www.w3.org/2000/svg" width="22.173" height="22.173" viewBox="0 0 22.173 22.173">
  <path id="Path_880" data-name="Path 880" d="M652.887,494.65a11.087,11.087,0,1,0,11.087,11.087A11.088,11.088,0,0,0,652.887,494.65Zm.4,3.2,3.855-1.541a10.471,10.471,0,0,1,1.268.684l.089.055a8.8,8.8,0,0,1,1.064.787l.03.026c.163.137.318.281.473.429.018.018.041.037.059.055.159.155.314.318.466.484.011.015.026.03.037.044.133.148.259.3.381.455l.089.111c.133.174.262.347.384.532l-.769,3.267-3.781,1.26-3.64-2.912Zm-8.6,1.593.089-.111c.122-.155.248-.3.377-.451a.57.57,0,0,0,.041-.048c.148-.166.3-.329.466-.484l.056-.055c.151-.148.307-.288.469-.425l.063-.052a10.343,10.343,0,0,1,1.105-.809l.015-.007a10.634,10.634,0,0,1,1.26-.684l3.873,1.534v3.733l-3.64,2.912-3.781-1.257-.769-3.267C644.424,499.787,644.554,499.613,644.687,499.44Zm-.447,11.97c-.107-.166-.214-.333-.31-.506l-.022-.041c-.1-.17-.192-.344-.281-.521l0-.007a10.753,10.753,0,0,1-.488-1.146v0c-.067-.185-.126-.373-.181-.565l-.018-.07c-.052-.177-.1-.358-.137-.543,0-.018-.007-.033-.011-.052a10.263,10.263,0,0,1-.2-1.253l2.254-2.709,3.755,1.253,1.09,4.357-1.789,2.384Zm11.109,4.375q-.277.067-.565.122c-.026,0-.055.011-.081.015-.163.03-.325.055-.488.074-.044.007-.089.011-.129.018-.151.019-.307.03-.458.041l-.144.011c-.2.011-.4.018-.595.018-.181,0-.366,0-.547-.015-.022,0-.044,0-.063,0-.163-.007-.322-.022-.48-.037l-.018,0a9.841,9.841,0,0,1-1.042-.166l-2.188-3.422,1.763-2.35h5.148l1.792,2.365Zm7.646-7.831c0,.018-.007.033-.011.052-.041.181-.089.362-.137.543l-.018.07c-.055.192-.114.381-.181.565v0a10.786,10.786,0,0,1-.488,1.146l0,.007c-.089.177-.181.351-.281.521l-.022.041c-.1.174-.2.34-.31.506l-3.648.576-1.8-2.38,1.09-4.357L660.936,504l2.254,2.709A10.341,10.341,0,0,1,662.995,507.954Z" transform="translate(-641.801 -494.65)" fill="#fff"/>
</svg>
