<svg xmlns="http://www.w3.org/2000/svg" width="22.176" height="22.184" viewBox="0 0 22.176 22.184">
  <path id="Path_811" data-name="Path 811" d="M517.1,103.555a1.891,1.891,0,0,1-.713-.144,1.791,1.791,0,0,1-1.1-1.97l.872-5.3h-3.381a2.774,2.774,0,0,1-2.484-1.5,2.734,2.734,0,0,1,.2-2.831l6.024-9.631c.011-.015.018-.03.03-.044a1.819,1.819,0,0,1,3.274,1.349l-.887,5.336h3.352a2.771,2.771,0,0,1,2.487,1.5,2.674,2.674,0,0,1-.207,2.8l-5.979,9.623c-.011.015-.022.033-.033.048a1.766,1.766,0,0,1-1.456.765Zm.872-20.426s-6.039,9.653-6.05,9.668a.986.986,0,0,0-.085,1.053,1.036,1.036,0,0,0,.942.562h4.4a.87.87,0,0,1,.857,1.009l-1.038,6.3c-.007.033-.011.063.052.089s.074.007.092-.011l5.976-9.612c.011-.015.022-.033.033-.048a.959.959,0,0,0,.089-1.027,1.034,1.034,0,0,0-.946-.554h-4.376a.865.865,0,0,1-.662-.307.853.853,0,0,1-.192-.7l1.053-6.342c0-.033.011-.059-.052-.085s-.078-.011-.1.007Zm8.91,12.018a.865.865,0,0,1-.7-1.371l4.2-5.828a.22.22,0,0,0,.03-.24.274.274,0,0,0-.259-.14h-3.137a.864.864,0,0,1-.854-1l.4-2.557-2.092,2.934a.866.866,0,1,1-1.412-1.005l2.823-3.962a1.437,1.437,0,0,1,2.587,1.064l-.443,2.8h2.125a2,2,0,0,1,1.8,1.083,1.949,1.949,0,0,1-.163,2.04l-4.2,5.828a.864.864,0,0,1-.706.358Z" transform="translate(-509.994 -81.371)" fill="#fff"/>
</svg>
