<svg xmlns="http://www.w3.org/2000/svg" width="22.172" height="25.21" viewBox="0 0 22.172 25.21">
  <g id="Group_779" data-name="Group 779" transform="translate(0 0)">
    <g id="Group_770" data-name="Group 770" transform="translate(0 0.937)">
      <g id="Group_769" data-name="Group 769">
        <path id="Path_888" data-name="Path 888" d="M266.885,502.079l-8.356-8.356a2.215,2.215,0,0,0-3.4,2.8l-.011.059a15.477,15.477,0,0,1-4.239,7.923l-3.832,3.832a2.217,2.217,0,0,0,0,3.134l2.088,2.088a2.217,2.217,0,0,0,3.134,0l.521-.521,3.655,3.655a2.216,2.216,0,1,0,3.134-3.134L258.008,512l.521-.521a2.217,2.217,0,0,0,0-3.134l-.355-.355a15.464,15.464,0,0,1,5.846-2.5l.059-.011a2.215,2.215,0,0,0,2.8-.27h0A2.213,2.213,0,0,0,266.885,502.079ZM251.22,512.523a.741.741,0,0,1-1.046,0l-2.088-2.088a.74.74,0,0,1,0-1.046l3.655-3.655,3.134,3.134Zm7.31,2.088a.74.74,0,0,1-1.046,1.046L253.829,512l1.046-1.046Zm-2.609-4.7c.222-.222.554-.562,1.079-1.009l.488.488a.74.74,0,0,1,0,1.046l-.521.521Zm.03-2.058-3.2-3.2a16.954,16.954,0,0,0,3.6-6.848l6.449,6.449A16.956,16.956,0,0,0,255.95,507.856Zm9.889-3.685a.741.741,0,0,1-1.046,0l-8.356-8.356a.74.74,0,0,1,1.046-1.046l8.356,8.356A.741.741,0,0,1,265.839,504.171Z" transform="translate(-246.395 -493.075)" fill="#fff"/>
      </g>
    </g>
    <g id="Group_772" data-name="Group 772" transform="translate(3.563 15.993)">
      <g id="Group_771" data-name="Group 771">
        <path id="Path_889" data-name="Path 889" d="M258.343,534.031a.74.74,0,0,0-1.046,0l-1.046,1.046a.74.74,0,0,0,1.046,1.046l1.046-1.046A.741.741,0,0,0,258.343,534.031Z" transform="translate(-256.035 -533.815)" fill="#fff"/>
      </g>
    </g>
    <g id="Group_774" data-name="Group 774" transform="translate(14.788)">
      <g id="Group_773" data-name="Group 773">
        <path id="Path_890" data-name="Path 890" d="M287.149,490.54a.739.739,0,0,0-.739.739v1.478a.739.739,0,1,0,1.478,0v-1.478A.741.741,0,0,0,287.149,490.54Z" transform="translate(-286.41 -490.54)" fill="#fff"/>
      </g>
    </g>
    <g id="Group_776" data-name="Group 776" transform="translate(19.215 5.909)">
      <g id="Group_775" data-name="Group 775">
        <path id="Path_891" data-name="Path 891" d="M300.607,506.53h-1.478a.739.739,0,1,0,0,1.478h1.478a.739.739,0,1,0,0-1.478Z" transform="translate(-298.39 -506.53)" fill="#fff"/>
      </g>
    </g>
    <g id="Group_778" data-name="Group 778" transform="translate(17.739 1.476)">
      <g id="Group_777" data-name="Group 777">
        <path id="Path_892" data-name="Path 892" d="M297.135,494.751a.74.74,0,0,0-1.046,0l-1.478,1.478a.74.74,0,0,0,1.046,1.046l1.478-1.478A.74.74,0,0,0,297.135,494.751Z" transform="translate(-294.395 -494.535)" fill="#fff"/>
      </g>
    </g>
  </g>
</svg>
