<svg xmlns="http://www.w3.org/2000/svg" width="22.174" height="22.17" viewBox="0 0 22.174 22.17">
  <path id="Path_801" data-name="Path 801" d="M263.368,94.849H251.586a5.2,5.2,0,0,1-5.2-5.2V84.586a5.2,5.2,0,0,1,5.2-5.2h11.782a5.2,5.2,0,0,1,5.2,5.2v5.067A5.2,5.2,0,0,1,263.368,94.849ZM251.586,81.12a3.471,3.471,0,0,0-3.466,3.466v5.067a3.465,3.465,0,0,0,3.463,3.463h11.782a3.471,3.471,0,0,0,3.466-3.466V84.586a3.471,3.471,0,0,0-3.466-3.466Zm4.727,9.79a1.992,1.992,0,0,1-.99-.266,1.964,1.964,0,0,1-1.005-1.722V85.532a2,2,0,0,1,3.019-1.7l2.853,1.7a1.979,1.979,0,0,1,0,3.407l-2.853,1.7A2.016,2.016,0,0,1,256.313,90.909Zm.137-1.774,2.853-1.7a.246.246,0,0,0,0-.429l-2.853-1.7a.263.263,0,0,0-.273,0,.242.242,0,0,0-.129.218v3.389a.242.242,0,0,0,.129.218.741.741,0,0,0,.273,0ZM255.7,100.7V97.229a.865.865,0,0,0-1.73,0V100.7a.865.865,0,0,0,1.73,0Zm12.861-1.733a.866.866,0,0,0-.865-.865h-9.4a.865.865,0,0,0,0,1.73h9.4A.861.861,0,0,0,268.564,98.962Zm-16.327,0a.866.866,0,0,0-.865-.865h-4.113a.865.865,0,0,0,0,1.73h4.113A.861.861,0,0,0,252.236,98.962Z" transform="translate(-246.39 -79.39)" fill="#fff"/>
</svg>
