<svg xmlns="http://www.w3.org/2000/svg" width="22.169" height="22.174" viewBox="0 0 22.169 22.174">
  <g id="Group_718" data-name="Group 718" transform="translate(0 0)">
    <path id="Path_817" data-name="Path 817" d="M792.238,82.038,780.283,96.325a2.382,2.382,0,0,0,3.356,3.356l14.287-11.955a4.037,4.037,0,1,0-5.687-5.688Zm4.727.961a2.3,2.3,0,0,1-.152,3.4L782.526,98.35a.648.648,0,0,1-.913-.913L793.569,83.15a2.3,2.3,0,0,1,3.4-.152Z" transform="translate(-777.497 -80.297)" fill="#fff"/>
    <path id="Path_818" data-name="Path 818" d="M780.375,91.2a.865.865,0,1,0,1.223-1.223l-3.367-3.367a.865.865,0,0,1,1.094-1.33l3.984,2.676a.866.866,0,0,0,.965-1.438L780.29,83.84A2.6,2.6,0,0,0,777,87.835Z" transform="translate(-775.302 -82.067)" fill="#fff"/>
    <path id="Path_819" data-name="Path 819" d="M815.9,118.831l-2.676-3.984a.866.866,0,0,0-1.438.965l2.676,3.984a.865.865,0,0,1-1.331,1.094l-3.367-3.367a.865.865,0,0,0-1.223,1.223l3.367,3.367a2.6,2.6,0,0,0,3.991-3.282Z" transform="translate(-795.505 -101.65)" fill="#fff"/>
    <path id="Path_820" data-name="Path 820" d="M828.52,113.19l-.425.425a.865.865,0,0,0,1.223,1.223l.425-.425a.865.865,0,0,0-1.223-1.223Z" transform="translate(-807.83 -100.688)" fill="#fff"/>
    <path id="Path_821" data-name="Path 821" d="M795.38,80.045l-.425.425a.865.865,0,0,0,1.223,1.223l.425-.425a.865.865,0,1,0-1.223-1.223Z" transform="translate(-786.937 -79.79)" fill="#fff"/>
    <path id="Path_822" data-name="Path 822" d="M776.9,112.165a.866.866,0,0,0-1.327-1.112l-1.674,2a.866.866,0,1,0,1.327,1.112Z" transform="translate(-773.693 -99.304)" fill="#fff"/>
    <path id="Path_823" data-name="Path 823" d="M792.835,133.669a.863.863,0,0,0,1.22.107l2-1.674a.866.866,0,0,0-1.112-1.327l-2,1.674A.866.866,0,0,0,792.835,133.669Z" transform="translate(-785.634 -111.806)" fill="#fff"/>
  </g>
</svg>
