<svg xmlns="http://www.w3.org/2000/svg" width="19.53" height="22.363" viewBox="0 0 19.53 22.363">
  <g id="Group_733" data-name="Group 733" transform="translate(0 0.186)">
    <path id="Path_852" data-name="Path 852" d="M129.291,237.984A7.719,7.719,0,0,0,137,230.275c-.425-10.226-15-10.222-15.418,0A7.716,7.716,0,0,0,129.291,237.984Zm0-13.685a5.976,5.976,0,1,1-5.976,5.976A5.981,5.981,0,0,1,129.291,224.3Zm8.167,13.537a11.119,11.119,0,0,1-7.3,3.54v1.637h2.554a.867.867,0,0,1,0,1.733H125.78a.867.867,0,0,1,0-1.733h2.642v-1.637a11.15,11.15,0,0,1-7.428-18.519.866.866,0,1,1,1.29,1.157,9.4,9.4,0,0,0,13.9,12.646.867.867,0,0,1,1.275,1.175Z" transform="translate(-118.159 -222.57)" fill="#fff"/>
    <path id="Path_853" data-name="Path 853" d="M143.7,230.54s-7.55,8.614-9.413,9.446" transform="translate(-128.329 -227.595)" fill="none" stroke="#fff" stroke-linecap="round" stroke-miterlimit="10" stroke-width="2"/>
    <path id="Path_854" data-name="Path 854" d="M146.15,225.07s.909,7.724,7.229,8.241" transform="translate(-135.806 -224.146)" fill="none" stroke="#fff" stroke-linecap="round" stroke-miterlimit="10" stroke-width="2"/>
    <path id="Path_855" data-name="Path 855" d="M136.8,231.35s.074,7.517,8.489,9.376" transform="translate(-129.911 -228.105)" fill="none" stroke="#fff" stroke-linecap="round" stroke-miterlimit="10" stroke-width="2"/>
  </g>
</svg>
