<svg xmlns="http://www.w3.org/2000/svg" width="22.174" height="22.214" viewBox="0 0 22.174 22.214">
  <g id="Group_713" data-name="Group 713" transform="translate(0 0)">
    <g id="Group_711" data-name="Group 711" transform="translate(0 5.584)">
      <path id="Path_807" data-name="Path 807" d="M263.368,252.25H251.586a5.2,5.2,0,0,1-5.2-5.2v-6.238a5.2,5.2,0,0,1,5.2-5.2h11.782a5.2,5.2,0,0,1,5.2,5.2v6.238A5.2,5.2,0,0,1,263.368,252.25Zm-11.782-14.9a3.471,3.471,0,0,0-3.466,3.466v6.238a3.471,3.471,0,0,0,3.466,3.466h11.782a3.471,3.471,0,0,0,3.466-3.466V240.82a3.471,3.471,0,0,0-3.466-3.466Z" transform="translate(-246.39 -235.62)" fill="#fff"/>
    </g>
    <g id="Group_712" data-name="Group 712" transform="translate(6.977)">
      <path id="Path_808" data-name="Path 808" d="M272.628,224.365a.866.866,0,0,1-.865-.865,1.258,1.258,0,0,0-1.257-1.257h-2.251A1.258,1.258,0,0,0,267,223.5a.865.865,0,0,1-1.73,0,2.994,2.994,0,0,1,2.99-2.99h2.251a2.994,2.994,0,0,1,2.99,2.99A.872.872,0,0,1,272.628,224.365Z" transform="translate(-265.27 -220.51)" fill="#fff"/>
    </g>
    <path id="Path_809" data-name="Path 809" d="M269.288,254.011h1v1a1,1,0,1,0,2,0v-1h1a1,1,0,1,0,0-2h-1v-1a1,1,0,1,0-2,0v1h-1a1,1,0,1,0,0,2Z" transform="translate(-260.197 -239.114)" fill="#fff"/>
  </g>
</svg>
