<svg xmlns="http://www.w3.org/2000/svg" width="22.177" height="22.177" viewBox="0 0 22.177 22.177">
  <g id="Group_720" data-name="Group 720" transform="translate(0 0)">
    <path id="Path_825" data-name="Path 825" d="M911.95,96.188v1.733a.865.865,0,0,0,1.73,0V96.188a.866.866,0,0,1,.865-.865h6.929a.866.866,0,0,1,.865.865v3.466a.865.865,0,0,0,1.73,0V96.188a2.6,2.6,0,0,0-2.6-2.6h-6.929A2.6,2.6,0,0,0,911.95,96.188Z" transform="translate(-910.39 -86.831)" fill="#fff"/>
    <path id="Path_826" data-name="Path 826" d="M927.306,111.87h-2.24a3.814,3.814,0,0,0-2.705,1.12,2.077,2.077,0,0,1-1.478.613h-4.132a2.077,2.077,0,0,1-1.478-.613,3.8,3.8,0,0,0-2.705-1.12h-2.24a2.6,2.6,0,0,0-2.6,2.6,6.071,6.071,0,0,0,6.065,6.064h10.048a6.071,6.071,0,0,0,6.064-6.064A2.6,2.6,0,0,0,927.306,111.87Zm-3.463,6.929H913.795a4.337,4.337,0,0,1-4.331-4.331.866.866,0,0,1,.865-.865h2.24a2.077,2.077,0,0,1,1.478.613,3.8,3.8,0,0,0,2.705,1.12h4.132a3.815,3.815,0,0,0,2.705-1.12,2.077,2.077,0,0,1,1.478-.613h2.24a.866.866,0,0,1,.865.865A4.334,4.334,0,0,1,923.843,118.8Z" transform="translate(-907.73 -98.355)" fill="#fff"/>
    <path id="Path_827" data-name="Path 827" d="M919.244,77.033a.866.866,0,0,0-.865.865v.865h-.865a.865.865,0,1,0,0,1.73h6.929a.865.865,0,1,0,0-1.73h-.865v-2.6a.865.865,0,1,0-1.729,0v2.6h-1.733V77.9A.877.877,0,0,0,919.244,77.033Z" transform="translate(-913.354 -75.3)" fill="#fff"/>
    <circle id="Ellipse_88" data-name="Ellipse 88" cx="0.865" cy="0.865" r="0.865" transform="translate(8.489 10.226)" fill="#fff"/>
    <circle id="Ellipse_89" data-name="Ellipse 89" cx="0.865" cy="0.865" r="0.865" transform="translate(5.026 10.226)" fill="#fff"/>
    <circle id="Ellipse_90" data-name="Ellipse 90" cx="0.865" cy="0.865" r="0.865" transform="translate(16.978 16.981)" fill="#fff"/>
  </g>
</svg>
