<svg xmlns="http://www.w3.org/2000/svg" width="22.174" height="22.174" viewBox="0 0 22.174 22.174">
  <path id="Path_861" data-name="Path 861" d="M389.287,389.614a11.091,11.091,0,1,1,7.838-3.248,11,11,0,0,1-7.838,3.248Zm0-20.44a9.354,9.354,0,1,0,9.354,9.354A9.365,9.365,0,0,0,389.287,369.173Zm-.044,10.174a4.158,4.158,0,1,1,4.158-4.158A4.164,4.164,0,0,1,389.242,379.347Zm0-6.582a2.424,2.424,0,1,0,2.424,2.424A2.426,2.426,0,0,0,389.242,372.765Zm5.488,11.626a.868.868,0,0,0,.122-1.219,6.39,6.39,0,0,0-4.967-2.354h-1.027a6.4,6.4,0,0,0-4.967,2.354.867.867,0,0,0,1.341,1.1,4.678,4.678,0,0,1,3.625-1.718h1.027a4.666,4.666,0,0,1,3.625,1.718.867.867,0,0,0,1.22.122Z" transform="translate(-378.2 -367.44)" fill="#fff"/>
</svg>
