<svg xmlns="http://www.w3.org/2000/svg" width="22.171" height="22.24" viewBox="0 0 22.171 22.24">
  <path id="Path_829" data-name="Path 829" d="M925.184,225.744Zm-.48,7.339a.867.867,0,0,0-.868.868v1.918a1.737,1.737,0,0,1-.654,1.356l-3.23,2.587-3.4,1.013a.882.882,0,0,0-.355.207l-1.6,1.541a.695.695,0,0,1-1.175-.5l0-8.116a.867.867,0,0,0-.868-.868h0a.867.867,0,0,0-.868.868l0,8.116a2.446,2.446,0,0,0,2.447,2.439,2.389,2.389,0,0,0,1.67-.684l1.452-1.4,3.359-1a.907.907,0,0,0,.3-.155l3.363-2.69a3.456,3.456,0,0,0,1.308-2.713v-1.918a.879.879,0,0,0-.876-.872Zm.48-10.813a8.961,8.961,0,0,0-2.605.517,12.74,12.74,0,0,1-3.951.7,12.612,12.612,0,0,1-3.951-.7,8.961,8.961,0,0,0-2.605-.517,4.56,4.56,0,0,0,0,9.121,2.831,2.831,0,0,0,2.813-3.067,7.018,7.018,0,0,0,2.313.373h2.65a.868.868,0,0,0,0-1.737H917.2a6.14,6.14,0,0,1-2.59-.6,6.2,6.2,0,0,0-2.535-.613,1.086,1.086,0,1,0,.651,1.955,1.092,1.092,0,0,1,.436.868c-.192,2.2-4,.813-3.91-1.737a2.828,2.828,0,0,1,2.823-2.823,7.643,7.643,0,0,1,2.1.443,13.481,13.481,0,0,0,8.914,0,7.671,7.671,0,0,1,2.1-.443,2.828,2.828,0,0,1,2.824,2.823c.092,2.55-3.714,3.932-3.91,1.737a1.082,1.082,0,0,1,.436-.868,1.086,1.086,0,1,0,.65-1.955,2.877,2.877,0,0,0-2.823,2.823,2.828,2.828,0,0,0,2.823,2.823,4.56,4.56,0,0,0,0-9.121Zm-4.52,14.461a.868.868,0,0,1-.869-.868v-4.516a.869.869,0,0,1,1.737,0v4.516A.865.865,0,0,1,920.664,236.731Zm-3.211,1.3v-6.689a.868.868,0,0,0-1.737,0v6.689a.868.868,0,1,0,1.737,0Z" transform="translate(-907.541 -222.27)" fill="#fff"/>
</svg>
