<svg xmlns="http://www.w3.org/2000/svg" width="22.17" height="22.17" viewBox="0 0 22.17 22.17">
  <g id="Group_731" data-name="Group 731" transform="translate(0 0)">
    <path id="Path_843" data-name="Path 843" d="M399.078,250.22h-1.733a.865.865,0,1,0,0,1.73h1.733a.865.865,0,1,0,0-1.73Z" transform="translate(-389.724 -240.002)" fill="#fff"/>
    <path id="Path_844" data-name="Path 844" d="M413.138,250.22H411.4a.865.865,0,1,0,0,1.73h1.733a.865.865,0,0,0,0-1.73Z" transform="translate(-398.588 -240.002)" fill="#fff"/>
    <path id="Path_845" data-name="Path 845" d="M399.078,259.6h-1.733a.865.865,0,1,0,0,1.73h1.733a.865.865,0,1,0,0-1.73Z" transform="translate(-389.724 -245.915)" fill="#fff"/>
    <path id="Path_846" data-name="Path 846" d="M413.138,259.6H411.4a.865.865,0,1,0,0,1.73h1.733a.865.865,0,0,0,0-1.73Z" transform="translate(-398.588 -245.915)" fill="#fff"/>
    <path id="Path_847" data-name="Path 847" d="M413.138,268.97H411.4a.865.865,0,1,0,0,1.73h1.733a.865.865,0,0,0,0-1.73Z" transform="translate(-398.588 -251.822)" fill="#fff"/>
    <path id="Path_848" data-name="Path 848" d="M399.078,268.97h-1.733a.865.865,0,1,0,0,1.73h1.733a.865.865,0,1,0,0-1.73Z" transform="translate(-389.724 -251.822)" fill="#fff"/>
    <path id="Path_849" data-name="Path 849" d="M399.505,243.01h-2.424V226.9a4.337,4.337,0,0,0-4.331-4.331H385.82a4.337,4.337,0,0,0-4.331,4.331V243.01h-2.424a.865.865,0,1,0,0,1.73h20.44a.865.865,0,1,0,0-1.73ZM383.222,226.9a2.6,2.6,0,0,1,2.6-2.6h6.929a2.6,2.6,0,0,1,2.6,2.6v16.109H383.222Z" transform="translate(-378.2 -222.57)" fill="#fff"/>
    <path id="Path_850" data-name="Path 850" d="M405.5,233.21h-.865v-.865a.865.865,0,1,0-1.729,0v.865h-.865a.865.865,0,0,0,0,1.73h.865v.865a.865.865,0,1,0,1.729,0v-.865h.865a.865.865,0,0,0,0-1.73Z" transform="translate(-392.688 -228.187)" fill="#fff"/>
  </g>
</svg>
