<svg xmlns="http://www.w3.org/2000/svg" width="22.174" height="22.17" viewBox="0 0 22.174 22.17">
  <g id="Group_716" data-name="Group 716" transform="translate(0 0)">
    <path id="Path_813" data-name="Path 813" d="M664.382,84.58h-2.251v-.868A4.337,4.337,0,0,0,657.8,79.38h-6.929a4.337,4.337,0,0,0-4.331,4.331V99.82h-.865a.865.865,0,1,0,0,1.73H663a.865.865,0,1,0,0-1.73h-.865V86.313h2.251a.866.866,0,0,1,.865.865v.865h-.865a.865.865,0,1,0,0,1.73h.865V93.93a.866.866,0,0,1-.865.865.865.865,0,1,0,0,1.73,2.6,2.6,0,0,0,2.6-2.6V87.17A2.6,2.6,0,0,0,664.382,84.58ZM648.273,99.824V83.711a2.6,2.6,0,0,1,2.6-2.6H657.8a2.6,2.6,0,0,1,2.6,2.6V99.82H648.273Z" transform="translate(-644.81 -79.38)" fill="#fff"/>
    <path id="Path_814" data-name="Path 814" d="M664.924,88.76h-3.467a2.6,2.6,0,0,0-2.6,2.6v1.733a2.6,2.6,0,0,0,2.6,2.6h3.467a2.6,2.6,0,0,0,2.6-2.6V91.358A2.6,2.6,0,0,0,664.924,88.76Zm.868,4.331a.866.866,0,0,1-.865.865h-3.466a.866.866,0,0,1-.865-.865V91.358a.866.866,0,0,1,.865-.865h3.466a.866.866,0,0,1,.865.865Z" transform="translate(-653.668 -85.294)" fill="#fff"/>
    <path id="Path_815" data-name="Path 815" d="M666.164,118.659a2.6,2.6,0,0,0,2.6-2.6,6.715,6.715,0,0,0-1.984-4.076.861.861,0,0,0-1.223,0,6.715,6.715,0,0,0-1.985,4.076A2.591,2.591,0,0,0,666.164,118.659Zm0-4.712a4.014,4.014,0,0,1,.865,2.114.865.865,0,1,1-1.73,0A3.982,3.982,0,0,1,666.164,113.947Z" transform="translate(-656.637 -99.775)" fill="#fff"/>
  </g>
</svg>
