<svg xmlns="http://www.w3.org/2000/svg" width="29.565" height="23.441" viewBox="0 0 29.565 23.441">
  <g id="Group_808" data-name="Group 808" transform="translate(0 0)">
    <g id="Group_803" data-name="Group 803" transform="translate(0 3.134)">
      <g id="Group_800" data-name="Group 800" transform="translate(7.443)">
        <path id="Path_932" data-name="Path 932" d="M666.4,396.13h-1.179a.588.588,0,0,0,0,1.175H666.4a.588.588,0,1,0,0-1.175Z" transform="translate(-659.941 -386.425)" fill="#fff"/>
        <path id="Path_933" data-name="Path 933" d="M675.966,396.13h-1.179a.588.588,0,1,0,0,1.175h1.179a.588.588,0,1,0,0-1.175Z" transform="translate(-665.974 -386.425)" fill="#fff"/>
        <path id="Path_934" data-name="Path 934" d="M666.4,404.54h-1.179a.588.588,0,0,0,0,1.175H666.4a.588.588,0,1,0,0-1.175Z" transform="translate(-659.941 -391.727)" fill="#fff"/>
        <path id="Path_935" data-name="Path 935" d="M675.966,404.54h-1.179a.588.588,0,1,0,0,1.175h1.179a.588.588,0,1,0,0-1.175Z" transform="translate(-665.974 -391.727)" fill="#fff"/>
        <path id="Path_936" data-name="Path 936" d="M675.375,415.792v-2.764a.588.588,0,1,0-1.175,0v2.764a.588.588,0,0,0,1.175,0Z" transform="translate(-665.974 -396.708)" fill="#fff"/>
        <path id="Path_937" data-name="Path 937" d="M669.005,415.792v-2.764a.588.588,0,1,0-1.175,0v2.764a.588.588,0,1,0,1.175,0Z" transform="translate(-661.958 -396.708)" fill="#fff"/>
        <path id="Path_938" data-name="Path 938" d="M668.418,413.615h2.354a.588.588,0,0,0,0-1.175h-2.354a.588.588,0,1,0,0,1.175Z" transform="translate(-661.958 -396.708)" fill="#fff"/>
        <path id="Path_939" data-name="Path 939" d="M672.2,372.095v-1.637a.588.588,0,0,0-1.175,0v1.637a.588.588,0,0,0,1.175,0Z" transform="translate(-663.969 -369.87)" fill="#fff"/>
        <g id="Group_799" data-name="Group 799" transform="translate(0 1.575)">
          <path id="Path_940" data-name="Path 940" d="M679.127,381.26l-6.778-6.951a.588.588,0,0,0-.839.824l6.778,6.951a.586.586,0,0,0,.832.007A.592.592,0,0,0,679.127,381.26Z" transform="translate(-664.172 -374.131)" fill="#fff"/>
          <path id="Path_941" data-name="Path 941" d="M652.942,382.068l7.1-6.926a.588.588,0,1,0-.824-.839l-7.1,6.925a.586.586,0,0,0-.007.832A.592.592,0,0,0,652.942,382.068Z" transform="translate(-651.941 -374.134)" fill="#fff"/>
        </g>
        <path id="Path_942" data-name="Path 942" d="M666.687,397.923h-1.648V386.965a2.951,2.951,0,0,0-2.945-2.945h-4.712a2.951,2.951,0,0,0-2.945,2.945v10.957h-1.648a.588.588,0,1,0,0,1.175h13.9a.588.588,0,1,0,0-1.175Zm-11.072,0V386.965a1.771,1.771,0,0,1,1.766-1.766h4.712a1.769,1.769,0,0,1,1.766,1.766v10.957Z" transform="translate(-652.104 -378.791)" fill="#fff"/>
      </g>
      <g id="Group_801" data-name="Group 801" transform="translate(14.487 10.122)">
        <path id="Path_943" data-name="Path 943" d="M685.526,405.67h-1.179a.588.588,0,1,0,0,1.175h1.179a.588.588,0,0,0,0-1.175Z" transform="translate(-679.044 -402.562)" fill="#fff"/>
        <path id="Path_944" data-name="Path 944" d="M694.807,405.67h-1.179a.588.588,0,1,0,0,1.175h1.179a.588.588,0,1,0,0-1.175Z" transform="translate(-684.895 -402.562)" fill="#fff"/>
        <path id="Path_945" data-name="Path 945" d="M694.807,413.23h-1.179a.588.588,0,0,0,0,1.175h1.179a.588.588,0,0,0,0-1.175Z" transform="translate(-684.895 -407.328)" fill="#fff"/>
        <path id="Path_946" data-name="Path 946" d="M685.526,413.23h-1.179a.588.588,0,1,0,0,1.175h1.179a.588.588,0,0,0,0-1.175Z" transform="translate(-679.044 -407.328)" fill="#fff"/>
        <path id="Path_947" data-name="Path 947" d="M685.49,406.27h-1.648v-6.065a2.948,2.948,0,0,0-2.945-2.945h-4.712a2.849,2.849,0,0,0-.473.037v1.2a1.679,1.679,0,0,1,.473-.067H680.9a1.77,1.77,0,0,1,1.766,1.77v6.065H671.591a.588.588,0,1,0,0,1.175h13.9a.588.588,0,1,0,0-1.175Z" transform="translate(-671 -397.26)" fill="#fff"/>
      </g>
      <g id="Group_802" data-name="Group 802" transform="translate(0 10.122)">
        <path id="Path_948" data-name="Path 948" d="M654.93,406.148a.587.587,0,0,0,.588.588H656.7a.588.588,0,0,0,0-1.175h-1.179A.587.587,0,0,0,654.93,406.148Z" transform="translate(-646.382 -402.493)" fill="#fff"/>
        <path id="Path_949" data-name="Path 949" d="M645.65,406.148a.587.587,0,0,0,.588.588h1.179a.588.588,0,0,0,0-1.175h-1.179A.584.584,0,0,0,645.65,406.148Z" transform="translate(-640.532 -402.493)" fill="#fff"/>
        <path id="Path_950" data-name="Path 950" d="M645.65,414.328a.587.587,0,0,0,.588.588h1.179a.588.588,0,1,0,0-1.175h-1.179A.584.584,0,0,0,645.65,414.328Z" transform="translate(-640.532 -407.65)" fill="#fff"/>
        <path id="Path_951" data-name="Path 951" d="M654.93,414.328a.587.587,0,0,0,.588.588H656.7a.588.588,0,1,0,0-1.175h-1.179A.587.587,0,0,0,654.93,414.328Z" transform="translate(-646.382 -407.65)" fill="#fff"/>
        <path id="Path_952" data-name="Path 952" d="M631.8,406.857a.587.587,0,0,0,.588.588h13.9a.588.588,0,1,0,0-1.175H635.215v-6.064a1.77,1.77,0,0,1,1.766-1.77h4.712a1.683,1.683,0,0,1,.473.066v-1.2a2.82,2.82,0,0,0-.473-.037h-4.712a2.949,2.949,0,0,0-2.945,2.945v6.064h-1.648A.589.589,0,0,0,631.8,406.857Z" transform="translate(-631.8 -397.26)" fill="#fff"/>
      </g>
    </g>
    <g id="Group_807" data-name="Group 807" transform="translate(14.483 0)">
      <g id="Group_806" data-name="Group 806">
        <g id="Group_804" data-name="Group 804" transform="translate(0 2.243)">
          <path id="Path_953" data-name="Path 953" d="M673.71,367.654v.285a1.484,1.484,0,0,0-1.175.1,1.181,1.181,0,0,1-.957.067c-.026-.011-.052-.018-.074-.026v-.421h-.314v2.092a.159.159,0,0,0,.318,0v-1.338a1.483,1.483,0,0,0,1.175-.1,1.182,1.182,0,0,1,.957-.066c.074.026.126.052.152.063a.157.157,0,0,0,.237-.137v-.521h-.318Z" transform="translate(-670.746 -367.21)" fill="#fff"/>
          <path id="Path_954" data-name="Path 954" d="M670.589,369.6a.6.6,0,0,1-.6-.6v-2.535h1.2v.517a.718.718,0,0,0,.384-.089,1.923,1.923,0,0,1,.939-.225v-.207h1.2v.961a.6.6,0,0,1-.3.521.6.6,0,0,1-.6,0,.646.646,0,0,0-.07-.026.739.739,0,0,0-.614.041,1.924,1.924,0,0,1-.939.225V369A.6.6,0,0,1,670.589,369.6Z" transform="translate(-669.99 -366.46)" fill="#fff"/>
        </g>
        <g id="Group_805" data-name="Group 805">
          <path id="Path_955" data-name="Path 955" d="M674.025,362.053v1.715h-.314v-1.615c-.022-.007-.044-.018-.074-.026a1.181,1.181,0,0,0-.957.066,1.483,1.483,0,0,1-1.175.1v1.792h-.314v-2.343a.159.159,0,0,1,.318,0v.218c.022.007.044.018.074.026a1.181,1.181,0,0,0,.957-.066,1.506,1.506,0,0,1,1.2-.089,1.04,1.04,0,0,1,.207.092A.155.155,0,0,1,674.025,362.053Z" transform="translate(-670.746 -361.14)" fill="#fff"/>
          <path id="Path_956" data-name="Path 956" d="M671.187,363.771h-1.2v-2.783a.6.6,0,0,1,1.183-.129.712.712,0,0,0,.4-.085,1.934,1.934,0,0,1,1.556-.115,2.039,2.039,0,0,1,.288.126.6.6,0,0,1,.3.517v2.158h-1.2v-1.715a.725.725,0,0,0-.384.089,1.932,1.932,0,0,1-.939.225v1.711Z" transform="translate(-669.99 -360.39)" fill="#fff"/>
        </g>
      </g>
    </g>
  </g>
</svg>
