<svg xmlns="http://www.w3.org/2000/svg" width="22.174" height="22.174" viewBox="0 0 22.174 22.174">
  <path id="Path_799" data-name="Path 799" d="M117.794,101.564a3.208,3.208,0,0,1-3.2-3.2v-8.23a3.2,3.2,0,1,1,6.408,0v8.23A3.208,3.208,0,0,1,117.794,101.564Zm0-12.909a1.472,1.472,0,0,0-1.471,1.471v8.23a1.471,1.471,0,1,0,2.942,0v-8.23A1.472,1.472,0,0,0,117.794,88.655Zm7.883,12.909a3.208,3.208,0,0,1-3.2-3.2V94.808a3.2,3.2,0,1,1,6.408,0V98.36A3.208,3.208,0,0,1,125.677,101.564Zm0-8.23a1.472,1.472,0,0,0-1.471,1.471v3.551a1.471,1.471,0,1,0,2.942,0V94.8A1.472,1.472,0,0,0,125.677,93.333Zm7.883,8.23a3.208,3.208,0,0,1-3.2-3.2V90.78a3.2,3.2,0,0,1,6.408,0v7.58A3.208,3.208,0,0,1,133.56,101.564Zm0-12.258a1.472,1.472,0,0,0-1.471,1.471v7.58a1.471,1.471,0,1,0,2.942,0v-7.58A1.475,1.475,0,0,0,133.56,89.305Zm-4.815-.344,4.793-5.033a.865.865,0,1,0-1.253-1.194l-4.8,5.045a.065.065,0,0,0-.015.018,1.3,1.3,0,0,1-1.752.166l-5.5-5a.393.393,0,0,0-.044-.037,3.022,3.022,0,0,0-3.906.122.225.225,0,0,0-.03.03l-1.386,1.367a.865.865,0,1,0,1.216,1.231l1.367-1.353a1.293,1.293,0,0,1,1.641-.055l5.5,5a.392.392,0,0,0,.044.037,3.036,3.036,0,0,0,4.124-.344Zm8.019-4.634V81.988a2.6,2.6,0,0,0-2.6-2.6h-2.339a.865.865,0,0,0,0,1.73h2.339a.866.866,0,0,1,.865.865v2.339a.867.867,0,0,0,1.733,0Z" transform="translate(-114.59 -79.39)" fill="#fff"/>
</svg>
