<svg xmlns="http://www.w3.org/2000/svg" width="22.178" height="22.181" viewBox="0 0 22.178 22.181">
  <g id="Group_765" data-name="Group 765" transform="translate(0 0)">
    <g id="Group_764" data-name="Group 764">
      <path id="Path_882" data-name="Path 882" d="M531.6,500.73l-1.378-1.378,1.378-1.379a.649.649,0,0,0,0-.92l-1.837-1.837a.649.649,0,0,0-.92,0l-1.378,1.378-1.378-1.378a1.95,1.95,0,0,0-2.757,0l-.536.536a1.95,1.95,0,0,0-2.217.381l-.92.92a.649.649,0,0,0,0,.92l3.215,3.215-6.334,6.334-3.215-3.215a.649.649,0,0,0-.92,0l-.92.92a1.954,1.954,0,0,0-.381,2.217l-.54.54a1.95,1.95,0,0,0,0,2.757l1.379,1.378-1.379,1.378a.649.649,0,0,0,0,.92l1.837,1.837a.649.649,0,0,0,.92,0l1.379-1.378,1.378,1.378a1.95,1.95,0,0,0,2.757,0l.536-.536a1.95,1.95,0,0,0,2.218-.381l.92-.92a.649.649,0,0,0,0-.92l-3.215-3.215,6.334-6.334,3.215,3.215a.649.649,0,0,0,.92,0l.92-.92a1.954,1.954,0,0,0,.381-2.217l.539-.54A1.956,1.956,0,0,0,531.6,500.73Zm-2.3-4.135.92.92-.92.92-.92-.92Zm-16.438,18.278-.92-.92.92-.92.92.92Zm5.052.458a.649.649,0,0,1-.92,0l-5.514-5.514a.649.649,0,0,1,0-.92l.458-.458,6.43,6.43Zm3.215-1.378-.458.458a.649.649,0,0,1-.92,0l-7.351-7.35a.649.649,0,0,1,0-.92l.458-.458Zm-2.757-4.594-.92-.92,6.334-6.334.92.92Zm11.39-4.036-.458.458-5.052-5.052h0l-3.215-3.215.458-.458a.649.649,0,0,1,.92,0l7.351,7.351A.655.655,0,0,1,529.758,505.323Zm.916-2.757-.458.458-6.43-6.43.458-.458a.649.649,0,0,1,.92,0l5.514,5.514A.648.648,0,0,1,530.675,502.567Z" transform="translate(-509.985 -494.645)" fill="#fff"/>
    </g>
  </g>
</svg>
