<svg xmlns="http://www.w3.org/2000/svg" width="24.931" height="21.87" viewBox="0 0 24.931 21.87">
  <g id="Group_785" data-name="Group 785" transform="translate(0 0)">
    <g id="Group_784" data-name="Group 784">
      <path id="Path_897" data-name="Path 897" d="M136.931,644.614A2.27,2.27,0,0,0,135.7,642.6a.52.52,0,0,1-.281-.462v-7.122a.531.531,0,0,1,.333-.491h0a.529.529,0,0,0,0-.983l-11.527-4.6a.514.514,0,0,0-.392,0l-11.5,4.608a.529.529,0,0,0,0,.983l4.557,1.826a.53.53,0,0,1,.333.491v3.241a3.333,3.333,0,0,0,2.188,2.816,11.527,11.527,0,0,0,9.232,0,3.329,3.329,0,0,0,2.188-2.816V636.85a.531.531,0,0,1,.333-.491l2.018-.806a.528.528,0,0,1,.724.491v6.094a.515.515,0,0,1-.281.462,2.266,2.266,0,0,0-.285,3.862.538.538,0,0,1,.211.606l-.953,2.857a.531.531,0,0,0,.333.669l.432.144a.531.531,0,0,0,.669-.333l.126-.377a.528.528,0,0,1,1,0l.126.377a.528.528,0,0,0,.669.333l.432-.144a.528.528,0,0,0,.333-.669l-.953-2.857a.537.537,0,0,1,.211-.606A2.265,2.265,0,0,0,136.931,644.614Zm-7.613-4.535c0,1.072-2.262,2.269-5.292,2.269s-5.292-1.2-5.292-2.269v-2.21a.53.53,0,0,1,.724-.491l4.368,1.752a.513.513,0,0,0,.392,0l4.372-1.748a.528.528,0,0,1,.724.492l0,2.206Zm-5.488-2.58-7.432-2.979a.529.529,0,0,1,0-.983l7.432-2.979a.513.513,0,0,1,.392,0l7.45,2.979a.529.529,0,0,1,0,.983l-7.45,2.979A.513.513,0,0,1,123.83,637.5Zm10.832,7.872a.758.758,0,1,1,.758-.758A.759.759,0,0,1,134.661,645.372Z" transform="translate(-112 -628.895)" fill="#fff"/>
    </g>
  </g>
</svg>
