<svg xmlns="http://www.w3.org/2000/svg" width="19.092" height="22.177" viewBox="0 0 19.092 22.177">
  <g id="Group_727" data-name="Group 727" transform="translate(0 0)">
    <path id="Path_834" data-name="Path 834" d="M656.894,229.178l4.183,1.888a.873.873,0,0,0,.713,0l4.183-1.888a2.6,2.6,0,1,0-3.444-3.444l-1.1,2.432-1.1-2.432a2.6,2.6,0,1,0-3.441,3.444Zm7.221-2.727a.868.868,0,1,1,1.149,1.149l-2.092.946Zm-6.15-.514a.869.869,0,0,1,.791.51l.946,2.092-2.092-.946a.866.866,0,0,1,.355-1.656Z" transform="translate(-651.886 -224.2)" fill="#fff"/>
    <path id="Path_835" data-name="Path 835" d="M661.8,247v-1.737a2.626,2.626,0,0,1,.432-1.441.869.869,0,0,0-1.445-.965,4.327,4.327,0,0,0-.724,2.4V247a.869.869,0,0,0,1.737,0Z" transform="translate(-654.849 -235.721)" fill="#fff"/>
    <path id="Path_836" data-name="Path 836" d="M678.731,247.878a.867.867,0,0,0,.868-.868v-1.737a4.335,4.335,0,0,0-.724-2.4.869.869,0,0,0-1.445.965,2.579,2.579,0,0,1,.432,1.441v1.737a.867.867,0,0,0,.868.865Z" transform="translate(-665.708 -235.727)" fill="#fff"/>
    <path id="Path_837" data-name="Path 837" d="M664.087,240.043a4.342,4.342,0,0,0-2.428-1.5.867.867,0,0,0-.377,1.693,2.62,2.62,0,0,1,2.036,2.543v8.289a2.609,2.609,0,0,1-2.6,2.605H650.3a2.609,2.609,0,0,1-2.605-2.605v-8.289a2.62,2.62,0,0,1,2.036-2.543.867.867,0,1,0-.377-1.693,4.333,4.333,0,0,0-3.4,4.235v8.289a4.345,4.345,0,0,0,4.339,4.339h10.414a4.345,4.345,0,0,0,4.339-4.339v-8.289A4.3,4.3,0,0,0,664.087,240.043Z" transform="translate(-645.96 -233.228)" fill="#fff"/>
    <path id="Path_838" data-name="Path 838" d="M655.37,270.978a.867.867,0,0,0,.868.868h10.414a.868.868,0,0,0,0-1.737H656.238A.872.872,0,0,0,655.37,270.978Z" transform="translate(-651.893 -253.143)" fill="#fff"/>
  </g>
</svg>
