<svg xmlns="http://www.w3.org/2000/svg" width="22.184" height="22.174" viewBox="0 0 22.184 22.174">
  <path id="Path_859" data-name="Path 859" d="M262.017,387.873a3.145,3.145,0,0,1-1.6-.418,1.308,1.308,0,0,0-1.353,0,3.286,3.286,0,0,1-3.193,0,1.414,1.414,0,0,0-.676-.192,1.337,1.337,0,0,0-.676.192,3.293,3.293,0,0,1-3.2,0,1.375,1.375,0,0,0-.676-.192,1.353,1.353,0,0,0-.68.188,3.21,3.21,0,0,1-3.16,0,.866.866,0,1,1,.9-1.482,1.5,1.5,0,0,0,1.356,0,3.036,3.036,0,0,1,3.16,0,1.4,1.4,0,0,0,.684.163,1.464,1.464,0,0,0,.713-.163,3.023,3.023,0,0,1,3.152,0,1.443,1.443,0,0,0,.706.163,1.468,1.468,0,0,0,.691-.163,3.056,3.056,0,0,1,3.152,0,1.424,1.424,0,0,0,.713.163,1.448,1.448,0,0,0,.684-.163,3.056,3.056,0,0,1,3.152,0,1.465,1.465,0,0,0,.706.163,1.4,1.4,0,0,0,.676-.163.866.866,0,0,1,.9,1.482,3.085,3.085,0,0,1-1.574.414,3.194,3.194,0,0,1-1.6-.414,1.316,1.316,0,0,0-1.353,0,3.164,3.164,0,0,1-1.571.414.1.1,0,0,1-.03,0Zm1.552-17.122a9.135,9.135,0,0,0-9.919-3.951l-.17-.51a.867.867,0,1,0-1.645.551l.17.506a9.143,9.143,0,0,0-5.591,9.132,2.714,2.714,0,0,0,3.256,2.4,56.919,56.919,0,0,0,5.662-1.567l2.11,6.286a.867.867,0,1,0,1.645-.551l-2.384-7.1a.867.867,0,0,0-1.1-.547,58.841,58.841,0,0,1-6.294,1.785.978.978,0,0,1-.791-.174.936.936,0,0,1-.384-.687,7.454,7.454,0,0,1,5.2-7.642h0a7.45,7.45,0,0,1,8.755,2.982.936.936,0,0,1,.1.78.959.959,0,0,1-.525.61c-.584.273-1.556.728-2.871,1.227a.865.865,0,1,0,.613,1.619c1.375-.521,2.387-1,2.99-1.279a2.717,2.717,0,0,0,1.452-1.689,2.636,2.636,0,0,0-.288-2.18Zm-6.053,2.528a.865.865,0,0,1-.765-.458,4.808,4.808,0,0,0-1.648-1.6.868.868,0,0,1,.839-1.519,6.512,6.512,0,0,1,2.336,2.3.864.864,0,0,1-.359,1.172.793.793,0,0,1-.4.107Zm-5.148,1.763a.866.866,0,0,0,.721-.99,4.825,4.825,0,0,1,.329-2.251.866.866,0,1,0-1.589-.687,6.516,6.516,0,0,0-.451,3.208.865.865,0,0,0,.854.732.889.889,0,0,0,.137-.011Zm11.212,9.191a3.248,3.248,0,1,1,3.248-3.248A3.251,3.251,0,0,1,263.58,384.232Zm0-4.764a1.515,1.515,0,1,0,1.515,1.515A1.517,1.517,0,0,0,263.58,379.469Z" transform="translate(-246.381 -365.698)" fill="#fff"/>
</svg>
