<svg xmlns="http://www.w3.org/2000/svg" width="24.836" height="22.174" viewBox="0 0 24.836 22.174">
  <path id="Path_857" data-name="Path 857" d="M134.85,377.241h-1.171a4.886,4.886,0,0,0-.248-.658l-1.67-3.648a6.041,6.041,0,0,0-5.044-3.448l-.192-.654a1.945,1.945,0,0,0-1.863-1.393h-2.524a1.94,1.94,0,0,0-1.863,1.393l-.188.643c-.322.052-.639.107-.95.174a5.851,5.851,0,0,0-4.095,3.274l-1.678,3.659a4.882,4.882,0,0,0-.248.658h-1.172a.97.97,0,0,0,0,1.94h.972v3.98a3.871,3.871,0,0,0,2.428,3.6,2.987,2.987,0,0,0,.891,2.018,2.867,2.867,0,0,0,2.077.831,2.911,2.911,0,0,0,2.835-2.572h4.509a2.99,2.99,0,0,0,.865,1.737,2.865,2.865,0,0,0,2.021.832h.055a2.917,2.917,0,0,0,2.857-2.853,3.87,3.87,0,0,0,2.428-3.6v-3.98h.972a.968.968,0,0,0,0-1.936Zm-2.908,5.92a1.934,1.934,0,0,1-1.615,1.914.972.972,0,0,0-.809.957v.673a.976.976,0,0,1-.95.972.944.944,0,0,1-.68-.277,1.033,1.033,0,0,1-.31-.732v-.591a.973.973,0,0,0-.972-.972h-6.4a.973.973,0,0,0-.972.972v.632a.976.976,0,0,1-.95.972.944.944,0,0,1-.68-.277,1.033,1.033,0,0,1-.31-.732v-.632a.972.972,0,0,0-.809-.957,1.934,1.934,0,0,1-1.615-1.914v-4.52a2.971,2.971,0,0,1,.273-1.249l1.678-3.659a3.894,3.894,0,0,1,2.731-2.18,19.922,19.922,0,0,1,7.742.015,3.892,3.892,0,0,1,2.716,2.18l1.67,3.648a2.984,2.984,0,0,1,.273,1.249v4.509Zm-2.864-3.98H117.724a.97.97,0,0,1,0-1.94h11.353A.97.97,0,0,1,129.077,379.181Zm-.292,1.844A1.212,1.212,0,1,0,130,382.237,1.213,1.213,0,0,0,128.785,381.025ZM116.8,382.237a1.212,1.212,0,1,0,1.212-1.212A1.213,1.213,0,0,0,116.8,382.237Z" transform="translate(-110.98 -367.44)" fill="#fff"/>
</svg>
