<svg xmlns="http://www.w3.org/2000/svg" width="22.17" height="27.03" viewBox="0 0 22.17 27.03">
  <g id="Group_813" data-name="Group 813" transform="translate(0 0)">
    <g id="Group_812" data-name="Group 812">
      <path id="Path_958" data-name="Path 958" d="M272.657,656.69h-2.565a.528.528,0,1,0,0,1.057h2.565a.528.528,0,0,1,.528.528v1.057c0,.333-.41.484-.654.543l-3.729.917a4.9,4.9,0,0,1-2.173,0l-3.729-.917c-.244-.059-.654-.211-.654-.543v-1.057a.528.528,0,0,1,.529-.528h2.565a.528.528,0,1,0,0-1.057h-2.565a1.587,1.587,0,0,0-1.585,1.585v6.168a1.057,1.057,0,0,0,1.057,1.057h10.935a1.057,1.057,0,0,0,1.057-1.057v-6.168A1.58,1.58,0,0,0,272.657,656.69Zm-10.407,7.753V660.77a3.032,3.032,0,0,0,.4.133l3.729.917a5.98,5.98,0,0,0,2.676,0l3.729-.917a3.027,3.027,0,0,0,.4-.133v3.673Z" transform="translate(-256.626 -641.383)" fill="#fff"/>
      <path id="Path_959" data-name="Path 959" d="M270.042,632.695V622.661a3.7,3.7,0,0,0-3.7-3.7h-2.738a7.561,7.561,0,0,0-1.46-.621v-1.489a1.587,1.587,0,0,0-1.585-1.585h-1.268a1.587,1.587,0,0,0-1.585,1.585v1.489a7.561,7.561,0,0,0-1.46.621h-2.738a3.7,3.7,0,0,0-3.7,3.7v10.034a1.054,1.054,0,0,0-.976,1.053v5.913a2.64,2.64,0,0,0,2.639,2.639h16.893a2.64,2.64,0,0,0,2.639-2.639v-5.913a1.042,1.042,0,0,0-.968-1.053Zm-3.7-12.676a2.64,2.64,0,0,1,2.639,2.639v10.03h-.569l-.565-6.8a9.05,9.05,0,0,0-2.41-5.5c-.122-.129-.248-.251-.377-.37Zm-1.135,21.224H254.653a2.8,2.8,0,0,1-2.029-.891,2.233,2.233,0,0,1-.613-1.707l1.057-12.672a7.768,7.768,0,0,1,3.5-5.994.509.509,0,0,0,.144-.085,6.686,6.686,0,0,1,6.445,0,.567.567,0,0,0,.144.085,7.762,7.762,0,0,1,3.5,5.994l1.057,12.672a2.238,2.238,0,0,1-.613,1.707A2.787,2.787,0,0,1,265.211,641.243Zm-6.441-24.391a.528.528,0,0,1,.528-.529h1.268a.528.528,0,0,1,.529.529V618.1a7.642,7.642,0,0,0-2.321,0v-1.249Zm-5.251,3.167H254.8c-.129.118-.255.24-.377.37a9.08,9.08,0,0,0-2.41,5.5l-.565,6.8h-.569v-10.03A2.638,2.638,0,0,1,253.519,620.019Zm-2.033,21.224a1.587,1.587,0,0,1-1.585-1.585v-5.913h1.46l-.4,4.812a3.27,3.27,0,0,0,.891,2.509c.055.059.115.118.174.174l-.536,0Zm18.478-1.585a1.587,1.587,0,0,1-1.585,1.585h-.536c.059-.055.118-.115.174-.174a3.284,3.284,0,0,0,.891-2.509l-.4-4.812h1.46Z" transform="translate(-248.84 -615.27)" fill="#fff"/>
      <path id="Path_960" data-name="Path 960" d="M273.753,640.58a1.053,1.053,0,0,0,1.493,0l1.493-1.493a1.06,1.06,0,0,0,0-1.493l-1.493-1.493a1.053,1.053,0,0,0-1.493,0l-1.493,1.493a1.053,1.053,0,0,0,0,1.493Zm.747-3.733,1.493,1.493-1.493,1.493-1.493-1.493Z" transform="translate(-263.409 -628.207)" fill="#fff"/>
      <path id="Path_961" data-name="Path 961" d="M277.949,656.69a.528.528,0,1,0,.528.529.528.528,0,0,0-.528-.529Z" transform="translate(-266.858 -641.383)" fill="#fff"/>
    </g>
  </g>
</svg>
