<svg xmlns="http://www.w3.org/2000/svg" width="22.174" height="22.175" viewBox="0 0 22.174 22.175">
  <g id="Group_729" data-name="Group 729" transform="translate(0 0)">
    <path id="Path_840" data-name="Path 840" d="M524.57,222.586l-10.045,1.3a2.6,2.6,0,0,0-2.276,2.58V238.5a5.1,5.1,0,0,0-2.6-.687,4.973,4.973,0,0,0-2.971.935,3.036,3.036,0,0,0,0,5.063,5.188,5.188,0,0,0,5.942,0,3.2,3.2,0,0,0,1.36-2.531V226.462a.869.869,0,0,1,.761-.861l10.045-1.3a.864.864,0,0,1,.972.861v11.6a5.1,5.1,0,0,0-2.6-.687,4.973,4.973,0,0,0-2.971.935,3.036,3.036,0,0,0,0,5.063,5.189,5.189,0,0,0,5.943,0,3.2,3.2,0,0,0,1.36-2.531v-14.38a2.6,2.6,0,0,0-2.923-2.58Zm-14.919,20.422c-1.408,0-2.6-.795-2.6-1.733s1.19-1.733,2.6-1.733,2.6.795,2.6,1.733S511.059,243.007,509.651,243.007Zm13.511-1.733c-1.408,0-2.6-.795-2.6-1.733s1.19-1.733,2.6-1.733,2.6.795,2.6,1.733S524.57,241.274,523.162,241.274Z" transform="translate(-505.32 -222.565)" fill="#fff"/>
    <path id="Path_841" data-name="Path 841" d="M541.747,238.034a.868.868,0,0,0-.972-.747l-6.582.865a.867.867,0,0,0,.111,1.726c.037,0,.078,0,.115-.007l6.582-.865a.862.862,0,0,0,.747-.972Z" transform="translate(-523.048 -231.842)" fill="#fff"/>
  </g>
</svg>
