<svg xmlns="http://www.w3.org/2000/svg" width="18.544" height="22.174" viewBox="0 0 18.544 22.174">
  <path id="Path_863" data-name="Path 863" d="M926.73,370.263a14,14,0,0,1-5-2.173,3.785,3.785,0,0,0-4.243,0,14,14,0,0,1-5,2.173,2.6,2.6,0,0,0-2.147,2.561v5.229a9.654,9.654,0,0,0,1.438,5,14.5,14.5,0,0,0,3.071,3.54,20.032,20.032,0,0,0,4.412,2.86l.351.155.351-.155a20.362,20.362,0,0,0,4.413-2.86,14.576,14.576,0,0,0,3.071-3.54,9.654,9.654,0,0,0,1.438-5v-5.233A2.61,2.61,0,0,0,926.73,370.263Zm.414,7.787c0,2.576-1.3,5-3.866,7.2A19.377,19.377,0,0,1,919.6,387.7c-1.534-.78-7.539-4.18-7.539-9.653v-5.229a.868.868,0,0,1,.72-.854,15.708,15.708,0,0,0,5.662-2.443,2.063,2.063,0,0,1,2.313,0,15.71,15.71,0,0,0,5.662,2.443.868.868,0,0,1,.721.854Z" transform="translate(-910.34 -367.44)" fill="#fff"/>
</svg>
