<svg xmlns="http://www.w3.org/2000/svg" width="22.185" height="22.177" viewBox="0 0 22.185 22.177">
  <g id="Group_781" data-name="Group 781" transform="translate(0 0)">
    <path id="Path_894" data-name="Path 894" d="M135.146,502.9l-1.083-.185a8.18,8.18,0,0,0-.325-.787l.636-.891a1.927,1.927,0,0,0-.211-2.5l-1.3-1.3a1.931,1.931,0,0,0-2.495-.207l-.894.636c-.277-.129-.558-.248-.839-.347l-.177-1.061a1.934,1.934,0,0,0-1.914-1.619h-1.829a1.937,1.937,0,0,0-1.914,1.619l-.188,1.1c-.266.1-.528.207-.783.329l-.88-.632a1.941,1.941,0,0,0-2.5.207l-1.3,1.3a1.937,1.937,0,0,0-.211,2.5l.647.909c-.118.255-.225.521-.322.791l-1.061.177a1.934,1.934,0,0,0-1.619,1.914v1.837A1.937,1.937,0,0,0,116.2,508.6l1.1.189c.1.266.207.528.329.784l-.628.876a1.927,1.927,0,0,0,.211,2.5l1.3,1.3a1.938,1.938,0,0,0,2.495.211l.909-.647c.24.111.488.214.739.3l.181,1.083a1.934,1.934,0,0,0,1.914,1.619h1.84a1.937,1.937,0,0,0,1.914-1.619l.185-1.083a8.2,8.2,0,0,0,.787-.325l.887.636a1.941,1.941,0,0,0,2.5-.207l1.3-1.3a1.937,1.937,0,0,0,.211-2.5l-.636-.894c.122-.262.233-.525.325-.787l1.079-.181a1.934,1.934,0,0,0,1.619-1.914V504.81A1.926,1.926,0,0,0,135.146,502.9Zm.31,3.747a.639.639,0,0,1-.536.632l-1.434.24a.7.7,0,0,0-.558.488,7.622,7.622,0,0,1-.517,1.253.7.7,0,0,0,.052.732l.843,1.186a.64.64,0,0,1-.07.824l-1.3,1.3a.632.632,0,0,1-.451.188.64.64,0,0,1-.373-.118l-1.179-.843a.7.7,0,0,0-.735-.052,7.757,7.757,0,0,1-1.253.517.7.7,0,0,0-.484.554l-.244,1.434a.639.639,0,0,1-.632.536h-1.84a.639.639,0,0,1-.632-.536l-.24-1.434a.7.7,0,0,0-.48-.554,7.712,7.712,0,0,1-1.212-.5.73.73,0,0,0-.325-.081.708.708,0,0,0-.407.129l-1.2.854a.618.618,0,0,1-.366.118.626.626,0,0,1-.451-.188l-1.3-1.3a.635.635,0,0,1-.07-.82l.839-1.168a.7.7,0,0,0,.052-.743,7.183,7.183,0,0,1-.525-1.245.7.7,0,0,0-.551-.48l-1.452-.248a.639.639,0,0,1-.536-.632v-1.837a.639.639,0,0,1,.536-.632l1.415-.24a.7.7,0,0,0,.554-.488,7.772,7.772,0,0,1,.51-1.257.7.7,0,0,0-.052-.732l-.854-1.2a.64.64,0,0,1,.07-.824l1.3-1.3,0,0a.629.629,0,0,1,.447-.185.621.621,0,0,1,.37.118l1.172.843a.693.693,0,0,0,.743.048,7.186,7.186,0,0,1,1.245-.525.7.7,0,0,0,.48-.554l.248-1.452a.639.639,0,0,1,.632-.536h1.837a.639.639,0,0,1,.632.536l.24,1.415a.7.7,0,0,0,.488.554,7.54,7.54,0,0,1,1.3.536.7.7,0,0,0,.735-.052l1.186-.846a.618.618,0,0,1,.366-.118.626.626,0,0,1,.451.188l1.3,1.3a.63.63,0,0,1,.067.82l-.843,1.183a.7.7,0,0,0-.052.735,7.446,7.446,0,0,1,.517,1.253.7.7,0,0,0,.554.484l1.434.244h0a.618.618,0,0,1,.525.625v1.852Z" transform="translate(-114.58 -494.64)" fill="#fff"/>
    <path id="Path_895" data-name="Path 895" d="M137.233,512.99a4.313,4.313,0,1,0,4.313,4.313A4.318,4.318,0,0,0,137.233,512.99Zm0,7.321a3.012,3.012,0,1,1,3.012-3.012A3.017,3.017,0,0,1,137.233,520.311Z" transform="translate(-126.142 -506.209)" fill="#fff"/>
  </g>
</svg>
